<svg xmlns="http://www.w3.org/2000/svg" width="604" height="218.708" viewBox="0 0 604 218.708">
  <g id="Grupo_1212885" data-name="Grupo 1212885" transform="translate(-186 -3146)">
    <path id="_23-2150376976" data-name="23-2150376976" d="M16,0H588a16,16,0,0,1,16,16V218.708H0V16A16,16,0,0,1,16,0Z" transform="translate(186 3146)" fill="#e8fefe"/>
    <g id="Grupo_1212752" data-name="Grupo 1212752" transform="translate(308.812 3194.234)">
      <line id="Línea_3478" data-name="Línea 3478" x2="49.307" transform="matrix(0.485, 0.875, -0.875, 0.485, 0, 0)" fill="none" stroke="#1df2f2" stroke-linecap="round" stroke-width="1.5"/>
      <path id="Polígono_12" data-name="Polígono 12" d="M2.659,0,5.318,9.58H0Z" transform="matrix(-0.875, 0.485, -0.485, -0.875, 28.553, 46.13)" fill="#1df2f2"/>
    </g>
    <path id="Trazado_1383494" data-name="Trazado 1383494" d="M0,.045,76.7,0" transform="translate(329.581 3252) rotate(173)" fill="none" stroke="#fe9341" stroke-linecap="round" stroke-width="1.5"/>
    <path id="Trazado_1383762" data-name="Trazado 1383762" d="M2.659,0,5.318,9.58H0Z" transform="translate(248.929 3264.53) rotate(-97)" fill="#fe9341"/>
    <g id="Grupo_1212754" data-name="Grupo 1212754" transform="translate(317.309 3257.012)">
      <line id="Línea_3478-2" data-name="Línea 3478" x2="61.167" transform="matrix(0.292, -0.956, 0.956, 0.292, 0, 63.926)" fill="none" stroke="#1df2f2" stroke-linecap="round" stroke-width="1.5"/>
      <path id="Polígono_12-2" data-name="Polígono 12" d="M2.659,0,5.318,9.58H0Z" transform="matrix(0.956, 0.292, -0.292, 0.956, 16.818, 0)" fill="#1df2f2"/>
    </g>
    <path id="Trazado_1383763" data-name="Trazado 1383763" d="M-3.866-12.237l.1-.343H2.378l-.121.343a1.931,1.931,0,0,0-1.276.371,3.224,3.224,0,0,0-.775,1.549l-2.3,8.053a5.178,5.178,0,0,0-.25,1.141.6.6,0,0,0,.26.52,2.4,2.4,0,0,0,1.262.26L-.916,0H-7.159l.1-.343A2.153,2.153,0,0,0-5.684-.7,3.275,3.275,0,0,0-4.9-2.264l2.319-8.053a4.477,4.477,0,0,0,.213-1.123.635.635,0,0,0-.26-.538A2.76,2.76,0,0,0-3.866-12.237ZM5.88-1.489,4.089,4.669a3.088,3.088,0,0,0-.141.611.459.459,0,0,0,.1.268.468.468,0,0,0,.216.179,3.917,3.917,0,0,0,.7.073l-.06.2H1.21l.06-.2a2.624,2.624,0,0,0,.768-.092.774.774,0,0,0,.354-.265A2.785,2.785,0,0,0,2.7,4.669L3.764,1.011q.244-.833.254-.882a1.182,1.182,0,0,0,.032-.265A.512.512,0,0,0,3.9-.524a.588.588,0,0,0-.425-.143q-.135,0-.536.043L2.9-.824l2.754-.666Z" transform="translate(303.171 3183)" fill="#12263f"/>
    <path id="Trazado_1383764" data-name="Trazado 1383764" d="M-3.866-12.237l.1-.343H2.378l-.121.343a1.931,1.931,0,0,0-1.276.371,3.224,3.224,0,0,0-.775,1.549l-2.3,8.053a5.178,5.178,0,0,0-.25,1.141.6.6,0,0,0,.26.52,2.4,2.4,0,0,0,1.262.26L-.916,0H-7.159l.1-.343A2.153,2.153,0,0,0-5.684-.7,3.275,3.275,0,0,0-4.9-2.264l2.319-8.053a4.477,4.477,0,0,0,.213-1.123.635.635,0,0,0-.26-.538A2.76,2.76,0,0,0-3.866-12.237ZM4.89,6H.993V5.8Q2.514,4.393,3.558,3.213a6.625,6.625,0,0,0,1.1-1.5A2.593,2.593,0,0,0,4.884.675a1.078,1.078,0,0,0-.311-.8A1.059,1.059,0,0,0,3.8-.434,1.533,1.533,0,0,0,2.509.394L2.308.3A2.973,2.973,0,0,1,3.039-.916,2.086,2.086,0,0,1,4.5-1.489a1.808,1.808,0,0,1,1.291.482A1.489,1.489,0,0,1,6.3.107a2.623,2.623,0,0,1-.249,1.1A5.6,5.6,0,0,1,5.025,2.575q-.6.628-2.414,2.181H4.024A2.1,2.1,0,0,0,4.979,4.6a1.436,1.436,0,0,0,.511-.62h.254Z" transform="translate(255.281 3285.703)" fill="#12263f"/>
    <path id="Trazado_1383765" data-name="Trazado 1383765" d="M-3.866-12.237l.1-.343H2.378l-.121.343a1.931,1.931,0,0,0-1.276.371,3.224,3.224,0,0,0-.775,1.549l-2.3,8.053a5.178,5.178,0,0,0-.25,1.141.6.6,0,0,0,.26.52,2.4,2.4,0,0,0,1.262.26L-.916,0H-7.159l.1-.343A2.153,2.153,0,0,0-5.684-.7,3.275,3.275,0,0,0-4.9-2.264l2.319-8.053a4.477,4.477,0,0,0,.213-1.123.635.635,0,0,0-.26-.538A2.76,2.76,0,0,0-3.866-12.237ZM2.362,2.012l.07-.233A4.494,4.494,0,0,0,3.645,1.46a2.261,2.261,0,0,0,.9-.633A1.247,1.247,0,0,0,4.825.047.834.834,0,0,0,4.57-.564a.859.859,0,0,0-.633-.254,1.032,1.032,0,0,0-.552.157,2.219,2.219,0,0,0-.552.547L2.617-.223A3.315,3.315,0,0,1,3.529-1.2a1.864,1.864,0,0,1,1.025-.292,1.656,1.656,0,0,1,1.158.4,1.261,1.261,0,0,1,.444.966,1.379,1.379,0,0,1-.216.774,1.845,1.845,0,0,1-.639.574,4.423,4.423,0,0,1-.969.363,2.055,2.055,0,0,1,.844.584,1.879,1.879,0,0,1,.363,1.163,2.543,2.543,0,0,1-1.1,2.11,3.443,3.443,0,0,1-2.143.7,1.641,1.641,0,0,1-.979-.244.525.525,0,0,1-.227-.444.539.539,0,0,1,.173-.411.6.6,0,0,1,.428-.162.6.6,0,0,1,.249.054,4.1,4.1,0,0,1,.617.365,1.318,1.318,0,0,0,.682.279.73.73,0,0,0,.59-.341A2.058,2.058,0,0,0,4.2,3.987a2.154,2.154,0,0,0-.238-1.034A1.606,1.606,0,0,0,3.347,2.3,2.582,2.582,0,0,0,2.362,2.012Z" transform="translate(325.924 3337.938)" fill="#12263f"/>
    <path id="Trazado_1383766" data-name="Trazado 1383766" d="M-3.866-12.237l.1-.343H2.378l-.121.343a1.931,1.931,0,0,0-1.276.371,3.224,3.224,0,0,0-.775,1.549l-2.3,8.053a5.178,5.178,0,0,0-.25,1.141.6.6,0,0,0,.26.52,2.4,2.4,0,0,0,1.262.26L-.916,0H-7.159l.1-.343A2.153,2.153,0,0,0-5.684-.7,3.275,3.275,0,0,0-4.9-2.264l2.319-8.053a4.477,4.477,0,0,0,.213-1.123.635.635,0,0,0-.26-.538A2.76,2.76,0,0,0-3.866-12.237ZM3.542,4.452h-2.4l.265-.909L5.8-1.489h.709L5.041,3.543h.85L5.6,4.452H4.776l-.5,1.7H3.05Zm.276-.909.9-3.209L1.94,3.543Z" transform="translate(392.25 3312.785)" fill="#12263f"/>
    <path id="Trazado_1383767" data-name="Trazado 1383767" d="M-3.662-11.593l.1-.325H2.253l-.114.325a1.83,1.83,0,0,0-1.208.352A3.054,3.054,0,0,0,.2-9.773l-2.18,7.629a4.906,4.906,0,0,0-.237,1.081.57.57,0,0,0,.246.492,2.269,2.269,0,0,0,1.2.246L-.868,0H-6.783l.1-.325a2.04,2.04,0,0,0,1.3-.338,3.1,3.1,0,0,0,.747-1.481l2.2-7.629a4.241,4.241,0,0,0,.2-1.063.6.6,0,0,0-.246-.51A2.614,2.614,0,0,0-3.662-11.593ZM3.566-.952H6.191L5.847.248H3.412L3.1.873a3.61,3.61,0,0,1,1.223.395,2.078,2.078,0,0,1,.782.8,2.277,2.277,0,0,1,.3,1.141,2.837,2.837,0,0,1-.4,1.43,2.942,2.942,0,0,1-1.1,1.1,2.953,2.953,0,0,1-1.5.408,1.346,1.346,0,0,1-.838-.213A.612.612,0,0,1,1.3,5.451a.528.528,0,0,1,.161-.387A.522.522,0,0,1,1.843,4.9a.826.826,0,0,1,.328.062,4.745,4.745,0,0,1,.523.395.894.894,0,0,0,.569.226.807.807,0,0,0,.656-.338,1.721,1.721,0,0,0,.359-1.123,2.277,2.277,0,0,0-.3-1.141,1.987,1.987,0,0,0-.81-.8,2.287,2.287,0,0,0-1.02-.226Z" transform="translate(405.874 3222.012)" fill="#12263f"/>
    <g id="Grupo_1211065" data-name="Grupo 1211065" transform="matrix(0.755, -0.656, 0.656, 0.755, 347.219, 3240.963)">
      <line id="Línea_3478-3" data-name="Línea 3478" x2="69.445" transform="translate(0 2.607)" fill="none" stroke="#fe9341" stroke-linecap="round" stroke-width="2"/>
      <path id="Polígono_12-3" data-name="Polígono 12" d="M2.659,0,5.318,9.58H0Z" transform="translate(74.327 0) rotate(90)" fill="#fe9341"/>
    </g>
    <g id="Grupo_1212753" data-name="Grupo 1212753" transform="translate(341.745 3257.012)">
      <line id="Línea_3478-4" data-name="Línea 3478" x1="34.384" y1="62.332" transform="translate(4.7 5.583)" fill="none" stroke="#1df2f2" stroke-linecap="round" stroke-width="2"/>
      <path id="Polígono_12-4" data-name="Polígono 12" d="M2.659,0,5.318,9.58H0Z" transform="translate(0 2.659) rotate(-30)" fill="#1df2f2"/>
    </g>
    <path id="Trazado_1383768" data-name="Trazado 1383768" d="M7.336,0A7.336,7.336,0,1,1,0,7.336,7.336,7.336,0,0,1,7.336,0Z" transform="translate(332.547 3242.34)" fill="#0460d9"/>
    <path id="Trazado_1383769" data-name="Trazado 1383769" d="M-.093-13.242,4.048-4.414,5.913-10.82a3.552,3.552,0,0,0,.146-.937,1.028,1.028,0,0,0-.308-.781,1.688,1.688,0,0,0-1.06-.342l.107-.361H9l-.1.361a2.358,2.358,0,0,0-1.323.449,3.156,3.156,0,0,0-.884,1.611L3.462.146H3.091L-2.222-11.143l-2.568,8.8a3.116,3.116,0,0,0-.127.82,1.09,1.09,0,0,0,.347.845,1.61,1.61,0,0,0,1.108.317L-3.55,0H-7.866l.088-.361a2.26,2.26,0,0,0,.791-.1,2.086,2.086,0,0,0,.8-.6,3.352,3.352,0,0,0,.635-1.284l2.8-9.619a3.133,3.133,0,0,0-.869-.742,2.664,2.664,0,0,0-1.055-.176l.107-.361Z" transform="translate(579.024 3204)" fill="#12263f"/>
    <path id="Trazado_1383770" data-name="Trazado 1383770" d="M-12.467-8.828H-1.783v1.27H-12.467Zm0,3.193H-1.783v1.27H-12.467Zm22.8-7.881a2.477,2.477,0,0,1,1.621.552,3.073,3.073,0,0,1,.972,1.47,5.861,5.861,0,0,1,.3,1.816,13.413,13.413,0,0,1-.405,3.2,13.523,13.523,0,0,1-1.128,3.037,10.408,10.408,0,0,1-1.6,2.324,4.85,4.85,0,0,1-1.353.986,3.581,3.581,0,0,1-1.626.4A2.292,2.292,0,0,1,5.7-.2a3.086,3.086,0,0,1-.991-1.367,5.107,5.107,0,0,1-.361-1.924,13.24,13.24,0,0,1,.811-4.5,12.669,12.669,0,0,1,1.675-3.237,6.452,6.452,0,0,1,1.826-1.826A3.367,3.367,0,0,1,10.328-13.516Zm.068.664a1.082,1.082,0,0,0-.508.112,1.492,1.492,0,0,0-.464.454A6.227,6.227,0,0,0,8.8-10.83Q8.112-8.8,7.272-5.869,6.627-3.613,6.5-2.979a8.085,8.085,0,0,0-.186,1.592,1.05,1.05,0,0,0,.259.752.846.846,0,0,0,.64.273.978.978,0,0,0,.654-.215,3.236,3.236,0,0,0,.859-1.484q.8-2.451,2.021-6.748a11.7,11.7,0,0,0,.537-2.979,1.115,1.115,0,0,0-.259-.781A.822.822,0,0,0,10.4-12.852Z" transform="translate(640.338 3236.619)" fill="#12263f"/>
    <path id="Trazado_1383771" data-name="Trazado 1383771" d="M-1.555-13.545a1.379,1.379,0,0,1,1.021.42A1.392,1.392,0,0,1-.12-12.109a1.384,1.384,0,0,1-.42,1.016,1.384,1.384,0,0,1-1.016.42,1.372,1.372,0,0,1-1.006-.42,1.384,1.384,0,0,1-.42-1.016,1.392,1.392,0,0,1,.415-1.016A1.367,1.367,0,0,1-1.555-13.545ZM-.95-9.053l-2,6.943a3.839,3.839,0,0,0-.166.781.287.287,0,0,0,.088.2.256.256,0,0,0,.186.093.505.505,0,0,0,.332-.146A5.976,5.976,0,0,0-1.458-2.49l.332.2Q-2.6.273-4.26.273A1.409,1.409,0,0,1-5.271-.083a1.191,1.191,0,0,1-.376-.9A3.352,3.352,0,0,1-5.481-1.9l1.357-4.668a4.032,4.032,0,0,0,.2-1.016.5.5,0,0,0-.186-.381.734.734,0,0,0-.508-.166q-.146,0-.352.01l.127-.391,3.311-.537ZM2.675,1.72,1.969,4.163A14.436,14.436,0,0,1,3.034,2.7a3.781,3.781,0,0,1,.894-.775,1.485,1.485,0,0,1,.706-.205.678.678,0,0,1,.507.219.792.792,0,0,1,.211.572,2.777,2.777,0,0,1-.137.775L4.487,5.718a2.023,2.023,0,0,0-.091.416.146.146,0,0,0,.043.1.122.122,0,0,0,.088.046.206.206,0,0,0,.12-.046,2.235,2.235,0,0,0,.4-.467q.051-.08.165-.239l.216.131q-.837,1.407-1.76,1.407a.788.788,0,0,1-.553-.182.592.592,0,0,1-.2-.456,2.835,2.835,0,0,1,.137-.712l.712-2.432a1.348,1.348,0,0,0,.074-.353.149.149,0,0,0-.051-.111.169.169,0,0,0-.12-.048.849.849,0,0,0-.524.3A8.009,8.009,0,0,0,1.627,5.308L1.16,7H-.293L.773,3.343a3.294,3.294,0,0,0,.154-.769.277.277,0,0,0-.046-.162.3.3,0,0,0-.148-.1,1.331,1.331,0,0,0-.387-.037l.063-.216,1.92-.336Z" transform="translate(612.803 3235.328)" fill="#12263f"/>
    <path id="Trazado_1383772" data-name="Trazado 1383772" d="M-10.968-9.053l-1.211,4.189a24.75,24.75,0,0,1,1.826-2.51A6.482,6.482,0,0,1-8.82-8.7a2.545,2.545,0,0,1,1.211-.352,1.162,1.162,0,0,1,.869.376,1.357,1.357,0,0,1,.361.981,4.76,4.76,0,0,1-.234,1.328L-7.863-2.2a3.467,3.467,0,0,0-.156.713.251.251,0,0,0,.073.176.21.21,0,0,0,.151.078.353.353,0,0,0,.205-.078,3.831,3.831,0,0,0,.693-.8q.088-.137.283-.41l.371.225Q-7.677.117-9.259.117A1.352,1.352,0,0,1-10.206-.2a1.015,1.015,0,0,1-.342-.781A4.86,4.86,0,0,1-10.314-2.2l1.221-4.17a2.311,2.311,0,0,0,.127-.605.255.255,0,0,0-.088-.19.289.289,0,0,0-.205-.083,1.456,1.456,0,0,0-.9.508A13.731,13.731,0,0,0-12.765-2.9l-.8,2.9h-2.49l1.826-6.27a5.647,5.647,0,0,0,.264-1.318.476.476,0,0,0-.078-.278.507.507,0,0,0-.254-.176,2.282,2.282,0,0,0-.664-.063l.107-.371,3.291-.576Zm6.613.225H6.328v1.27H-4.355Zm0,3.193H6.328v1.27H-4.355Zm19.562-7.881L11.974-2.4a5.573,5.573,0,0,0-.254,1.1.828.828,0,0,0,.181.483.844.844,0,0,0,.391.322,7.068,7.068,0,0,0,1.265.132L13.448,0H6.779l.107-.361A4.735,4.735,0,0,0,8.273-.527a1.4,1.4,0,0,0,.64-.479,5.026,5.026,0,0,0,.562-1.4L11.388-9q.439-1.5.459-1.592a2.132,2.132,0,0,0,.059-.479.924.924,0,0,0-.269-.7,1.061,1.061,0,0,0-.767-.259q-.244,0-.967.078l-.078-.361,4.971-1.2Z" transform="translate(578.281 3277.221)" fill="#12263f"/>
    <path id="Trazado_1383495" data-name="Trazado 1383495" d="M1753.92-7632.315v-3.373H1728.2l18.15,18.15-18.15,21.907h25.721v-3.8" transform="translate(-1163.896 10851.621)" fill="none" stroke="#12263f" stroke-width="2"/>
    <path id="Trazado_1383496" data-name="Trazado 1383496" d="M1753.92-7632.315v-3.373H1728.2l18.15,18.15-18.15,21.907h25.721v-3.8" transform="translate(-1165.896 10851.621)" fill="none" stroke="#12263f" stroke-width="2"/>
    <path id="Trazado_1383773" data-name="Trazado 1383773" d="M-94.842-12.881l.107-.361h6.465l-.127.361a2.033,2.033,0,0,0-1.343.391,3.394,3.394,0,0,0-.815,1.631l-2.422,8.477a5.451,5.451,0,0,0-.264,1.2.634.634,0,0,0,.273.547,2.522,2.522,0,0,0,1.328.273l-.1.361h-6.572l.107-.361a2.266,2.266,0,0,0,1.445-.376,3.447,3.447,0,0,0,.83-1.646l2.441-8.477a4.712,4.712,0,0,0,.225-1.182.669.669,0,0,0-.273-.566A2.9,2.9,0,0,0-94.842-12.881Zm10.259,12L-86.469,5.6a3.251,3.251,0,0,0-.148.644.483.483,0,0,0,.105.282.493.493,0,0,0,.228.188,4.123,4.123,0,0,0,.738.077L-85.608,7H-89.5l.063-.211a2.762,2.762,0,0,0,.809-.1.814.814,0,0,0,.373-.279,2.932,2.932,0,0,0,.328-.815l1.116-3.851q.256-.877.268-.928A1.243,1.243,0,0,0-86.508.54a.539.539,0,0,0-.157-.407.619.619,0,0,0-.447-.151q-.142,0-.564.046l-.046-.211,2.9-.7Zm1.454-6.382h4.7v-4.687h1.279v4.688h4.7v1.289h-4.7v4.648h-1.279V-5.977h-4.7ZM-69.339.3l.43-11.074q.029-.967.029-1.016a1.066,1.066,0,0,0-.259-.791,1.522,1.522,0,0,0-.952-.3l.117-.361h5.566l-.107.361a1.339,1.339,0,0,0-1.079.43,3.164,3.164,0,0,0-.425,1.777l-.312,6.9,5.166-6a10.976,10.976,0,0,0,1.24-1.611,1.747,1.747,0,0,0,.234-.781.569.569,0,0,0-.215-.435,1.705,1.705,0,0,0-.82-.288l.137-.361h3.652v.361a2.062,2.062,0,0,0-.762.342,10.347,10.347,0,0,0-1.328,1.367L-68.909.3ZM-54.927,7h-4.1V6.789q1.6-1.481,2.7-2.723a6.973,6.973,0,0,0,1.159-1.575,2.73,2.73,0,0,0,.236-1.1A1.135,1.135,0,0,0-55.26.552a1.114,1.114,0,0,0-.817-.325,1.614,1.614,0,0,0-1.356.872l-.211-.1A3.13,3.13,0,0,1-56.875-.28a2.2,2.2,0,0,1,1.538-.6,1.9,1.9,0,0,1,1.359.507A1.568,1.568,0,0,1-53.44.8,2.761,2.761,0,0,1-53.7,1.956a5.892,5.892,0,0,1-1.082,1.438q-.627.661-2.541,2.3h1.487a2.21,2.21,0,0,0,1.005-.162,1.512,1.512,0,0,0,.538-.652h.268Zm2.5-14.266h4.7v-4.687h1.279v4.688h4.7v1.289h-4.7v4.648h-1.279V-5.977h-4.7ZM-38.64.3l.43-11.074q.029-.967.029-1.016a1.066,1.066,0,0,0-.259-.791,1.522,1.522,0,0,0-.952-.3l.117-.361h5.566l-.107.361a1.339,1.339,0,0,0-1.079.43,3.164,3.164,0,0,0-.425,1.777l-.312,6.9,5.166-6a10.976,10.976,0,0,0,1.24-1.611,1.747,1.747,0,0,0,.234-.781.569.569,0,0,0-.215-.435,1.705,1.705,0,0,0-.82-.288l.137-.361h3.652v.361a2.062,2.062,0,0,0-.762.342,10.347,10.347,0,0,0-1.328,1.367L-38.211.3Zm11.752,2.5.074-.245a4.73,4.73,0,0,0,1.276-.336,2.38,2.38,0,0,0,.946-.666,1.313,1.313,0,0,0,.3-.82A.878.878,0,0,0-24.565.09a.9.9,0,0,0-.666-.268,1.086,1.086,0,0,0-.581.165,2.336,2.336,0,0,0-.581.575l-.228-.114a3.49,3.49,0,0,1,.96-1.025,1.962,1.962,0,0,1,1.079-.308,1.743,1.743,0,0,1,1.219.424A1.327,1.327,0,0,1-22.9.557a1.452,1.452,0,0,1-.228.815,1.942,1.942,0,0,1-.672.6,4.656,4.656,0,0,1-1.02.382,2.163,2.163,0,0,1,.889.615A1.978,1.978,0,0,1-23.545,4.2a2.676,2.676,0,0,1-1.162,2.222,3.624,3.624,0,0,1-2.256.741A1.727,1.727,0,0,1-27.994,6.9a.553.553,0,0,1-.239-.467A.568.568,0,0,1-28.051,6a.633.633,0,0,1,.45-.171.626.626,0,0,1,.262.057,4.313,4.313,0,0,1,.649.384,1.387,1.387,0,0,0,.718.293.768.768,0,0,0,.621-.359,2.166,2.166,0,0,0,.393-1.327,2.267,2.267,0,0,0-.251-1.088,1.69,1.69,0,0,0-.644-.692A2.718,2.718,0,0,0-26.889,2.8Zm5.157-10.067h4.7v-4.687h1.279v4.688h4.7v1.289h-4.7v4.648h-1.279V-5.977h-4.7Zm19.357-6.279-.176.537a9.528,9.528,0,0,0-2.314,2.314,17.627,17.627,0,0,0-2.29,4.946A18.91,18.91,0,0,0-8.039-.273a9.322,9.322,0,0,0,.771,3.516l-.166.566A11.691,11.691,0,0,1-10.061-3.2a9.709,9.709,0,0,1,.879-3.984,11.939,11.939,0,0,1,3.066-4.092A13.177,13.177,0,0,1-2.375-13.545ZM1.455-5.4H7.139L6.533-3.369H.82ZM10.529.3l.43-11.074q.029-.967.029-1.016a1.066,1.066,0,0,0-.259-.791,1.522,1.522,0,0,0-.952-.3l.117-.361H15.46l-.107.361a1.339,1.339,0,0,0-1.079.43,3.164,3.164,0,0,0-.425,1.777l-.312,6.9,5.166-6a10.976,10.976,0,0,0,1.24-1.611,1.747,1.747,0,0,0,.234-.781.569.569,0,0,0-.215-.435,1.705,1.705,0,0,0-.82-.288l.137-.361h3.652v.361a2.062,2.062,0,0,0-.762.342,10.347,10.347,0,0,0-1.328,1.367L10.958.3ZM23.522,5.371H21l.279-.957L25.9-.884h.746L25.1,4.414h.894l-.3.957h-.872L24.3,7.159H23Zm.291-.957.951-3.378L21.836,4.414Zm6.57-11.68h4.7v-4.687h1.279v4.688h4.7v1.289h-4.7v4.648H35.08V-5.977h-4.7ZM46.859-5.4h5.684l-.605,2.031H46.225Zm8.712-7.48.107-.361h6.465l-.127.361a2.033,2.033,0,0,0-1.343.391,3.394,3.394,0,0,0-.815,1.631L57.437-2.383a5.451,5.451,0,0,0-.264,1.2.634.634,0,0,0,.273.547,2.522,2.522,0,0,0,1.328.273l-.1.361H52.1l.107-.361a2.266,2.266,0,0,0,1.445-.376,3.447,3.447,0,0,0,.83-1.646l2.441-8.477a4.713,4.713,0,0,0,.225-1.182.669.669,0,0,0-.273-.566A2.9,2.9,0,0,0,55.572-12.881ZM63.6-.724H66.52L66.138.609H63.432L63.09,1.3a4.011,4.011,0,0,1,1.359.439,2.309,2.309,0,0,1,.869.891,2.53,2.53,0,0,1,.33,1.267,3.152,3.152,0,0,1-.441,1.589,3.378,3.378,0,0,1-2.891,1.675,1.5,1.5,0,0,1-.931-.236.68.68,0,0,1-.3-.538.587.587,0,0,1,.179-.43.58.58,0,0,1,.424-.179.918.918,0,0,1,.365.068,5.272,5.272,0,0,1,.581.439.994.994,0,0,0,.632.251A.9.9,0,0,0,64,6.163a1.912,1.912,0,0,0,.4-1.247,2.53,2.53,0,0,0-.33-1.267,2.208,2.208,0,0,0-.9-.886,2.541,2.541,0,0,0-1.134-.251Zm3.59,4.533.176-.537a9.6,9.6,0,0,0,1.9-1.758,13.863,13.863,0,0,0,1.6-2.651A20.422,20.422,0,0,0,72.2-4.766a18.416,18.416,0,0,0,.664-4.7,9.4,9.4,0,0,0-.771-3.525l.156-.557a11.68,11.68,0,0,1,2.627,7A9.731,9.731,0,0,1,74-2.549a11.8,11.8,0,0,1-3.066,4.082A13.347,13.347,0,0,1,67.193,3.809ZM76.94-8.828H87.624v1.27H76.94Zm0,3.193H87.624v1.27H76.94Zm17.745-7.881a2.477,2.477,0,0,1,1.621.552,3.073,3.073,0,0,1,.972,1.47,5.86,5.86,0,0,1,.3,1.816,13.413,13.413,0,0,1-.405,3.2,13.523,13.523,0,0,1-1.128,3.037,10.408,10.408,0,0,1-1.6,2.324,4.85,4.85,0,0,1-1.353.986,3.581,3.581,0,0,1-1.626.4,2.292,2.292,0,0,1-1.4-.469,3.085,3.085,0,0,1-.991-1.367,5.107,5.107,0,0,1-.361-1.924,13.24,13.24,0,0,1,.811-4.5,12.669,12.669,0,0,1,1.675-3.237,6.452,6.452,0,0,1,1.826-1.826A3.367,3.367,0,0,1,94.686-13.516Zm.068.664a1.082,1.082,0,0,0-.508.112,1.492,1.492,0,0,0-.464.454,6.227,6.227,0,0,0-.62,1.455Q92.469-8.8,91.629-5.869q-.645,2.256-.771,2.891a8.085,8.085,0,0,0-.186,1.592,1.05,1.05,0,0,0,.259.752.846.846,0,0,0,.64.273.978.978,0,0,0,.654-.215,3.236,3.236,0,0,0,.859-1.484q.8-2.451,2.021-6.748a11.7,11.7,0,0,0,.537-2.979,1.115,1.115,0,0,0-.259-.781A.822.822,0,0,0,94.754-12.852Z" transform="translate(608.281 3328.928)" fill="#12263f"/>
  </g>
</svg>
