<svg xmlns="http://www.w3.org/2000/svg" width="395.141" height="218.708" viewBox="0 0 395.141 218.708">
  <g id="Grupo_1212884" data-name="Grupo 1212884" transform="translate(-1018.281 -1942.668)">
    <path id="_1150-6115" data-name="1150-6115" d="M16,0H379.141a16,16,0,0,1,16,16V218.708H0V16A16,16,0,0,1,16,0Z" transform="translate(1018.281 1942.668)" fill="#e8fefe"/>
    <path id="Trazado_1383761" data-name="Trazado 1383761" d="M-28.351-5.78l-1.021,3.507a4.477,4.477,0,0,0-.213,1.048.769.769,0,0,0,.278.645,2.409,2.409,0,0,0,1.262.237L-28.166,0h-6.142l.1-.343A3.081,3.081,0,0,0-33.1-.5a1.24,1.24,0,0,0,.538-.469,5.768,5.768,0,0,0,.473-1.308l2.329-7.988A4.6,4.6,0,0,0-29.52-11.4a.71.71,0,0,0-.306-.58,1.98,1.98,0,0,0-1.113-.255l.1-.343h4.982a6.212,6.212,0,0,1,2.95.52,2.661,2.661,0,0,1,1.392,2.449A3.593,3.593,0,0,1-22.9-6.833a5.507,5.507,0,0,1-3.734,1.2A12.124,12.124,0,0,1-28.351-5.78Zm.186-.714a8.478,8.478,0,0,0,1,.074,2.267,2.267,0,0,0,2.013-1.169,4.527,4.527,0,0,0,.733-2.44,1.823,1.823,0,0,0-.473-1.341,1.758,1.758,0,0,0-1.308-.478q-.176,0-.436.019Zm10.912-1.893H-7.1v1.206H-17.253Zm0,3.034H-7.1v1.206H-17.253ZM.645.288l.408-10.521q.028-.918.028-.965a1.013,1.013,0,0,0-.246-.751,1.446,1.446,0,0,0-.9-.288l.111-.343H5.33l-.1.343a1.272,1.272,0,0,0-1.025.408,3.005,3.005,0,0,0-.4,1.688L3.5-3.581l4.908-5.7a10.427,10.427,0,0,0,1.178-1.531,1.659,1.659,0,0,0,.223-.742.54.54,0,0,0-.2-.413,1.62,1.62,0,0,0-.779-.274l.13-.343h3.47v.343a1.959,1.959,0,0,0-.724.325,9.83,9.83,0,0,0-1.262,1.3L1.053.288Zm17.787-9.2a2.543,2.543,0,0,1,1.874.775,2.555,2.555,0,0,1,.77,1.869A2.563,2.563,0,0,1,20.3-4.4a2.54,2.54,0,0,1-1.869.779,2.558,2.558,0,0,1-1.879-.775,2.558,2.558,0,0,1-.775-1.879,2.555,2.555,0,0,1,.77-1.869A2.554,2.554,0,0,1,18.432-8.916Zm10.541-3.321.1-.343h6.142l-.121.343a1.931,1.931,0,0,0-1.276.371,3.224,3.224,0,0,0-.775,1.549l-2.3,8.053a5.178,5.178,0,0,0-.25,1.141.6.6,0,0,0,.26.52,2.4,2.4,0,0,0,1.262.26L31.923,0H25.68l.1-.343A2.153,2.153,0,0,0,27.155-.7a3.275,3.275,0,0,0,.789-1.563l2.319-8.053a4.477,4.477,0,0,0,.213-1.123.635.635,0,0,0-.26-.538A2.76,2.76,0,0,0,28.973-12.237Z" transform="translate(1215.281 1990.152)" fill="#12263f"/>
    <g id="Grupo_1212791" data-name="Grupo 1212791" transform="translate(-8.719)">
      <text id="P_V_I" data-name="P
V
I" transform="translate(1081 2031.508)" fill="#12263f" font-size="19" font-family="TimesNewRomanPS-BoldItalicMT, Times New Roman" font-weight="700" font-style="italic" letter-spacing="0.003em"><tspan x="-5.803" y="0">P</tspan><tspan x="-6.336" y="48">V</tspan><tspan x="-3.697" y="96">I</tspan></text>
      <text id="_Potencia_en_vatios_Voltaje_en_voltios_Corriente_eléctrica_en_amperios" data-name="= Potencia en vatios
= Voltaje en voltios
= Corriente eléctrica en amperios" transform="translate(1095 2031.508)" fill="#12263f" font-size="19" font-family="SegoeUI, Segoe UI" letter-spacing="0.003em"><tspan x="0" y="0">= Potencia en vatios</tspan><tspan x="0" y="48">= Voltaje en voltios</tspan><tspan x="0" y="96">= Corriente eléctrica en amperios</tspan></text>
    </g>
  </g>
</svg>
