<svg xmlns="http://www.w3.org/2000/svg" xmlns:xlink="http://www.w3.org/1999/xlink" width="70.138" height="78.93" viewBox="0 0 70.138 78.93">
  <defs>
    <clipPath id="clip-path">
      <rect id="Rectángulo_589487" data-name="Rectángulo 589487" width="70.138" height="78.93" fill="none"/>
    </clipPath>
  </defs>
  <g id="Grupo_1210295" data-name="Grupo 1210295" transform="translate(0 0)">
    <path id="Trazado_1286500" data-name="Trazado 1286500" d="M.012,42.844,41.736,67.232l-.005-1.248L0,41.6Z" transform="translate(0 11.699)" fill="#d62222"/>
    <path id="Trazado_1286501" data-name="Trazado 1286501" d="M32.571,64.264l.006,1.248,28.4-16.547-.008-1.248Z" transform="translate(9.16 13.419)" fill="#d62222"/>
    <path id="Trazado_1286502" data-name="Trazado 1286502" d="M0,45.232,41.731,69.616l28.4-16.547L28.4,28.682Z" transform="translate(0 8.066)" fill="#6c1a0f"/>
    <path id="Trazado_1286503" data-name="Trazado 1286503" d="M52.236,44.188v6.6l2.83-2.06V42.823Z" transform="translate(14.69 12.043)" fill="#6c1a0f"/>
    <path id="Trazado_1286504" data-name="Trazado 1286504" d="M1.977,38.1l.012,4.915,39.2,22.906L41.178,61Z" transform="translate(0.556 10.714)" fill="#ebebeb"/>
    <path id="Trazado_1286505" data-name="Trazado 1286505" d="M58.736,44.093v4.924L32.585,64.235l-.012-4.916Z" transform="translate(9.16 12.4)" fill="#9cb5cc"/>
    <path id="Trazado_1286506" data-name="Trazado 1286506" d="M28.34,26.11,65.914,48.064v1.9L41.178,64.375l-39.2-22.9Z" transform="translate(0.556 7.343)" fill="#dcdcdc"/>
    <path id="Trazado_1286507" data-name="Trazado 1286507" d="M.012,37.225,41.736,61.611l-.005-1.248L0,35.976Z" transform="translate(0 10.117)" fill="#d62222"/>
    <path id="Trazado_1286508" data-name="Trazado 1286508" d="M32.571,58.641l.006,1.249,28.4-16.547L60.971,42.1Z" transform="translate(9.16 11.838)" fill="#d62222"/>
    <path id="Trazado_1286509" data-name="Trazado 1286509" d="M0,39.608,41.731,63.994l28.4-16.546L28.4,23.061Z" transform="translate(0 6.485)" fill="#ff5542"/>
    <path id="Trazado_1286510" data-name="Trazado 1286510" d="M53.721,43.3v7.329l1.309-.68V42.487Z" transform="translate(15.108 11.948)" fill="#d62222"/>
    <path id="Trazado_1286511" data-name="Trazado 1286511" d="M6.046,33.739l.005,1.089L42.4,56.068l-.009-1.088Z" transform="translate(1.7 9.488)" fill="#e68027"/>
    <path id="Trazado_1286512" data-name="Trazado 1286512" d="M34.41,53.482l.009,1.088L59.152,40.158l-.008-1.089Z" transform="translate(9.677 10.987)" fill="#e68027"/>
    <path id="Trazado_1286513" data-name="Trazado 1286513" d="M6.046,36.9,42.387,58.144,67.121,43.731,30.78,22.492Z" transform="translate(1.7 6.325)" fill="#8a4c01"/>
    <path id="Trazado_1286514" data-name="Trazado 1286514" d="M51.54,36,54,34.807v5.145L51.54,41.745Z" transform="translate(14.494 9.789)" fill="#8a4c01"/>
    <path id="Trazado_1286515" data-name="Trazado 1286515" d="M7.763,30.694l.012,4.281L41.915,54.922l-.009-4.281Z" transform="translate(2.183 8.632)" fill="#ebebeb"/>
    <path id="Trazado_1286516" data-name="Trazado 1286516" d="M57.2,35.914V40.2L34.421,53.454l-.009-4.279Z" transform="translate(9.678 10.1)" fill="#9cb5cc"/>
    <path id="Trazado_1286517" data-name="Trazado 1286517" d="M30.726,20.252,63.452,39.373v1.653L41.906,53.579,7.763,33.631Z" transform="translate(2.183 5.695)" fill="#dcdcdc"/>
    <path id="Trazado_1286518" data-name="Trazado 1286518" d="M6.046,28.842l.005,1.09L42.4,51.174l-.009-1.089Z" transform="translate(1.7 8.111)" fill="#e68027"/>
    <path id="Trazado_1286519" data-name="Trazado 1286519" d="M34.41,48.585l.009,1.089L59.152,35.261l-.008-1.088Z" transform="translate(9.677 9.61)" fill="#e68027"/>
    <path id="Trazado_1286520" data-name="Trazado 1286520" d="M6.046,32,42.387,53.247,67.121,38.835,30.78,17.595Z" transform="translate(1.7 4.948)" fill="#ffb923"/>
    <path id="Trazado_1286521" data-name="Trazado 1286521" d="M52.833,35.22V41.6l1.138-.594V34.517Z" transform="translate(14.858 9.707)" fill="#e68027"/>
    <path id="Trazado_1286522" data-name="Trazado 1286522" d="M52.958,26.323l-.005.907L22.614,44.965l.005-.908Z" transform="translate(6.36 7.403)" fill="#b9cc12"/>
    <path id="Trazado_1286523" data-name="Trazado 1286523" d="M27.152,42.805l-.005.908L6.5,31.681l.005-.908Z" transform="translate(1.827 8.654)" fill="#82940d"/>
    <path id="Trazado_1286524" data-name="Trazado 1286524" d="M57.49,28.964,27.151,46.7,6.5,34.665,36.842,16.933Z" transform="translate(1.828 4.762)" fill="#445e1b"/>
    <path id="Trazado_1286525" data-name="Trazado 1286525" d="M8.769,28.209l-2.056-1v4.3l2.056,1.5Z" transform="translate(1.888 7.653)" fill="#445e1b"/>
    <path id="Trazado_1286526" data-name="Trazado 1286526" d="M51.122,23.78l-.008,3.573-28.5,16.657.006-3.576Z" transform="translate(6.359 6.687)" fill="#9cb5cc"/>
    <path id="Trazado_1286527" data-name="Trazado 1286527" d="M7.768,28.14v3.578L26.786,42.785l.006-3.576Z" transform="translate(2.184 7.913)" fill="#ebebeb"/>
    <path id="Trazado_1286528" data-name="Trazado 1286528" d="M35.9,15.063,8.576,31.025v1.381l17.988,10.48,28.5-16.655Z" transform="translate(2.412 4.236)" fill="#dcdcdc"/>
    <path id="Trazado_1286529" data-name="Trazado 1286529" d="M52.958,22.235l-.005.908L22.614,40.876l.005-.907Z" transform="translate(6.36 6.253)" fill="#b9cc12"/>
    <path id="Trazado_1286530" data-name="Trazado 1286530" d="M27.152,38.717l-.005.907L6.5,27.592l.005-.907Z" transform="translate(1.827 7.504)" fill="#82940d"/>
    <path id="Trazado_1286531" data-name="Trazado 1286531" d="M57.49,24.876,27.151,42.61,6.5,30.578,36.842,12.845Z" transform="translate(1.828 3.612)" fill="#b9cc12"/>
    <path id="Trazado_1286532" data-name="Trazado 1286532" d="M6.5,32.392l.949.495V27.56L6.5,26.972Z" transform="translate(1.827 7.585)" fill="#82940d"/>
    <g id="Grupo_1207537" data-name="Grupo 1207537" transform="translate(0 0)">
      <g id="Grupo_1207536" data-name="Grupo 1207536" clip-path="url(#clip-path)">
        <path id="Trazado_1286533" data-name="Trazado 1286533" d="M17.869,10.259V26.953c0,4,6.287,7.245,14.045,7.245s14.049-3.244,14.049-7.245V10.259Z" transform="translate(5.025 2.884)" fill="#181d1f"/>
        <path id="Trazado_1286534" data-name="Trazado 1286534" d="M53.768,11.355l-.009,2.465L28.953,28.366l.008-2.464Z" transform="translate(8.142 3.193)" fill="#282e30"/>
        <path id="Trazado_1286535" data-name="Trazado 1286535" d="M34.441,25.9l-.008,2.465L9.464,13.82l.006-2.465Z" transform="translate(2.662 3.193)" fill="#22292b"/>
        <path id="Trazado_1286536" data-name="Trazado 1286536" d="M19.034,16.938l-1.2-.706-.006,7.694,1.209.72Z" transform="translate(5.013 4.564)" fill="#ff5542"/>
        <path id="Trazado_1286537" data-name="Trazado 1286537" d="M59.247,14.549,34.44,29.1,9.469,14.549,34.276,0Z" transform="translate(2.663 0)" fill="#31393d"/>
        <path id="Trazado_1286538" data-name="Trazado 1286538" d="M19.049,18.628l13.026-7.646-1.2-.723L17.824,17.912Z" transform="translate(5.013 2.884)" fill="#ff5542"/>
        <path id="Trazado_1286539" data-name="Trazado 1286539" d="M19.938,23.372a1.346,1.346,0,1,0-1.348,1.361,1.352,1.352,0,0,0,1.348-1.361" transform="translate(4.85 6.19)" fill="#ff5542"/>
      </g>
    </g>
  </g>
</svg>
