<svg id="Grupo_1211828" data-name="Grupo 1211828" xmlns="http://www.w3.org/2000/svg" xmlns:xlink="http://www.w3.org/1999/xlink" width="91.103" height="113.126" viewBox="0 0 91.103 113.126">
  <defs>
    <clipPath id="clip-path">
      <rect id="Rectángulo_739520" data-name="Rectángulo 739520" width="91.103" height="113.126" fill="none"/>
    </clipPath>
    <clipPath id="clip-path-2">
      <rect id="Rectángulo_739519" data-name="Rectángulo 739519" width="91.103" height="113.127" fill="none"/>
    </clipPath>
    <clipPath id="clip-path-3">
      <rect id="Rectángulo_739513" data-name="Rectángulo 739513" width="17.188" height="25.087" fill="none"/>
    </clipPath>
  </defs>
  <g id="Grupo_1211827" data-name="Grupo 1211827" clip-path="url(#clip-path)">
    <g id="Grupo_1211826" data-name="Grupo 1211826" transform="translate(0 -0.001)">
      <g id="Grupo_1211825" data-name="Grupo 1211825" clip-path="url(#clip-path-2)">
        <path id="Trazado_1375787" data-name="Trazado 1375787" d="M47.808,19.532h-.025a1.245,1.245,0,0,1-1.246-1.244V2.782a1.247,1.247,0,0,1,1.246-1.246h.025a1.245,1.245,0,0,1,1.244,1.246V18.288a1.244,1.244,0,0,1-1.244,1.244" transform="translate(31.268 1.033)" fill="#dedede"/>
        <path id="Trazado_1375788" data-name="Trazado 1375788" d="M53.032,18.122h-.027a1.245,1.245,0,0,1-1.246-1.244V1.37A1.245,1.245,0,0,1,53.006.126h.027A1.243,1.243,0,0,1,54.275,1.37V16.878a1.243,1.243,0,0,1-1.242,1.244" transform="translate(34.777 0.085)" fill="#dedede"/>
        <path id="Trazado_1375789" data-name="Trazado 1375789" d="M55.1,95.537H5.236A5.4,5.4,0,0,1,0,89.979V5.557A5.4,5.4,0,0,1,5.236,0H55.1A5.4,5.4,0,0,1,60.34,5.557V89.979A5.4,5.4,0,0,1,55.1,95.537" transform="translate(0 0.001)" fill="#717e90"/>
        <path id="Trazado_1375790" data-name="Trazado 1375790" d="M50.318,33.068H5.767a2.6,2.6,0,0,1-2.6-2.6V6.557a2.6,2.6,0,0,1,2.6-2.6H50.318a2.6,2.6,0,0,1,2.6,2.6V30.468a2.6,2.6,0,0,1-2.6,2.6" transform="translate(2.127 2.659)" fill="#3c3c3c"/>
        <rect id="Rectángulo_739511" data-name="Rectángulo 739511" width="39.757" height="19.583" transform="translate(10.292 11.381)" fill="#acacac"/>
        <rect id="Rectángulo_739512" data-name="Rectángulo 739512" width="36.683" height="16.276" transform="translate(13.367 14.688)" fill="#e5e5e5"/>
        <path id="Trazado_1375791" data-name="Trazado 1375791" d="M40.871,45.522A16.283,16.283,0,1,1,24.589,29.239,16.282,16.282,0,0,1,40.871,45.522" transform="translate(5.581 19.646)" fill="#3c3c3c"/>
        <path id="Trazado_1375792" data-name="Trazado 1375792" d="M36.861,44.372A13.422,13.422,0,1,1,23.439,30.95,13.421,13.421,0,0,1,36.861,44.372" transform="translate(6.73 20.796)" fill="#535353"/>
        <g id="Grupo_1211824" data-name="Grupo 1211824" transform="translate(26.399 53.502)" opacity="0.47" style="mix-blend-mode: multiply;isolation: isolate">
          <g id="Grupo_1211823" data-name="Grupo 1211823">
            <g id="Grupo_1211822" data-name="Grupo 1211822" clip-path="url(#clip-path-3)">
              <path id="Trazado_1375793" data-name="Trazado 1375793" d="M20.961,32,15.79,54.663l2.346,2.349a13.814,13.814,0,0,0,1.424.075,13.419,13.419,0,0,0,13.417-13.2Z" transform="translate(-15.79 -32)" fill="#383838"/>
            </g>
          </g>
        </g>
        <path id="Trazado_1375794" data-name="Trazado 1375794" d="M15.531,53.241l1.552-19.332a2.216,2.216,0,0,1,2.209-2.038h.9A2.216,2.216,0,0,1,22.4,33.909l1.552,19.332a2.217,2.217,0,0,1-2.209,2.394h-4a2.217,2.217,0,0,1-2.209-2.394" transform="translate(10.43 21.414)" fill="#7c7c7c"/>
        <path id="Trazado_1375795" data-name="Trazado 1375795" d="M23.161,38.78H16.318L15.532,48.6a2.213,2.213,0,0,0,2.209,2.392h4a2.216,2.216,0,0,0,2.21-2.392Z" transform="translate(10.431 26.056)" fill="#666"/>
        <rect id="Rectángulo_739514" data-name="Rectángulo 739514" width="9.996" height="6.131" transform="translate(5.293 39.433)" fill="#ffcb00"/>
        <rect id="Rectángulo_739515" data-name="Rectángulo 739515" width="9.995" height="6.131" transform="translate(18.546 39.433)" fill="#b0b0b0"/>
        <rect id="Rectángulo_739516" data-name="Rectángulo 739516" width="9.996" height="6.131" transform="translate(31.798 39.433)" fill="#b0b0b0"/>
        <rect id="Rectángulo_739517" data-name="Rectángulo 739517" width="9.996" height="6.131" transform="translate(45.051 39.433)" fill="#96c6d8"/>
        <path id="Trazado_1375796" data-name="Trazado 1375796" d="M13.226,12.177l-2.744-.015a.372.372,0,0,1-.346-.257l-.288-.9a.373.373,0,0,1,.349-.488l3.33.018a.372.372,0,0,1,.343.493l-.3.893a.366.366,0,0,1-.349.252" transform="translate(6.605 7.069)" fill="#3d4144"/>
        <path id="Trazado_1375797" data-name="Trazado 1375797" d="M10.814,12.051l-.023,3.016a.4.4,0,0,1-.251.38l-.881.316a.373.373,0,0,1-.478-.386l.027-3.66a.372.372,0,0,1,.485-.376l.876.328a.4.4,0,0,1,.246.383" transform="translate(6.169 7.605)" fill="#3d4144"/>
        <path id="Trazado_1375798" data-name="Trazado 1375798" d="M11.9,12.056l-.012,3.016a.4.4,0,0,0,.249.383l.876.324A.372.372,0,0,0,13.5,15.4l.015-3.658a.374.374,0,0,0-.482-.385l-.878.319a.4.4,0,0,0-.251.381" transform="translate(7.988 7.616)" fill="#3d4144"/>
        <path id="Trazado_1375799" data-name="Trazado 1375799" d="M10.791,15.184l-.023,3a.4.4,0,0,1-.252.378l-.879.311a.372.372,0,0,1-.48-.383l.028-3.633a.372.372,0,0,1,.485-.376l.876.326a.4.4,0,0,1,.246.381" transform="translate(6.152 9.713)" fill="#3d4144"/>
        <path id="Trazado_1375800" data-name="Trazado 1375800" d="M11.875,15.189l-.01,3a.4.4,0,0,0,.249.381l.876.321a.372.372,0,0,0,.482-.378l.013-3.635a.372.372,0,0,0-.48-.381l-.879.316a.406.406,0,0,0-.251.38" transform="translate(7.972 9.725)" fill="#3d4144"/>
        <path id="Trazado_1375801" data-name="Trazado 1375801" d="M10.458,17.057l2.744.015a.371.371,0,0,1,.346.257l.288.894a.374.374,0,0,1-.353.49l-3.325-.02a.371.371,0,0,1-.344-.492l.3-.893a.366.366,0,0,1,.349-.252" transform="translate(6.58 11.461)" fill="#3d4144"/>
        <path id="Trazado_1375802" data-name="Trazado 1375802" d="M18.942,12.177,16.2,12.162a.372.372,0,0,1-.346-.257l-.288-.9a.373.373,0,0,1,.349-.488l3.33.018a.373.373,0,0,1,.344.493l-.3.893a.366.366,0,0,1-.349.252" transform="translate(10.446 7.069)" fill="#3d4144"/>
        <path id="Trazado_1375803" data-name="Trazado 1375803" d="M16.53,12.051l-.023,3.016a.4.4,0,0,1-.251.38l-.879.316a.374.374,0,0,1-.48-.386l.027-3.66a.372.372,0,0,1,.485-.376l.876.328a.4.4,0,0,1,.246.383" transform="translate(10.009 7.605)" fill="#3d4144"/>
        <path id="Trazado_1375804" data-name="Trazado 1375804" d="M17.617,12.056,17.6,15.072a.4.4,0,0,0,.251.383l.874.324a.372.372,0,0,0,.482-.381l.015-3.658a.374.374,0,0,0-.482-.385l-.878.319a.4.4,0,0,0-.251.381" transform="translate(11.829 7.616)" fill="#3d4144"/>
        <path id="Trazado_1375805" data-name="Trazado 1375805" d="M16.507,15.184l-.023,3a.4.4,0,0,1-.252.378l-.878.311a.373.373,0,0,1-.482-.383l.028-3.633a.373.373,0,0,1,.485-.376l.876.326a.4.4,0,0,1,.246.381" transform="translate(9.992 9.713)" fill="#3d4144"/>
        <path id="Trazado_1375806" data-name="Trazado 1375806" d="M17.593,15.189l-.012,3a.4.4,0,0,0,.249.381l.876.321a.372.372,0,0,0,.482-.378l.013-3.635a.372.372,0,0,0-.48-.381l-.878.316a.4.4,0,0,0-.251.38" transform="translate(11.812 9.725)" fill="#3d4144"/>
        <path id="Trazado_1375807" data-name="Trazado 1375807" d="M16.174,17.057l2.744.015a.371.371,0,0,1,.346.257l.288.894a.374.374,0,0,1-.349.49l-3.329-.02a.371.371,0,0,1-.344-.492l.3-.893a.366.366,0,0,1,.349-.252" transform="translate(10.42 11.461)" fill="#3d4144"/>
        <path id="Trazado_1375808" data-name="Trazado 1375808" d="M23.381,12.177l-2.744-.015a.372.372,0,0,1-.346-.257l-.288-.9a.373.373,0,0,1,.349-.488l3.33.018a.373.373,0,0,1,.343.493l-.3.893a.366.366,0,0,1-.349.252" transform="translate(13.429 7.069)" fill="#3d4144"/>
        <path id="Trazado_1375809" data-name="Trazado 1375809" d="M20.969,12.051l-.023,3.016a.4.4,0,0,1-.252.38l-.879.316a.373.373,0,0,1-.478-.386l.027-3.66a.372.372,0,0,1,.485-.376l.876.328a.4.4,0,0,1,.246.383" transform="translate(12.992 7.605)" fill="#3d4144"/>
        <path id="Trazado_1375810" data-name="Trazado 1375810" d="M22.055,12.056l-.01,3.016a.4.4,0,0,0,.249.383l.876.324a.372.372,0,0,0,.482-.381l.015-3.658a.374.374,0,0,0-.482-.385l-.878.319a.405.405,0,0,0-.252.381" transform="translate(14.812 7.616)" fill="#3d4144"/>
        <path id="Trazado_1375811" data-name="Trazado 1375811" d="M20.946,15.184l-.023,3a.4.4,0,0,1-.252.378l-.879.311a.372.372,0,0,1-.48-.383l.028-3.633a.373.373,0,0,1,.485-.376l.876.326a.4.4,0,0,1,.246.381" transform="translate(12.975 9.713)" fill="#3d4144"/>
        <path id="Trazado_1375812" data-name="Trazado 1375812" d="M22.031,15.189l-.012,3a.4.4,0,0,0,.251.381l.876.321a.372.372,0,0,0,.482-.378l.013-3.635a.372.372,0,0,0-.48-.381l-.879.316a.4.4,0,0,0-.251.38" transform="translate(14.794 9.725)" fill="#3d4144"/>
        <path id="Trazado_1375813" data-name="Trazado 1375813" d="M20.614,17.057l2.744.015a.371.371,0,0,1,.346.257l.288.894a.374.374,0,0,1-.351.49l-3.329-.02a.37.37,0,0,1-.343-.492l.3-.893a.364.364,0,0,1,.349-.252" transform="translate(13.403 11.461)" fill="#3d4144"/>
        <path id="Trazado_1375814" data-name="Trazado 1375814" d="M27.821,12.177l-2.744-.015a.371.371,0,0,1-.346-.257l-.288-.9a.373.373,0,0,1,.349-.488l3.329.018a.373.373,0,0,1,.344.493l-.3.893a.368.368,0,0,1-.349.252" transform="translate(16.412 7.069)" fill="#3d4144"/>
        <path id="Trazado_1375815" data-name="Trazado 1375815" d="M25.41,12.051l-.023,3.016a.4.4,0,0,1-.252.38l-.879.316a.375.375,0,0,1-.48-.386l.028-3.66a.372.372,0,0,1,.485-.376l.876.328a.4.4,0,0,1,.246.383" transform="translate(15.974 7.605)" fill="#3d4144"/>
        <path id="Trazado_1375816" data-name="Trazado 1375816" d="M26.494,12.056l-.01,3.016a.4.4,0,0,0,.249.383l.874.324a.374.374,0,0,0,.483-.381L28.1,11.74a.373.373,0,0,0-.48-.385l-.878.319a.405.405,0,0,0-.252.381" transform="translate(17.794 7.616)" fill="#3d4144"/>
        <path id="Trazado_1375817" data-name="Trazado 1375817" d="M25.387,15.184l-.025,3a.4.4,0,0,1-.252.378l-.878.311a.374.374,0,0,1-.482-.383l.028-3.633a.373.373,0,0,1,.485-.376l.874.326a.4.4,0,0,1,.249.381" transform="translate(15.957 9.713)" fill="#3d4144"/>
        <path id="Trazado_1375818" data-name="Trazado 1375818" d="M26.471,15.189l-.012,3a.4.4,0,0,0,.251.381l.874.321a.372.372,0,0,0,.483-.378l.013-3.635a.372.372,0,0,0-.48-.381l-.879.316a.4.4,0,0,0-.251.38" transform="translate(17.777 9.725)" fill="#3d4144"/>
        <path id="Trazado_1375819" data-name="Trazado 1375819" d="M25.054,17.057l2.744.015a.372.372,0,0,1,.346.257l.288.894a.374.374,0,0,1-.351.49l-3.329-.02a.371.371,0,0,1-.344-.492l.3-.893a.364.364,0,0,1,.349-.252" transform="translate(16.385 11.461)" fill="#3d4144"/>
        <rect id="Rectángulo_739518" data-name="Rectángulo 739518" width="1.244" height="1.267" transform="translate(22.052 28.87)" fill="#3d4144"/>
        <path id="Trazado_1375820" data-name="Trazado 1375820" d="M12.319,53.687a4.4,4.4,0,1,1-4.4-4.4,4.4,4.4,0,0,1,4.4,4.4" transform="translate(2.368 33.118)" fill="#b0b0b0"/>
        <path id="Trazado_1375821" data-name="Trazado 1375821" d="M36.874,53.687a4.4,4.4,0,1,1-4.4-4.4,4.4,4.4,0,0,1,4.4,4.4" transform="translate(18.865 33.118)" fill="#535353"/>
        <path id="Trazado_1375822" data-name="Trazado 1375822" d="M10.04,53.034a2.771,2.771,0,1,1-2.772-2.772,2.773,2.773,0,0,1,2.772,2.772" transform="translate(3.022 33.771)" fill="#2b2b2b"/>
        <path id="Trazado_1375823" data-name="Trazado 1375823" d="M34.593,53.034a2.771,2.771,0,1,1-2.77-2.772,2.772,2.772,0,0,1,2.77,2.772" transform="translate(19.519 33.771)" fill="#2b2b2b"/>
        <path id="Trazado_1375824" data-name="Trazado 1375824" d="M29.915,53.687a4.4,4.4,0,1,1-4.4-4.4,4.4,4.4,0,0,1,4.4,4.4" transform="translate(14.191 33.118)" fill="#535353"/>
        <path id="Trazado_1375825" data-name="Trazado 1375825" d="M27.635,53.034a2.77,2.77,0,1,1-2.77-2.772,2.772,2.772,0,0,1,2.77,2.772" transform="translate(14.845 33.771)" fill="#2b2b2b"/>
        <path id="Trazado_1375826" data-name="Trazado 1375826" d="M48.885,92.867H48.74a12.078,12.078,0,0,1-8.6-3.561L29.869,79.034l2.807-2.807L42.948,86.5a8.137,8.137,0,0,0,5.791,2.4h.145a8.2,8.2,0,0,0,8.189-8.191V13.653h3.971V80.707a12.174,12.174,0,0,1-12.16,12.16" transform="translate(20.069 9.174)" fill="#d12f35"/>
        <path id="Trazado_1375827" data-name="Trazado 1375827" d="M56.553,105.135A20.57,20.57,0,0,1,42.823,99.6l-.057-.052L22.923,80.235l2.769-2.846L45.509,96.673c5.887,5.281,11.9,4.469,12.153,4.432l.144-.022.157,0c7.2,0,12.425-5.693,12.425-13.537V11.9h3.969v75.65c0,9.933-6.98,17.434-16.261,17.506a12.681,12.681,0,0,1-1.543.084" transform="translate(15.402 7.993)" fill="#3c3c3c"/>
        <path id="Trazado_1375828" data-name="Trazado 1375828" d="M38.242,57.821l-1.633,1.633a2.148,2.148,0,0,1-2.789.212L28.01,55.4a2.152,2.152,0,0,1-.249-3.254l3.18-3.177a2.146,2.146,0,0,1,3.25.247l4.265,5.81a2.149,2.149,0,0,1-.214,2.79" transform="translate(18.23 32.482)" fill="#d12f35"/>
        <path id="Trazado_1375829" data-name="Trazado 1375829" d="M31.519,58.089l-1.632,1.633a2.151,2.151,0,0,1-2.792.212l-5.808-4.263a2.15,2.15,0,0,1-.249-3.252l3.18-3.178a2.147,2.147,0,0,1,3.25.247l4.265,5.81a2.149,2.149,0,0,1-.214,2.79" transform="translate(13.713 32.662)" fill="#3c3c3c"/>
        <path id="Trazado_1375830" data-name="Trazado 1375830" d="M48.653,20.621h-.067a3.275,3.275,0,0,1-3.275-3.275V7.624h6.614v9.722a3.274,3.274,0,0,1-3.272,3.275" transform="translate(30.444 5.123)" fill="#d12f35"/>
        <path id="Trazado_1375831" data-name="Trazado 1375831" d="M53.876,19.21h-.067a3.275,3.275,0,0,1-3.275-3.275V6.213H57.15v9.722a3.275,3.275,0,0,1-3.274,3.275" transform="translate(33.953 4.175)" fill="#3c3c3c"/>
      </g>
    </g>
  </g>
</svg>
