<svg xmlns="http://www.w3.org/2000/svg" width="169" height="106" viewBox="0 0 169 106">
  <g id="Grupo_1212885" data-name="Grupo 1212885" transform="translate(-695.711 -7337)">
    <path id="Trazado_1383699" data-name="Trazado 1383699" d="M8,0H161a8,8,0,0,1,8,8V98a8,8,0,0,1-8,8H8a8,8,0,0,1-8-8V8A8,8,0,0,1,8,0Z" transform="translate(695.711 7337)" fill="#ccdff8"/>
    <path id="Trazado_1383700" data-name="Trazado 1383700" d="M-6.937-15.012l-1.77,6.164h.539A6.51,6.51,0,0,0-5.057-9.41,4.346,4.346,0,0,0-3.4-11.4h.434L-4.746-5.215h-.41a6.3,6.3,0,0,0,.105-1.008,1.489,1.489,0,0,0-.381-1.055,2.119,2.119,0,0,0-.99-.586A7.255,7.255,0,0,0-8.074-7.98h-.914l-1.523,5.332a4.285,4.285,0,0,0-.2,1.043.5.5,0,0,0,.258.434,2.941,2.941,0,0,0,1.418.234,8.607,8.607,0,0,0,3.773-.85A9.31,9.31,0,0,0-2.086-4.359h.48L-3.258,0H-16.852l.141-.434a2.742,2.742,0,0,0,1.746-.451,4.151,4.151,0,0,0,1-1.986L-10.98-13.1a5.216,5.216,0,0,0,.246-1.348.81.81,0,0,0-.316-.686,3.129,3.129,0,0,0-1.441-.322l.129-.434H.3l-1.02,3.973h-.422A3.415,3.415,0,0,0-1.5-13.57a2.878,2.878,0,0,0-1.307-1.1,7.308,7.308,0,0,0-2.643-.346Z" transform="translate(734.711 7398)" fill="#12263f"/>
    <path id="Trazado_1383701" data-name="Trazado 1383701" d="M-12.738-10.594H.082V-9.07h-12.82Zm0,3.832H.082v1.523h-12.82Z" transform="translate(757.711 7398)" fill="#12263f"/>
    <path id="Trazado_1383702" data-name="Trazado 1383702" d="M-4.184-16.254-7.418-5.168l2.684-2.484.891-.8a3.346,3.346,0,0,0,.539-.68.7.7,0,0,0,.094-.328.487.487,0,0,0-.234-.41,2.709,2.709,0,0,0-1.137-.223l.129-.445H.316L.2-10.09a6.666,6.666,0,0,0-1.371.457,6.276,6.276,0,0,0-1.008.656q-.891.691-1.277,1.066l-.516.48L-3.258-4.2a9.918,9.918,0,0,0,.609,2.168.373.373,0,0,0,.3.176q.41,0,.973-.961.082-.129.223-.363l.434.27A7.7,7.7,0,0,1-2.7-.41,2.267,2.267,0,0,1-4.031.164a1.3,1.3,0,0,1-1-.428,5.709,5.709,0,0,1-.8-2.244l-.586-2.66L-7.7-4.02-8.871,0h-2.988l3.891-13.23a5.121,5.121,0,0,0,.246-1.137.758.758,0,0,0-.117-.439.693.693,0,0,0-.322-.252,2.6,2.6,0,0,0-.814-.082l.105-.434,3.984-.68Z" transform="translate(778.711 7398)" fill="#12263f"/>
    <path id="Trazado_1383703" data-name="Trazado 1383703" d="M-.4-10.535-3.855,1.313q-.352,1.219-.422,1.535a4.46,4.46,0,0,0-.105.867.733.733,0,0,0,.293.6A2.22,2.22,0,0,0-2.871,4.7L-3,5.133H-9.2l.117-.434a2.68,2.68,0,0,0,1.025-.322,1.813,1.813,0,0,0,.592-.727,9.991,9.991,0,0,0,.586-1.729L-5.32-3.387A10.378,10.378,0,0,1-7.758-.3,2.918,2.918,0,0,1-9.48.328,1.68,1.68,0,0,1-10.852-.3a3.5,3.5,0,0,1-.691-2.285,8.175,8.175,0,0,1,.7-3.17,10.339,10.339,0,0,1,1.84-2.93,8.26,8.26,0,0,1,2.3-1.869,2.827,2.827,0,0,1,1.324-.3,1.655,1.655,0,0,1,1.178.422,2.458,2.458,0,0,1,.627,1.383l.445-1.477Zm-4.687.422a1.3,1.3,0,0,0-.855.387A7.434,7.434,0,0,0-7.512-7a11.916,11.916,0,0,0-.961,3.949,1.54,1.54,0,0,0,.258.949.579.579,0,0,0,.48.246,1.227,1.227,0,0,0,.82-.375,8.984,8.984,0,0,0,1.928-2.93,8.5,8.5,0,0,0,.943-3.328A1.947,1.947,0,0,0-4.365-9.7.916.916,0,0,0-5.086-10.113Z" transform="translate(825.711 7378)" fill="#12263f"/>
    <path id="Trazado_1383704" data-name="Trazado 1383704" d="M-10.716-10.863l-1.77,6.586q2.18-4.816,3.281-5.93a1.9,1.9,0,0,1,1.359-.656,1,1,0,0,1,.8.357,1.518,1.518,0,0,1,.3,1.014,3.209,3.209,0,0,1-.551,1.91.981.981,0,0,1-.785.492.755.755,0,0,1-.7-.434,2.219,2.219,0,0,0-.328-.51.311.311,0,0,0-.2-.076.515.515,0,0,0-.246.07,2.615,2.615,0,0,0-.674.686,11.138,11.138,0,0,0-1.025,1.822q-.609,1.277-.949,2.162A33.3,33.3,0,0,0-13.153,0h-2.836l1.934-7.77a6.259,6.259,0,0,0,.211-1.148.919.919,0,0,0-.111-.492.655.655,0,0,0-.3-.258,2.479,2.479,0,0,0-.8-.082l.105-.34,3.539-.773ZM-2.023-8H-6.945v-.253Q-5.024-10.03-3.7-11.52a8.368,8.368,0,0,0,1.391-1.89,3.276,3.276,0,0,0,.284-1.316,1.362,1.362,0,0,0-.393-1.012,1.337,1.337,0,0,0-.981-.39,1.937,1.937,0,0,0-1.627,1.046l-.253-.116a3.756,3.756,0,0,1,.923-1.538,2.635,2.635,0,0,1,1.846-.725,2.284,2.284,0,0,1,1.63.608,1.881,1.881,0,0,1,.646,1.408,3.313,3.313,0,0,1-.314,1.391,7.071,7.071,0,0,1-1.3,1.726Q-2.6-11.534-4.9-9.572h1.784a2.652,2.652,0,0,0,1.206-.195,1.814,1.814,0,0,0,.646-.783h.321Z" transform="translate(827.711 7418)" fill="#12263f"/>
    <path id="Trazado_1383705" data-name="Trazado 1383705" d="M0,0H46" transform="translate(796.711 7390)" fill="none" stroke="#12263f" stroke-linecap="round" stroke-width="2"/>
    <path id="Trazado_1383706" data-name="Trazado 1383706" d="M0,0H0" transform="translate(787.711 7390)" fill="none" stroke="#12263f" stroke-linecap="round" stroke-width="3"/>
    <path id="Trazado_1383707" data-name="Trazado 1383707" d="M0,0V21.376" transform="translate(807.211 7364)" fill="none" stroke="#12263f" stroke-width="2"/>
    <path id="Trazado_1383708" data-name="Trazado 1383708" d="M0,0V21.376" transform="translate(832.211 7364)" fill="none" stroke="#12263f" stroke-width="2"/>
  </g>
</svg>
