<svg xmlns="http://www.w3.org/2000/svg" xmlns:xlink="http://www.w3.org/1999/xlink" width="78.553" height="78.409" viewBox="0 0 78.553 78.409">
  <defs>
    <clipPath id="clip-path">
      <rect id="Rectángulo_739181" data-name="Rectángulo 739181" width="78.553" height="78.409" fill="#034cad"/>
    </clipPath>
  </defs>
  <g id="Grupo_1211266" data-name="Grupo 1211266" transform="translate(0 0)">
    <g id="Grupo_1211265" data-name="Grupo 1211265" transform="translate(0 0)" clip-path="url(#clip-path)">
      <path id="Trazado_1370774" data-name="Trazado 1370774" d="M18.343,38.6a6.042,6.042,0,1,1,6.042-6.042A5.986,5.986,0,0,1,18.343,38.6m0-8.632A2.733,2.733,0,0,0,15.609,32.7a2.645,2.645,0,0,0,2.734,2.733A2.732,2.732,0,0,0,21.077,32.7a2.646,2.646,0,0,0-2.734-2.734" transform="translate(5.252 11.321)" fill="#034cad"/>
      <path id="Trazado_1370775" data-name="Trazado 1370775" d="M21.8,54.747a21.442,21.442,0,0,1-3.021-.288A18.424,18.424,0,0,1,7.846,47.984,19.344,19.344,0,0,1,3.529,35.611V18.06a1.75,1.75,0,0,1,1.727-1.727H38.632a1.749,1.749,0,0,1,1.727,1.727V35.611c0,8.777-5.611,16.4-13.667,18.56a19.719,19.719,0,0,1-4.892.575M6.838,19.786V35.611c0,7.77,5.323,14.388,12.516,15.682a12.9,12.9,0,0,0,6.187-.288c6.618-1.727,11.222-8.057,11.222-15.394V19.786Z" transform="translate(1.507 6.973)" fill="#034cad"/>
      <path id="Trazado_1370776" data-name="Trazado 1370776" d="M15.3,20.861H8.683a1.749,1.749,0,0,1-1.727-1.727V5.036A5.1,5.1,0,0,1,11.992,0a5.1,5.1,0,0,1,5.036,5.036v14.1A1.663,1.663,0,0,1,15.3,20.861m-5.036-3.309h3.309V5.036a1.726,1.726,0,1,0-3.452,0c.143.144.143,12.516.143,12.516" transform="translate(2.97 0)" fill="#034cad"/>
      <path id="Trazado_1370777" data-name="Trazado 1370777" d="M27,20.861H20.379a1.749,1.749,0,0,1-1.727-1.727V5.036a5.036,5.036,0,1,1,10.071,0v14.1A1.749,1.749,0,0,1,27,20.861m-5.036-3.309H25.27V5.036a1.727,1.727,0,0,0-3.453,0V17.552Z" transform="translate(7.964 0)" fill="#034cad"/>
      <path id="Trazado_1370778" data-name="Trazado 1370778" d="M42.83,21.508H2.836a1.749,1.749,0,0,1-1.727-1.727V14.027A1.749,1.749,0,0,1,2.836,12.3H42.83a1.749,1.749,0,0,1,1.727,1.727v5.755a1.857,1.857,0,0,1-1.727,1.727M4.562,18.055H41.248V15.609H4.562Z" transform="translate(0.473 5.251)" fill="#034cad"/>
      <path id="Trazado_1370779" data-name="Trazado 1370779" d="M26.59,23.819H5.155a1.727,1.727,0,1,1,0-3.453H26.59a1.749,1.749,0,0,1,1.727,1.727,1.852,1.852,0,0,1-1.727,1.727" transform="translate(1.464 8.695)" fill="#034cad"/>
      <path id="Trazado_1370780" data-name="Trazado 1370780" d="M30.4,23.819H24.208a1.727,1.727,0,0,1,0-3.453H30.4a1.749,1.749,0,0,1,1.727,1.727A1.852,1.852,0,0,1,30.4,23.819" transform="translate(9.599 8.695)" fill="#034cad"/>
      <path id="Trazado_1370781" data-name="Trazado 1370781" d="M63.3,61.878H6.617A6.6,6.6,0,0,1,0,55.26a6.693,6.693,0,0,1,6.617-6.618H18.271a3.256,3.256,0,0,0,3.309-3.309V43.606a1.748,1.748,0,0,1,1.727-1.725,1.663,1.663,0,0,1,1.727,1.725v1.727a6.6,6.6,0,0,1-6.618,6.618H6.761a3.309,3.309,0,0,0,0,6.618H63.446a3.309,3.309,0,0,0,0-6.618H55.1a6.6,6.6,0,0,1-6.617-6.618A6.693,6.693,0,0,1,55.1,38.716H76.826a1.726,1.726,0,1,1,0,3.452H54.957a3.309,3.309,0,0,0,0,6.618H63.3A6.6,6.6,0,0,1,69.92,55.4,6.48,6.48,0,0,1,63.3,61.878" transform="translate(0 16.53)" fill="#034cad"/>
    </g>
  </g>
</svg>
