<svg xmlns="http://www.w3.org/2000/svg" xmlns:xlink="http://www.w3.org/1999/xlink" width="63.871" height="64" viewBox="0 0 63.871 64">
  <defs>
    <clipPath id="clip-path">
      <rect id="Rectángulo_739183" data-name="Rectángulo 739183" width="63.871" height="64" fill="#034cad"/>
    </clipPath>
  </defs>
  <g id="Grupo_1211270" data-name="Grupo 1211270" transform="translate(0 0)">
    <rect id="Rectángulo_739182" data-name="Rectángulo 739182" width="2.949" height="2.95" transform="translate(51.943 32.834)" fill="#034cad"/>
    <g id="Grupo_1211269" data-name="Grupo 1211269" transform="translate(0 0)">
      <g id="Grupo_1211268" data-name="Grupo 1211268" clip-path="url(#clip-path)">
        <path id="Trazado_1370782" data-name="Trazado 1370782" d="M43.936,39.2a8.866,8.866,0,0,1-8.85-8.849V21.5a1.56,1.56,0,0,1,1.539-1.539H51.5A1.56,1.56,0,0,1,53.042,21.5v8.85A9.264,9.264,0,0,1,43.936,39.2m-5.9-16.288v7.439a5.9,5.9,0,1,0,11.8,0V22.913Z" transform="translate(9.547 5.432)" fill="#034cad"/>
        <path id="Trazado_1370783" data-name="Trazado 1370783" d="M53.141,23.873H35.314a1.56,1.56,0,0,1-1.539-1.539V17.973a1.559,1.559,0,0,1,1.539-1.538H53.141a1.558,1.558,0,0,1,1.539,1.538v4.489a1.455,1.455,0,0,1-1.539,1.411m-16.288-2.95H51.731V19.384H36.853Z" transform="translate(9.19 4.472)" fill="#034cad"/>
        <path id="Trazado_1370784" data-name="Trazado 1370784" d="M38.843,21.3A1.56,1.56,0,0,1,37.3,19.765v-8.85a1.539,1.539,0,0,1,3.078,0v8.978A1.455,1.455,0,0,1,38.843,21.3" transform="translate(10.15 2.552)" fill="#034cad"/>
        <path id="Trazado_1370785" data-name="Trazado 1370785" d="M45.9,21.3a1.56,1.56,0,0,1-1.539-1.539v-8.85A1.559,1.559,0,0,1,45.9,9.377a1.481,1.481,0,0,1,1.539,1.538v8.978A1.641,1.641,0,0,1,45.9,21.3" transform="translate(12.07 2.552)" fill="#034cad"/>
        <path id="Trazado_1370786" data-name="Trazado 1370786" d="M31.166,62.711H1.539A1.56,1.56,0,0,1,0,61.172V6.278A1.56,1.56,0,0,1,1.539,4.739H31.295a1.561,1.561,0,0,1,1.539,1.539V61.3a1.671,1.671,0,0,1-1.668,1.411M2.949,59.761H29.627V7.689H2.949Z" transform="translate(0 1.29)" fill="#034cad"/>
        <path id="Trazado_1370787" data-name="Trazado 1370787" d="M22.162,8.978H7.287A1.561,1.561,0,0,1,5.746,7.439v-5.9A1.561,1.561,0,0,1,7.287,0H22.162A1.56,1.56,0,0,1,23.7,1.539v5.9a1.482,1.482,0,0,1-1.539,1.539M8.824,6.028H20.753V3.078H8.824Z" transform="translate(1.563 0)" fill="#034cad"/>
        <path id="Trazado_1370788" data-name="Trazado 1370788" d="M24,38.545H6.177a1.559,1.559,0,0,1-1.539-1.539V29.568a1.56,1.56,0,0,1,1.539-1.539H24a1.559,1.559,0,0,1,1.539,1.539v7.438A1.649,1.649,0,0,1,24,38.545M7.588,35.6H22.464V31.107H7.588Z" transform="translate(1.262 7.627)" fill="#034cad"/>
        <path id="Trazado_1370789" data-name="Trazado 1370789" d="M24,47.922H6.177a1.56,1.56,0,0,1-1.539-1.539V38.945a1.559,1.559,0,0,1,1.539-1.539H24a1.559,1.559,0,0,1,1.539,1.539v7.438A1.65,1.65,0,0,1,24,47.922M7.588,44.972H22.464V40.484H7.588Z" transform="translate(1.262 10.179)" fill="#034cad"/>
        <path id="Trazado_1370790" data-name="Trazado 1370790" d="M24,27.578H6.176a1.539,1.539,0,1,1,0-3.078H24a1.56,1.56,0,0,1,1.539,1.539A1.651,1.651,0,0,1,24,27.578" transform="translate(1.262 6.667)" fill="#034cad"/>
        <path id="Trazado_1370791" data-name="Trazado 1370791" d="M24,24.15H6.176a1.539,1.539,0,0,1,0-3.078H24a1.56,1.56,0,0,1,1.539,1.539A1.769,1.769,0,0,1,24,24.15" transform="translate(1.262 5.734)" fill="#034cad"/>
        <path id="Trazado_1370792" data-name="Trazado 1370792" d="M24,20.621H6.176a1.539,1.539,0,1,1,0-3.078H24a1.539,1.539,0,0,1,0,3.078" transform="translate(1.262 4.774)" fill="#034cad"/>
        <path id="Trazado_1370793" data-name="Trazado 1370793" d="M24,17.092H6.176a1.539,1.539,0,1,1,0-3.077H24a1.558,1.558,0,0,1,1.539,1.538A1.651,1.651,0,0,1,24,17.092" transform="translate(1.262 3.814)" fill="#034cad"/>
        <path id="Trazado_1370794" data-name="Trazado 1370794" d="M42.629,53.545a5.884,5.884,0,0,1-5.9-5.9V46.106a2.9,2.9,0,0,0-2.95-2.95H24.93a1.559,1.559,0,0,1-1.539-1.539,1.481,1.481,0,0,1,1.539-1.538h8.849a5.885,5.885,0,0,1,5.9,5.9v1.539a2.949,2.949,0,0,0,5.9,0V34.307a1.539,1.539,0,1,1,3.077,0V47.645a5.913,5.913,0,0,1-6.027,5.9" transform="translate(6.365 8.917)" fill="#034cad"/>
      </g>
    </g>
  </g>
</svg>
