<svg xmlns="http://www.w3.org/2000/svg" width="604.236" height="441" viewBox="0 0 604.236 441">
  <g id="Grupo_1212887" data-name="Grupo 1212887" transform="translate(-186.045 -1743)">
    <path id="Trazado_1383774" data-name="Trazado 1383774" d="M8,0H284a8,8,0,0,1,8,8V227a8,8,0,0,1-8,8H8a8,8,0,0,1-8-8V8A8,8,0,0,1,8,0Z" transform="translate(186.281 1848)" fill="#e8fefe"/>
    <path id="Trazado_1383775" data-name="Trazado 1383775" d="M8,0H596a8,8,0,0,1,8,8V80a8,8,0,0,1-8,8H8a8,8,0,0,1-8-8V8A8,8,0,0,1,8,0Z" transform="translate(186.281 1743)" fill="#ffe9d9"/>
    <path id="Trazado_1383818" data-name="Trazado 1383818" d="M8,0H596a8,8,0,0,1,8,8V40a8,8,0,0,1-8,8H8a8,8,0,0,1-8-8V8A8,8,0,0,1,8,0Z" transform="translate(186.281 2136)" fill="#ffe9d9"/>
    <path id="Trazado_1383776" data-name="Trazado 1383776" d="M8,0H284a8,8,0,0,1,8,8V227a8,8,0,0,1-8,8H8a8,8,0,0,1-8-8V8A8,8,0,0,1,8,0Z" transform="translate(498.281 1848)" fill="#e8fefe"/>
    <path id="Trazado_1383777" data-name="Trazado 1383777" d="M37.766,7.852h-3.2V17H32.04V7.852H28.86V5.8h8.906Zm5.321,3.375a2.142,2.142,0,0,0-1.039-.242,1.5,1.5,0,0,0-1.258.59,2.573,2.573,0,0,0-.453,1.605V17H37.869V9h2.469v1.484h.031a2.136,2.136,0,0,1,2.109-1.625,1.59,1.59,0,0,1,.609.094Zm2.5-3.492a1.442,1.442,0,0,1-1.023-.371,1.2,1.2,0,0,1-.4-.91,1.153,1.153,0,0,1,.4-.906,1.671,1.671,0,0,1,2.051,0,1.158,1.158,0,0,1,.395.906,1.191,1.191,0,0,1-.395.922A1.466,1.466,0,0,1,45.589,7.734ZM46.807,17H44.339V9h2.469Zm8.774,0H53.246V15.852h-.031A2.607,2.607,0,0,1,50.832,17.2,2.492,2.492,0,0,1,49,16.535a2.366,2.366,0,0,1-.668-1.762q0-2.328,2.758-2.687l2.172-.289q0-1.312-1.422-1.312a4.853,4.853,0,0,0-2.719.852V9.477a6.116,6.116,0,0,1,1.41-.469,7.413,7.413,0,0,1,1.629-.2q3.422,0,3.422,3.414Zm-2.32-3.25v-.539l-1.453.188q-1.2.156-1.2,1.086a.9.9,0,0,0,.293.691,1.126,1.126,0,0,0,.793.27,1.462,1.462,0,0,0,1.133-.48A1.735,1.735,0,0,0,53.261,13.75Zm1.586-8.539L52.4,7.734H50.621l2.031-2.523ZM65.3,17H62.84V12.555q0-1.859-1.328-1.859a1.318,1.318,0,0,0-1.055.492,1.875,1.875,0,0,0-.414,1.25V17H57.575V9h2.469v1.266h.031A2.829,2.829,0,0,1,62.645,8.8q2.656,0,2.656,3.3Zm9.837-.914a4.526,4.526,0,0,1-1.289,3.449,5.224,5.224,0,0,1-3.734,1.223,5.919,5.919,0,0,1-2.562-.461V18.219a4.907,4.907,0,0,0,2.492.719,2.684,2.684,0,0,0,1.938-.66,2.369,2.369,0,0,0,.688-1.793v-.633h-.031A2.757,2.757,0,0,1,70.146,17.2a3,3,0,0,1-2.43-1.078,4.372,4.372,0,0,1-.9-2.891,4.87,4.87,0,0,1,1-3.227,3.265,3.265,0,0,1,2.633-1.2A2.429,2.429,0,0,1,72.638,9.93h.031V9h2.469ZM72.7,13.156v-.633a1.945,1.945,0,0,0-.449-1.293,1.453,1.453,0,0,0-1.168-.535,1.51,1.51,0,0,0-1.289.641,3.012,3.012,0,0,0-.469,1.8,2.543,2.543,0,0,0,.445,1.582,1.451,1.451,0,0,0,1.219.582,1.511,1.511,0,0,0,1.238-.59A2.418,2.418,0,0,0,72.7,13.156ZM84.842,17H82.381V15.781h-.039A2.792,2.792,0,0,1,79.9,17.2q-2.781,0-2.781-3.367V9h2.461v4.609q0,1.7,1.344,1.7a1.329,1.329,0,0,0,1.063-.465,1.874,1.874,0,0,0,.4-1.262V9h2.461Zm4.587,0H86.96V5.156h2.469Zm5.931.2a4.3,4.3,0,0,1-3.145-1.121,4.064,4.064,0,0,1-1.145-3.043,4.065,4.065,0,0,1,1.188-3.105A4.487,4.487,0,0,1,95.469,8.8a4.249,4.249,0,0,1,3.125,1.121,3.985,3.985,0,0,1,1.133,2.965,4.23,4.23,0,0,1-1.168,3.148A4.348,4.348,0,0,1,95.36,17.2Zm.063-6.5a1.647,1.647,0,0,0-1.359.6,2.653,2.653,0,0,0-.484,1.7q0,2.3,1.859,2.3,1.773,0,1.773-2.367Q97.211,10.7,95.422,10.7ZM113.651,17h-2.469V15.9h-.031a2.768,2.768,0,0,1-2.477,1.3,3.033,3.033,0,0,1-2.414-1.059,4.382,4.382,0,0,1-.914-2.957A4.77,4.77,0,0,1,106.354,10a3.287,3.287,0,0,1,2.641-1.2,2.246,2.246,0,0,1,2.156,1.109h.031V5.156h2.469Zm-2.422-3.891v-.6a1.893,1.893,0,0,0-.453-1.3,1.6,1.6,0,0,0-2.461.129,2.993,2.993,0,0,0-.461,1.77,2.59,2.59,0,0,0,.445,1.625,1.581,1.581,0,0,0,2.457-.031A2.507,2.507,0,0,0,111.229,13.109Zm11.728.594h-5.219q.125,1.742,2.2,1.742a4.286,4.286,0,0,0,2.32-.625V16.6a6.1,6.1,0,0,1-2.883.594,4.058,4.058,0,0,1-3.008-1.074,4.058,4.058,0,0,1-1.07-3,4.281,4.281,0,0,1,1.156-3.156A3.852,3.852,0,0,1,119.292,8.8,3.5,3.5,0,0,1,122,9.844a4,4,0,0,1,.957,2.82Zm-2.289-1.516q0-1.719-1.391-1.719a1.328,1.328,0,0,0-1.027.492,2.234,2.234,0,0,0-.527,1.227ZM133.9,17.2a5.215,5.215,0,0,1-3.922-1.566,5.624,5.624,0,0,1-1.516-4.082A6.026,6.026,0,0,1,130,7.25a5.328,5.328,0,0,1,4.078-1.641,5.085,5.085,0,0,1,3.879,1.57,5.789,5.789,0,0,1,1.48,4.141,5.929,5.929,0,0,1-1.535,4.258A5.269,5.269,0,0,1,133.9,17.2Zm.109-9.414a2.54,2.54,0,0,0-2.109,1,4.153,4.153,0,0,0-.781,2.637,4.077,4.077,0,0,0,.781,2.633,2.7,2.7,0,0,0,4.117.027,4.032,4.032,0,0,0,.766-2.613,4.369,4.369,0,0,0-.742-2.711A2.42,2.42,0,0,0,134.005,7.781ZM148.772,17h-2.461V12.453q0-1.758-1.281-1.758a1.312,1.312,0,0,0-1.062.492,1.9,1.9,0,0,0-.406,1.25V17h-2.469V5.156h2.469v5.031h.031A2.805,2.805,0,0,1,146.053,8.8q2.719,0,2.719,3.281Zm14.7,0h-2.461V12.438q0-1.742-1.281-1.742a1.177,1.177,0,0,0-.992.523,2.151,2.151,0,0,0-.383,1.3V17h-2.469V12.391q0-1.7-1.258-1.7a1.206,1.206,0,0,0-1.012.5,2.2,2.2,0,0,0-.379,1.359V17h-2.469V9h2.469v1.25h.031A3.031,3.031,0,0,1,155.851,8.8a2.3,2.3,0,0,1,2.32,1.492A2.959,2.959,0,0,1,160.859,8.8q2.609,0,2.609,3.219Z" transform="translate(236.281 1863)" fill="#12263f"/>
    <path id="Trazado_1383778" data-name="Trazado 1383778" d="M23.358,7.852h-3.2V17H17.631V7.852h-3.18V5.8h8.906Zm5.321,3.375a2.142,2.142,0,0,0-1.039-.242,1.5,1.5,0,0,0-1.258.59,2.573,2.573,0,0,0-.453,1.605V17H23.46V9h2.469v1.484h.031A2.136,2.136,0,0,1,28.07,8.859a1.59,1.59,0,0,1,.609.094Zm2.5-3.492a1.442,1.442,0,0,1-1.023-.371,1.2,1.2,0,0,1-.4-.91,1.153,1.153,0,0,1,.4-.906,1.671,1.671,0,0,1,2.051,0,1.158,1.158,0,0,1,.395.906,1.191,1.191,0,0,1-.395.922A1.466,1.466,0,0,1,31.18,7.734ZM32.4,17H29.93V9H32.4Zm8.774,0H38.837V15.852h-.031A2.607,2.607,0,0,1,36.423,17.2a2.492,2.492,0,0,1-1.832-.66,2.366,2.366,0,0,1-.668-1.762q0-2.328,2.758-2.687l2.172-.289q0-1.312-1.422-1.312a4.853,4.853,0,0,0-2.719.852V9.477a6.116,6.116,0,0,1,1.41-.469,7.413,7.413,0,0,1,1.629-.2q3.422,0,3.422,3.414Zm-2.32-3.25v-.539L37.4,13.4q-1.2.156-1.2,1.086a.9.9,0,0,0,.293.691,1.126,1.126,0,0,0,.793.27,1.462,1.462,0,0,0,1.133-.48A1.735,1.735,0,0,0,38.853,13.75Zm1.586-8.539L37.993,7.734H36.212l2.031-2.523ZM50.893,17H48.432V12.555q0-1.859-1.328-1.859a1.318,1.318,0,0,0-1.055.492,1.875,1.875,0,0,0-.414,1.25V17H43.166V9h2.469v1.266h.031A2.829,2.829,0,0,1,48.237,8.8q2.656,0,2.656,3.3Zm9.837-.914a4.526,4.526,0,0,1-1.289,3.449,5.224,5.224,0,0,1-3.734,1.223,5.919,5.919,0,0,1-2.562-.461V18.219a4.907,4.907,0,0,0,2.492.719,2.684,2.684,0,0,0,1.938-.66,2.369,2.369,0,0,0,.688-1.793v-.633H58.23A2.757,2.757,0,0,1,55.738,17.2a3,3,0,0,1-2.43-1.078,4.372,4.372,0,0,1-.9-2.891,4.87,4.87,0,0,1,1-3.227,3.265,3.265,0,0,1,2.633-1.2A2.429,2.429,0,0,1,58.23,9.93h.031V9H60.73Zm-2.437-2.93v-.633a1.945,1.945,0,0,0-.449-1.293,1.453,1.453,0,0,0-1.168-.535,1.51,1.51,0,0,0-1.289.641,3.012,3.012,0,0,0-.469,1.8,2.543,2.543,0,0,0,.445,1.582,1.451,1.451,0,0,0,1.219.582,1.511,1.511,0,0,0,1.238-.59A2.418,2.418,0,0,0,58.292,13.156ZM70.434,17H67.973V15.781h-.039A2.792,2.792,0,0,1,65.488,17.2q-2.781,0-2.781-3.367V9h2.461v4.609q0,1.7,1.344,1.7a1.329,1.329,0,0,0,1.063-.465,1.874,1.874,0,0,0,.4-1.262V9h2.461Zm4.587,0H72.552V5.156h2.469Zm5.931.2a4.3,4.3,0,0,1-3.145-1.121,4.064,4.064,0,0,1-1.145-3.043A4.065,4.065,0,0,1,77.85,9.926,4.487,4.487,0,0,1,81.061,8.8a4.249,4.249,0,0,1,3.125,1.121,3.985,3.985,0,0,1,1.133,2.965,4.23,4.23,0,0,1-1.168,3.148A4.348,4.348,0,0,1,80.951,17.2Zm.063-6.5a1.647,1.647,0,0,0-1.359.6A2.653,2.653,0,0,0,79.17,13q0,2.3,1.859,2.3,1.773,0,1.773-2.367Q82.8,10.7,81.014,10.7ZM99.242,17H96.773V15.9h-.031a2.768,2.768,0,0,1-2.477,1.3,3.033,3.033,0,0,1-2.414-1.059,4.382,4.382,0,0,1-.914-2.957A4.77,4.77,0,0,1,91.945,10a3.287,3.287,0,0,1,2.641-1.2,2.246,2.246,0,0,1,2.156,1.109h.031V5.156h2.469ZM96.82,13.109v-.6a1.893,1.893,0,0,0-.453-1.3,1.6,1.6,0,0,0-2.461.129,2.993,2.993,0,0,0-.461,1.77,2.59,2.59,0,0,0,.445,1.625,1.581,1.581,0,0,0,2.457-.031A2.507,2.507,0,0,0,96.82,13.109Zm11.728.594h-5.219q.125,1.742,2.2,1.742a4.286,4.286,0,0,0,2.32-.625V16.6a6.1,6.1,0,0,1-2.883.594,4.058,4.058,0,0,1-3.008-1.074,4.058,4.058,0,0,1-1.07-3,4.281,4.281,0,0,1,1.156-3.156A3.852,3.852,0,0,1,104.884,8.8a3.5,3.5,0,0,1,2.707,1.039,4,4,0,0,1,.957,2.82Zm-2.289-1.516q0-1.719-1.391-1.719a1.328,1.328,0,0,0-1.027.492,2.234,2.234,0,0,0-.527,1.227Zm10.752,3.883h-.031V20.68h-2.469V9h2.469v1.2h.031a3.142,3.142,0,0,1,4.973-.332,4.54,4.54,0,0,1,.848,2.9,4.922,4.922,0,0,1-.988,3.211,3.222,3.222,0,0,1-2.629,1.211A2.491,2.491,0,0,1,117.011,16.07Zm-.07-3.281v.641a2.037,2.037,0,0,0,.438,1.352,1.424,1.424,0,0,0,1.148.523,1.514,1.514,0,0,0,1.309-.652A3.15,3.15,0,0,0,120.3,12.8q0-2.109-1.641-2.109a1.541,1.541,0,0,0-1.238.574A2.29,2.29,0,0,0,116.94,12.789ZM128.285,17.2a4.3,4.3,0,0,1-3.145-1.121A4.064,4.064,0,0,1,124,13.031a4.065,4.065,0,0,1,1.188-3.105A4.487,4.487,0,0,1,128.394,8.8a4.249,4.249,0,0,1,3.125,1.121,3.985,3.985,0,0,1,1.133,2.965,4.23,4.23,0,0,1-1.168,3.148A4.348,4.348,0,0,1,128.285,17.2Zm.063-6.5a1.647,1.647,0,0,0-1.359.6A2.653,2.653,0,0,0,126.5,13q0,2.3,1.859,2.3,1.773,0,1.773-2.367Q130.137,10.7,128.348,10.7Zm10.782,6.211a3.649,3.649,0,0,1-1.648.289q-2.609,0-2.609-2.711V10.82h-1.3V9h1.3V7.273l2.461-.7V9h1.8v1.82h-1.8v3.234q0,1.25.992,1.25a1.673,1.673,0,0,0,.8-.227Zm8.556-3.2h-5.219q.125,1.742,2.2,1.742a4.286,4.286,0,0,0,2.32-.625V16.6a6.1,6.1,0,0,1-2.883.594,4.058,4.058,0,0,1-3.008-1.074,4.058,4.058,0,0,1-1.07-3,4.281,4.281,0,0,1,1.156-3.156A3.852,3.852,0,0,1,144.021,8.8a3.5,3.5,0,0,1,2.707,1.039,4,4,0,0,1,.957,2.82ZM145.4,12.188q0-1.719-1.391-1.719a1.328,1.328,0,0,0-1.027.492,2.234,2.234,0,0,0-.527,1.227ZM156.921,17H154.46V12.555q0-1.859-1.328-1.859a1.318,1.318,0,0,0-1.055.492,1.875,1.875,0,0,0-.414,1.25V17h-2.469V9h2.469v1.266h.031a2.829,2.829,0,0,1,2.57-1.461q2.656,0,2.656,3.3Zm8.056-.289a4.881,4.881,0,0,1-2.414.484,4.083,4.083,0,0,1-2.984-1.117,3.859,3.859,0,0,1-1.141-2.883A4.251,4.251,0,0,1,159.66,9.98a4.518,4.518,0,0,1,3.27-1.176,4.2,4.2,0,0,1,2.047.375v2.094a2.814,2.814,0,0,0-1.727-.578,2.275,2.275,0,0,0-1.684.621,2.317,2.317,0,0,0-.621,1.715,2.28,2.28,0,0,0,.594,1.668,2.182,2.182,0,0,0,1.633.605,3.258,3.258,0,0,0,1.8-.578Zm2.907-8.977a1.442,1.442,0,0,1-1.023-.371,1.2,1.2,0,0,1-.4-.91,1.153,1.153,0,0,1,.4-.906,1.671,1.671,0,0,1,2.051,0,1.158,1.158,0,0,1,.395.906,1.191,1.191,0,0,1-.395.922A1.466,1.466,0,0,1,167.883,7.734ZM169.1,17h-2.469V9H169.1Zm8.774,0h-2.336V15.852h-.031a2.607,2.607,0,0,1-2.383,1.344,2.492,2.492,0,0,1-1.832-.66,2.366,2.366,0,0,1-.668-1.762q0-2.328,2.758-2.687l2.172-.289q0-1.312-1.422-1.312a4.853,4.853,0,0,0-2.719.852V9.477a6.116,6.116,0,0,1,1.41-.469,7.413,7.413,0,0,1,1.629-.2q3.422,0,3.422,3.414Zm-2.32-3.25v-.539L174.1,13.4q-1.2.156-1.2,1.086a.9.9,0,0,0,.293.691,1.126,1.126,0,0,0,.793.27,1.462,1.462,0,0,0,1.133-.48A1.735,1.735,0,0,0,175.556,13.75Z" transform="translate(548.281 1863)" fill="#12263f"/>
    <path id="Trazado_1383435" data-name="Trazado 1383435" d="M53.818,41.6H21.261L1.175,76.651a5.015,5.015,0,0,0,4.352,7.507H53.818Z" transform="translate(589.527 1955.516)" fill="#1df2f2"/>
    <path id="Trazado_1383436" data-name="Trazado 1383436" d="M42.843,41.6H75.4l20.086,35.05a5.015,5.015,0,0,1-4.352,7.507H42.843Z" transform="translate(600.502 1955.516)" fill="#fe9341"/>
    <path id="Trazado_1383437" data-name="Trazado 1383437" d="M82.1,52.253,53.9,3.029a5.015,5.015,0,0,0-8.7,0L16.988,52.253Z" transform="translate(593.8 1944.863)" fill="#0460d9"/>
    <path id="Trazado_1383779" data-name="Trazado 1383779" d="M-1.487-3.705V0H-2.635V-9.8H.058A3.555,3.555,0,0,1,2.5-9.037a2.734,2.734,0,0,1,.865,2.16A2.971,2.971,0,0,1,2.4-4.594a3.67,3.67,0,0,1-2.594.889Zm0-5.059v4.02h1.2a2.69,2.69,0,0,0,1.815-.543,1.924,1.924,0,0,0,.625-1.535q0-1.941-2.3-1.941Z" transform="translate(642.058 1979.446)" fill="#fff"/>
    <path id="Trazado_1383780" data-name="Trazado 1383780" d="M-2.127.182l.258-6.645q.018-.58.018-.609a.64.64,0,0,0-.155-.475.913.913,0,0,0-.571-.182l.07-.217H.832l-.064.217a.8.8,0,0,0-.647.258A1.9,1.9,0,0,0-.135-6.4L-.322-2.262l3.1-3.6a6.586,6.586,0,0,0,.744-.967,1.048,1.048,0,0,0,.141-.469.341.341,0,0,0-.129-.261,1.023,1.023,0,0,0-.492-.173l.082-.217H5.314v.217a1.237,1.237,0,0,0-.457.205,6.208,6.208,0,0,0-.8.82L-1.869.182Z" transform="translate(531.281 2042.729)" fill="#12263f"/>
    <path id="Trazado_1383781" data-name="Trazado 1383781" d="M-.677-7.729l.064-.217H3.267l-.076.217a1.22,1.22,0,0,0-.806.234,2.036,2.036,0,0,0-.489.979L.442-1.43a3.271,3.271,0,0,0-.158.721.38.38,0,0,0,.164.328,1.513,1.513,0,0,0,.8.164L1.187,0H-2.757l.064-.217a1.36,1.36,0,0,0,.867-.226,2.068,2.068,0,0,0,.5-.987L.138-6.516a2.827,2.827,0,0,0,.135-.709.4.4,0,0,0-.164-.34A1.743,1.743,0,0,0-.677-7.729Z" transform="translate(719.45 2042.729)" fill="#12263f"/>
    <path id="Trazado_1383782" data-name="Trazado 1383782" d="M-.282-3.955l-.7,2.4a3.063,3.063,0,0,0-.146.717A.526.526,0,0,0-.936-.4a1.648,1.648,0,0,0,.863.162L-.156,0h-4.2l.07-.235a2.108,2.108,0,0,0,.755-.1A.849.849,0,0,0-3.164-.66a3.947,3.947,0,0,0,.324-.9l1.593-5.465A3.144,3.144,0,0,0-1.082-7.8a.486.486,0,0,0-.209-.4,1.355,1.355,0,0,0-.762-.175l.07-.235H1.425a4.25,4.25,0,0,1,2.019.355A1.821,1.821,0,0,1,4.4-6.576a2.458,2.458,0,0,1-.949,1.9,3.768,3.768,0,0,1-2.555.822A8.3,8.3,0,0,1-.282-3.955Zm.127-.489a5.8,5.8,0,0,0,.686.051,1.551,1.551,0,0,0,1.377-.8,3.1,3.1,0,0,0,.5-1.669,1.247,1.247,0,0,0-.324-.917,1.2,1.2,0,0,0-.9-.327q-.121,0-.3.013Z" transform="translate(620.027 1933)" fill="#12263f"/>
    <path id="Trazado_1383783" data-name="Trazado 1383783" d="M-.282-3.955l-.7,2.4a3.063,3.063,0,0,0-.146.717A.526.526,0,0,0-.936-.4a1.648,1.648,0,0,0,.863.162L-.156,0h-4.2l.07-.235a2.108,2.108,0,0,0,.755-.1A.849.849,0,0,0-3.164-.66a3.947,3.947,0,0,0,.324-.9l1.593-5.465A3.144,3.144,0,0,0-1.082-7.8a.486.486,0,0,0-.209-.4,1.355,1.355,0,0,0-.762-.175l.07-.235H1.425a4.25,4.25,0,0,1,2.019.355A1.821,1.821,0,0,1,4.4-6.576a2.458,2.458,0,0,1-.949,1.9,3.768,3.768,0,0,1-2.555.822A8.3,8.3,0,0,1-.282-3.955Zm.127-.489a5.8,5.8,0,0,0,.686.051,1.551,1.551,0,0,0,1.377-.8,3.1,3.1,0,0,0,.5-1.669,1.247,1.247,0,0,0-.324-.917,1.2,1.2,0,0,0-.9-.327q-.121,0-.3.013Z" transform="translate(561.929 2032.146)" fill="#12263f"/>
    <path id="Trazado_1383784" data-name="Trazado 1383784" d="M-.282-3.955l-.7,2.4a3.063,3.063,0,0,0-.146.717A.526.526,0,0,0-.936-.4a1.648,1.648,0,0,0,.863.162L-.156,0h-4.2l.07-.235a2.108,2.108,0,0,0,.755-.1A.849.849,0,0,0-3.164-.66a3.947,3.947,0,0,0,.324-.9l1.593-5.465A3.144,3.144,0,0,0-1.082-7.8a.486.486,0,0,0-.209-.4,1.355,1.355,0,0,0-.762-.175l.07-.235H1.425a4.25,4.25,0,0,1,2.019.355A1.821,1.821,0,0,1,4.4-6.576a2.458,2.458,0,0,1-.949,1.9,3.768,3.768,0,0,1-2.555.822A8.3,8.3,0,0,1-.282-3.955Zm.127-.489a5.8,5.8,0,0,0,.686.051,1.551,1.551,0,0,0,1.377-.8,3.1,3.1,0,0,0,.5-1.669,1.247,1.247,0,0,0-.324-.917,1.2,1.2,0,0,0-.9-.327q-.121,0-.3.013Z" transform="translate(749.627 2032.146)" fill="#12263f"/>
    <path id="Trazado_1383785" data-name="Trazado 1383785" d="M-.677-7.729l.064-.217H3.267l-.076.217a1.22,1.22,0,0,0-.806.234,2.036,2.036,0,0,0-.489.979L.442-1.43a3.271,3.271,0,0,0-.158.721.38.38,0,0,0,.164.328,1.513,1.513,0,0,0,.8.164L1.187,0H-2.757l.064-.217a1.36,1.36,0,0,0,.867-.226,2.068,2.068,0,0,0,.5-.987L.138-6.516a2.827,2.827,0,0,0,.135-.709.4.4,0,0,0-.164-.34A1.743,1.743,0,0,0-.677-7.729Z" transform="translate(562.595 2054.051)" fill="#12263f"/>
    <path id="Trazado_1383786" data-name="Trazado 1383786" d="M-2.127.182l.258-6.645q.018-.58.018-.609a.64.64,0,0,0-.155-.475.913.913,0,0,0-.571-.182l.07-.217H.832l-.064.217a.8.8,0,0,0-.647.258A1.9,1.9,0,0,0-.135-6.4L-.322-2.262l3.1-3.6a6.586,6.586,0,0,0,.744-.967,1.048,1.048,0,0,0,.141-.469.341.341,0,0,0-.129-.261,1.023,1.023,0,0,0-.492-.173l.082-.217H5.314v.217a1.237,1.237,0,0,0-.457.205,6.208,6.208,0,0,0-.8.82L-1.869.182Z" transform="translate(749.822 2054.051)" fill="#12263f"/>
    <path id="Trazado_1383787" data-name="Trazado 1383787" d="M-2.127.182l.258-6.645q.018-.58.018-.609a.64.64,0,0,0-.155-.475.913.913,0,0,0-.571-.182l.07-.217H.832l-.064.217a.8.8,0,0,0-.647.258A1.9,1.9,0,0,0-.135-6.4L-.322-2.262l3.1-3.6a6.586,6.586,0,0,0,.744-.967,1.048,1.048,0,0,0,.141-.469.341.341,0,0,0-.129-.261,1.023,1.023,0,0,0-.492-.173l.082-.217H5.314v.217a1.237,1.237,0,0,0-.457.205,6.208,6.208,0,0,0-.8.82L-1.869.182Z" transform="translate(646.464 1932)" fill="#12263f"/>
    <path id="Trazado_1383788" data-name="Trazado 1383788" d="M-.677-7.729l.064-.217H3.267l-.076.217a1.22,1.22,0,0,0-.806.234,2.036,2.036,0,0,0-.489.979L.442-1.43a3.271,3.271,0,0,0-.158.721.38.38,0,0,0,.164.328,1.513,1.513,0,0,0,.8.164L1.187,0H-2.757l.064-.217a1.36,1.36,0,0,0,.867-.226,2.068,2.068,0,0,0,.5-.987L.138-6.516a2.827,2.827,0,0,0,.135-.709.4.4,0,0,0-.164-.34A1.743,1.743,0,0,0-.677-7.729Z" transform="translate(668.472 1932)" fill="#12263f"/>
    <path id="Trazado_1383789" data-name="Trazado 1383789" d="M-2.95-5.3H3.46v.762H-2.95Zm0,1.916H3.46v.762H-2.95Z" transform="translate(544.187 2042.729)" fill="#12263f"/>
    <path id="Trazado_1383790" data-name="Trazado 1383790" d="M-2.95-5.3H3.46v.762H-2.95Zm0,1.916H3.46v.762H-2.95Z" transform="translate(731.884 2042.729)" fill="#12263f"/>
    <path id="Trazado_1383791" data-name="Trazado 1383791" d="M-2.95-5.3H3.46v.762H-2.95Zm0,1.916H3.46v.762H-2.95Z" transform="translate(633.127 1932)" fill="#12263f"/>
    <path id="Trazado_1383792" data-name="Trazado 1383792" d="M.107-3.754A1.071,1.071,0,0,1,.9-3.428a1.076,1.076,0,0,1,.324.787,1.079,1.079,0,0,1-.326.789,1.069,1.069,0,0,1-.787.328A1.077,1.077,0,0,1-.684-1.85a1.077,1.077,0,0,1-.326-.791,1.076,1.076,0,0,1,.324-.787A1.075,1.075,0,0,1,.107-3.754Z" transform="translate(659.325 1928)" fill="#12263f"/>
    <path id="Trazado_1383793" data-name="Trazado 1383793" d="M3.923-9.1.552,0H-.622l-3.3-9.1h1.187l2.52,7.217a4.285,4.285,0,0,1,.184.806h.025A3.954,3.954,0,0,1,.2-1.9L2.774-9.1Z" transform="translate(620.882 2021.821)" fill="#12263f"/>
    <path id="Trazado_1383794" data-name="Trazado 1383794" d="M.448,0h-.9V-7.7h.9Z" transform="translate(662.925 2019.821)" fill="#12263f"/>
    <path id="Trazado_1383795" data-name="Trazado 1383795" d="M0,0H18.505" transform="translate(554.797 2040.553)" fill="none" stroke="#12263f" stroke-width="1"/>
    <path id="Trazado_1383796" data-name="Trazado 1383796" d="M0,0H18.505" transform="translate(742.495 2040.553)" fill="none" stroke="#12263f" stroke-width="1"/>
    <path id="Trazado_1383435-2" data-name="Trazado 1383435" d="M54.33,41.6H21.46L1.182,76.988a5.063,5.063,0,0,0,4.394,7.58H54.33Z" transform="translate(276.448 1956.247)" fill="#1df2f2"/>
    <path id="Trazado_1383436-2" data-name="Trazado 1383436" d="M42.843,41.6h32.87L95.991,76.988a5.063,5.063,0,0,1-4.394,7.58H42.843Z" transform="translate(287.935 1956.247)" fill="#fe9341"/>
    <path id="Trazado_1383437-2" data-name="Trazado 1383437" d="M82.728,52.75,54.251,3.053a5.063,5.063,0,0,0-8.786,0L16.988,52.75Z" transform="translate(280.92 1945.098)" fill="#0460d9"/>
    <path id="Trazado_1383797" data-name="Trazado 1383797" d="M4.225-9.8.595,0H-.67L-4.225-9.8h1.278L-.232-2.03a4.615,4.615,0,0,1,.2.868h.027a4.258,4.258,0,0,1,.226-.882L2.987-9.8Z" transform="translate(329.44 1979.863)" fill="#fff"/>
    <path id="Trazado_1383798" data-name="Trazado 1383798" d="M-.677-7.729l.064-.217H3.267l-.076.217a1.22,1.22,0,0,0-.806.234,2.036,2.036,0,0,0-.489.979L.442-1.43a3.271,3.271,0,0,0-.158.721.38.38,0,0,0,.164.328,1.513,1.513,0,0,0,.8.164L1.187,0H-2.757l.064-.217a1.36,1.36,0,0,0,.867-.226,2.068,2.068,0,0,0,.5-.987L.138-6.516a2.827,2.827,0,0,0,.135-.709.4.4,0,0,0-.164-.34A1.743,1.743,0,0,0-.677-7.729Z" transform="translate(218.281 2043.792)" fill="#12263f"/>
    <path id="Trazado_1383799" data-name="Trazado 1383799" d="M-.649-4.525l-.82,2.81a3.455,3.455,0,0,0-.178.875.494.494,0,0,0,.212.417,1.7,1.7,0,0,0,.882.171L-.649,0H-5.113l.082-.253a1.517,1.517,0,0,0,.981-.26,2.474,2.474,0,0,0,.571-1.162l1.723-5.947a3.042,3.042,0,0,0,.144-.786.5.5,0,0,0-.178-.417,1.714,1.714,0,0,0-.827-.191l.068-.253H1.292A3.6,3.6,0,0,1,3.609-8.7a1.856,1.856,0,0,1,.67,1.477A2.354,2.354,0,0,1,3.5-5.5a4.152,4.152,0,0,1-1.743.827l.834,2.81a3.693,3.693,0,0,0,.584,1.36,1.271,1.271,0,0,0,.831.253V0H1.121L-.191-4.525l-.226.014Q-.492-4.512-.649-4.525Zm.1-.41q.239.014.4.014A2.153,2.153,0,0,0,1.49-5.605,2.509,2.509,0,0,0,2.133-7.4a1.352,1.352,0,0,0-.342-1,1.22,1.22,0,0,0-.9-.342q-.137,0-.321.007Z" transform="translate(407.063 2044.792)" fill="#12263f"/>
    <path id="Trazado_1383800" data-name="Trazado 1383800" d="M-2.481.212l.3-7.752q.021-.677.021-.711A.746.746,0,0,0-2.341-8.8a1.065,1.065,0,0,0-.667-.212l.082-.253h3.9L.9-9.017a.937.937,0,0,0-.755.3,2.215,2.215,0,0,0-.3,1.244L-.376-2.639l3.616-4.2a7.683,7.683,0,0,0,.868-1.128,1.223,1.223,0,0,0,.164-.547.4.4,0,0,0-.15-.3,1.194,1.194,0,0,0-.574-.2l.1-.253H6.2v.253a1.443,1.443,0,0,0-.533.239,7.243,7.243,0,0,0-.93.957L-2.181.212Z" transform="translate(308.198 1933)" fill="#12263f"/>
    <path id="Trazado_1383801" data-name="Trazado 1383801" d="M-2.481.212l.3-7.752q.021-.677.021-.711A.746.746,0,0,0-2.341-8.8a1.065,1.065,0,0,0-.667-.212l.082-.253h3.9L.9-9.017a.937.937,0,0,0-.755.3,2.215,2.215,0,0,0-.3,1.244L-.376-2.639l3.616-4.2a7.683,7.683,0,0,0,.868-1.128,1.223,1.223,0,0,0,.164-.547.4.4,0,0,0-.15-.3,1.194,1.194,0,0,0-.574-.2l.1-.253H6.2v.253a1.443,1.443,0,0,0-.533.239,7.243,7.243,0,0,0-.93.957L-2.181.212Z" transform="translate(249.542 2033.098)" fill="#12263f"/>
    <path id="Trazado_1383802" data-name="Trazado 1383802" d="M-2.481.212l.3-7.752q.021-.677.021-.711A.746.746,0,0,0-2.341-8.8a1.065,1.065,0,0,0-.667-.212l.082-.253h3.9L.9-9.017a.937.937,0,0,0-.755.3,2.215,2.215,0,0,0-.3,1.244L-.376-2.639l3.616-4.2a7.683,7.683,0,0,0,.868-1.128,1.223,1.223,0,0,0,.164-.547.4.4,0,0,0-.15-.3,1.194,1.194,0,0,0-.574-.2l.1-.253H6.2v.253a1.443,1.443,0,0,0-.533.239,7.243,7.243,0,0,0-.93.957L-2.181.212Z" transform="translate(439.042 2033.098)" fill="#12263f"/>
    <path id="Trazado_1383803" data-name="Trazado 1383803" d="M-.649-4.525l-.82,2.81a3.455,3.455,0,0,0-.178.875.494.494,0,0,0,.212.417,1.7,1.7,0,0,0,.882.171L-.649,0H-5.113l.082-.253a1.517,1.517,0,0,0,.981-.26,2.474,2.474,0,0,0,.571-1.162l1.723-5.947a3.042,3.042,0,0,0,.144-.786.5.5,0,0,0-.178-.417,1.714,1.714,0,0,0-.827-.191l.068-.253H1.292A3.6,3.6,0,0,1,3.609-8.7a1.856,1.856,0,0,1,.67,1.477A2.354,2.354,0,0,1,3.5-5.5a4.152,4.152,0,0,1-1.743.827l.834,2.81a3.693,3.693,0,0,0,.584,1.36,1.271,1.271,0,0,0,.831.253V0H1.121L-.191-4.525l-.226.014Q-.492-4.512-.649-4.525Zm.1-.41q.239.014.4.014A2.153,2.153,0,0,0,1.49-5.605,2.509,2.509,0,0,0,2.133-7.4a1.352,1.352,0,0,0-.342-1,1.22,1.22,0,0,0-.9-.342q-.137,0-.321.007Z" transform="translate(248.702 2056.223)" fill="#12263f"/>
    <path id="Trazado_1383804" data-name="Trazado 1383804" d="M-.677-7.729l.064-.217H3.267l-.076.217a1.22,1.22,0,0,0-.806.234,2.036,2.036,0,0,0-.489.979L.442-1.43a3.271,3.271,0,0,0-.158.721.38.38,0,0,0,.164.328,1.513,1.513,0,0,0,.8.164L1.187,0H-2.757l.064-.217a1.36,1.36,0,0,0,.867-.226,2.068,2.068,0,0,0,.5-.987L.138-6.516a2.827,2.827,0,0,0,.135-.709.4.4,0,0,0-.164-.34A1.743,1.743,0,0,0-.677-7.729Z" transform="translate(438.92 2055.223)" fill="#12263f"/>
    <path id="Trazado_1383805" data-name="Trazado 1383805" d="M-.649-4.525l-.82,2.81a3.455,3.455,0,0,0-.178.875.494.494,0,0,0,.212.417,1.7,1.7,0,0,0,.882.171L-.649,0H-5.113l.082-.253a1.517,1.517,0,0,0,.981-.26,2.474,2.474,0,0,0,.571-1.162l1.723-5.947a3.042,3.042,0,0,0,.144-.786.5.5,0,0,0-.178-.417,1.714,1.714,0,0,0-.827-.191l.068-.253H1.292A3.6,3.6,0,0,1,3.609-8.7a1.856,1.856,0,0,1,.67,1.477A2.354,2.354,0,0,1,3.5-5.5a4.152,4.152,0,0,1-1.743.827l.834,2.81a3.693,3.693,0,0,0,.584,1.36,1.271,1.271,0,0,0,.831.253V0H1.121L-.191-4.525l-.226.014Q-.492-4.512-.649-4.525Zm.1-.41q.239.014.4.014A2.153,2.153,0,0,0,1.49-5.605,2.509,2.509,0,0,0,2.133-7.4a1.352,1.352,0,0,0-.342-1,1.22,1.22,0,0,0-.9-.342q-.137,0-.321.007Z" transform="translate(334.048 1933)" fill="#12263f"/>
    <path id="Trazado_1383806" data-name="Trazado 1383806" d="M-.677-7.729l.064-.217H3.267l-.076.217a1.22,1.22,0,0,0-.806.234,2.036,2.036,0,0,0-.489.979L.442-1.43a3.271,3.271,0,0,0-.158.721.38.38,0,0,0,.164.328,1.513,1.513,0,0,0,.8.164L1.187,0H-2.757l.064-.217a1.36,1.36,0,0,0,.867-.226,2.068,2.068,0,0,0,.5-.987L.138-6.516a2.827,2.827,0,0,0,.135-.709.4.4,0,0,0-.164-.34A1.743,1.743,0,0,0-.677-7.729Z" transform="translate(356.118 1932)" fill="#12263f"/>
    <path id="Trazado_1383807" data-name="Trazado 1383807" d="M-2.95-5.3H3.46v.762H-2.95Zm0,1.916H3.46v.762H-2.95Z" transform="translate(230.639 2043.792)" fill="#12263f"/>
    <path id="Trazado_1383808" data-name="Trazado 1383808" d="M-2.95-5.3H3.46v.762H-2.95Zm0,1.916H3.46v.762H-2.95Z" transform="translate(420.138 2043.792)" fill="#12263f"/>
    <path id="Trazado_1383809" data-name="Trazado 1383809" d="M-2.95-5.3H3.46v.762H-2.95Zm0,1.916H3.46v.762H-2.95Z" transform="translate(320.433 1932)" fill="#12263f"/>
    <path id="Trazado_1383810" data-name="Trazado 1383810" d="M.107-3.754A1.071,1.071,0,0,1,.9-3.428a1.076,1.076,0,0,1,.324.787,1.079,1.079,0,0,1-.326.789,1.069,1.069,0,0,1-.787.328A1.077,1.077,0,0,1-.684-1.85a1.077,1.077,0,0,1-.326-.791,1.076,1.076,0,0,1,.324-.787A1.075,1.075,0,0,1,.107-3.754Z" transform="translate(346.902 1928)" fill="#12263f"/>
    <path id="Trazado_1383811" data-name="Trazado 1383811" d="M.122,0H-.124V-2.1H.122Z" transform="translate(307.424 2011.655)" fill="#12263f"/>
    <path id="Trazado_1383812" data-name="Trazado 1383812" d="M4.125,0H2.758L1.118-2.748A5.985,5.985,0,0,0,.68-3.4a2.494,2.494,0,0,0-.434-.441,1.5,1.5,0,0,0-.479-.25A1.968,1.968,0,0,0-.81-4.17h-.943V0H-2.9V-9.8H.024a4.17,4.17,0,0,1,1.186.161,2.654,2.654,0,0,1,.943.489,2.271,2.271,0,0,1,.625.817A2.709,2.709,0,0,1,3-7.191a2.757,2.757,0,0,1-.154.94,2.455,2.455,0,0,1-.437.762,2.652,2.652,0,0,1-.684.571,3.49,3.49,0,0,1-.9.366v.027a2.068,2.068,0,0,1,.427.25,2.351,2.351,0,0,1,.345.332,4.391,4.391,0,0,1,.325.434q.161.243.359.564ZM-1.753-8.764v3.555H-.195a2.364,2.364,0,0,0,.8-.13,1.844,1.844,0,0,0,.632-.373,1.689,1.689,0,0,0,.417-.595A1.991,1.991,0,0,0,1.8-7.1a1.537,1.537,0,0,0-.509-1.227A2.188,2.188,0,0,0-.181-8.764Z" transform="translate(351.015 2023.655)" fill="#12263f"/>
    <path id="Trazado_1383813" data-name="Trazado 1383813" d="M0,0H18.683" transform="translate(241.38 2041.701)" fill="none" stroke="#12263f" stroke-width="1"/>
    <path id="Trazado_1383814" data-name="Trazado 1383814" d="M0,0H18.683" transform="translate(430.879 2041.701)" fill="none" stroke="#12263f" stroke-width="1"/>
    <path id="Trazado_1383815" data-name="Trazado 1383815" d="M-37.26-9.148h-3.2V0h-2.531V-9.148h-3.18V-11.2h8.906ZM-30.2-3.3h-5.219q.125,1.742,2.2,1.742a4.286,4.286,0,0,0,2.32-.625V-.4A6.1,6.1,0,0,1-33.79.2,4.058,4.058,0,0,1-36.8-.879a4.058,4.058,0,0,1-1.07-3,4.281,4.281,0,0,1,1.156-3.156A3.852,3.852,0,0,1-33.868-8.2a3.5,3.5,0,0,1,2.707,1.039,4,4,0,0,1,.957,2.82Zm-2.289-1.516q0-1.719-1.391-1.719a1.328,1.328,0,0,0-1.027.492,2.234,2.234,0,0,0-.527,1.227ZM-20.969,0H-23.43V-4.445q0-1.859-1.328-1.859a1.318,1.318,0,0,0-1.055.492,1.875,1.875,0,0,0-.414,1.25V0H-28.7V-8h2.469v1.266h.031A2.829,2.829,0,0,1-23.625-8.2q2.656,0,2.656,3.3Zm1.47-.211v-2a5.256,5.256,0,0,0,1.215.547,4.028,4.028,0,0,0,1.145.18,2.455,2.455,0,0,0,1.035-.18.581.581,0,0,0,.379-.547A.506.506,0,0,0-15.9-2.6a1.6,1.6,0,0,0-.441-.273,5.009,5.009,0,0,0-.59-.211q-.32-.094-.617-.211a5.913,5.913,0,0,1-.84-.387A2.427,2.427,0,0,1-19-4.164,1.889,1.889,0,0,1-19.37-4.8a2.525,2.525,0,0,1-.129-.852A2.192,2.192,0,0,1-19.206-6.8a2.393,2.393,0,0,1,.781-.793,3.57,3.57,0,0,1,1.117-.453A5.825,5.825,0,0,1-16-8.2a7.261,7.261,0,0,1,1.078.082,8.047,8.047,0,0,1,1.078.238v1.906a3.9,3.9,0,0,0-1-.41A4.235,4.235,0,0,0-15.9-6.516a2.328,2.328,0,0,0-.457.043,1.505,1.505,0,0,0-.379.125.7.7,0,0,0-.258.211.486.486,0,0,0-.094.293.541.541,0,0,0,.141.375,1.221,1.221,0,0,0,.367.27,3.625,3.625,0,0,0,.5.2q.277.09.551.184a7.161,7.161,0,0,1,.891.375,2.848,2.848,0,0,1,.684.477,1.872,1.872,0,0,1,.438.641,2.277,2.277,0,0,1,.152.875,2.282,2.282,0,0,1-.309,1.215,2.471,2.471,0,0,1-.82.82,3.72,3.72,0,0,1-1.18.461A6.54,6.54,0,0,1-17.054.2,7.149,7.149,0,0,1-19.5-.211Zm8.853-9.055a1.442,1.442,0,0,1-1.023-.371,1.2,1.2,0,0,1-.4-.91,1.153,1.153,0,0,1,.4-.906,1.49,1.49,0,0,1,1.023-.352,1.486,1.486,0,0,1,1.027.352,1.158,1.158,0,0,1,.395.906,1.191,1.191,0,0,1-.395.922A1.466,1.466,0,0,1-10.646-9.266ZM-9.428,0H-11.9V-8h2.469ZM-3.5.2A4.3,4.3,0,0,1-6.642-.926,4.064,4.064,0,0,1-7.786-3.969,4.065,4.065,0,0,1-6.6-7.074,4.487,4.487,0,0,1-3.388-8.2,4.249,4.249,0,0,1-.263-7.074,3.985,3.985,0,0,1,.87-4.109,4.23,4.23,0,0,1-.3-.961,4.348,4.348,0,0,1-3.5.2Zm.063-6.5a1.647,1.647,0,0,0-1.359.6A2.653,2.653,0,0,0-5.278-4q0,2.3,1.859,2.3,1.773,0,1.773-2.367Q-1.645-6.3-3.435-6.3Zm2.648-5.484L-3.231-9.266H-5.013l2.031-2.523ZM10.23,0H7.77V-4.445Q7.77-6.3,6.441-6.3a1.318,1.318,0,0,0-1.055.492,1.875,1.875,0,0,0-.414,1.25V0H2.5V-8H4.973v1.266H5A2.829,2.829,0,0,1,7.574-8.2q2.656,0,2.656,3.3ZM21.412,2.547H19.4a9.8,9.8,0,0,1-2.523-6.836A10.428,10.428,0,0,1,19.4-11.2h2a11.228,11.228,0,0,0-2.367,6.914A10.859,10.859,0,0,0,21.412,2.547Zm7.127-2.3.344-8.859q.023-.773.023-.812a.853.853,0,0,0-.207-.633,1.218,1.218,0,0,0-.762-.242l.094-.289h4.453L32.4-10.3a1.071,1.071,0,0,0-.863.344,2.531,2.531,0,0,0-.34,1.422l-.25,5.523,4.133-4.8A8.781,8.781,0,0,0,36.07-9.1a1.4,1.4,0,0,0,.188-.625.455.455,0,0,0-.172-.348,1.364,1.364,0,0,0-.656-.23l.109-.289h2.922v.289a1.65,1.65,0,0,0-.609.273,8.278,8.278,0,0,0-1.062,1.094L28.883.242Zm14.1,2.3h-2a10.8,10.8,0,0,0,2.391-6.836A11.2,11.2,0,0,0,40.642-11.2h2.016a10.428,10.428,0,0,1,2.531,6.914A9.82,9.82,0,0,1,42.642,2.547ZM-14.14,12.8-18.288,24h-1.445L-23.8,12.8h1.461l3.1,8.883a5.274,5.274,0,0,1,.227.992h.031a4.866,4.866,0,0,1,.258-1.008l3.164-8.867Zm3.806,11.391a3.711,3.711,0,0,1-2.832-1.121,4.153,4.153,0,0,1-1.059-2.973,4.326,4.326,0,0,1,1.1-3.148,3.96,3.96,0,0,1,2.977-1.133,3.588,3.588,0,0,1,2.793,1.1,4.368,4.368,0,0,1,1,3.055,4.3,4.3,0,0,1-1.082,3.066A3.791,3.791,0,0,1-10.334,24.188Zm.094-7.3a2.437,2.437,0,0,0-1.953.84,3.449,3.449,0,0,0-.719,2.316,3.262,3.262,0,0,0,.727,2.242,2.469,2.469,0,0,0,1.945.82,2.342,2.342,0,0,0,1.91-.8,3.492,3.492,0,0,0,.668-2.289A3.552,3.552,0,0,0-8.33,17.7,2.332,2.332,0,0,0-10.24,16.891ZM-2.981,24H-4.263V12.156h1.281Zm6.345-.078a2.47,2.47,0,0,1-1.2.25q-2.1,0-2.1-2.344V17.094H-1.309V16H.066V14.047l1.281-.414V16H3.363v1.094H1.348V21.6a1.869,1.869,0,0,0,.273,1.148,1.091,1.091,0,0,0,.906.344,1.347,1.347,0,0,0,.836-.266ZM5.77,13.969a.812.812,0,0,1-.586-.234.791.791,0,0,1-.242-.594A.821.821,0,0,1,5.77,12.3a.827.827,0,0,1,.6.238.835.835,0,0,1,0,1.184A.82.82,0,0,1,5.77,13.969ZM6.4,24H5.114V16H6.4Zm5.978.188a3.711,3.711,0,0,1-2.832-1.121,4.153,4.153,0,0,1-1.059-2.973,4.326,4.326,0,0,1,1.1-3.148,3.96,3.96,0,0,1,2.977-1.133,3.588,3.588,0,0,1,2.793,1.1,4.368,4.368,0,0,1,1,3.055,4.3,4.3,0,0,1-1.082,3.066A3.791,3.791,0,0,1,12.373,24.188Zm.094-7.3a2.437,2.437,0,0,0-1.953.84,3.449,3.449,0,0,0-.719,2.316,3.262,3.262,0,0,0,.727,2.242,2.469,2.469,0,0,0,1.945.82,2.342,2.342,0,0,0,1.91-.8,3.492,3.492,0,0,0,.668-2.289,3.552,3.552,0,0,0-.668-2.312A2.332,2.332,0,0,0,12.467,16.891Zm5.493,6.82V22.336a3.792,3.792,0,0,0,2.3.773q1.688,0,1.688-1.125a.976.976,0,0,0-.145-.543,1.44,1.44,0,0,0-.391-.395,3.007,3.007,0,0,0-.578-.309q-.332-.137-.715-.285a9.207,9.207,0,0,1-.934-.426,2.82,2.82,0,0,1-.672-.484,1.8,1.8,0,0,1-.406-.613,2.17,2.17,0,0,1-.137-.8,1.912,1.912,0,0,1,.258-1,2.286,2.286,0,0,1,.688-.727,3.206,3.206,0,0,1,.98-.441,4.349,4.349,0,0,1,1.137-.148,4.59,4.59,0,0,1,1.859.359v1.3a3.624,3.624,0,0,0-2.031-.578,2.374,2.374,0,0,0-.648.082,1.587,1.587,0,0,0-.5.23,1.065,1.065,0,0,0-.32.355.936.936,0,0,0-.113.457,1.1,1.1,0,0,0,.113.523,1.152,1.152,0,0,0,.332.375,2.538,2.538,0,0,0,.531.3q.313.133.711.289a9.9,9.9,0,0,1,.953.418,3.269,3.269,0,0,1,.719.484,1.893,1.893,0,0,1,.457.621,2,2,0,0,1,.16.836A1.971,1.971,0,0,1,23,22.891a2.243,2.243,0,0,1-.7.727,3.2,3.2,0,0,1-1.008.43,4.976,4.976,0,0,1-1.2.141A4.539,4.539,0,0,1,17.96,23.711Z" transform="translate(316.281 1781)" fill="#12263f"/>
    <path id="Trazado_1383816" data-name="Trazado 1383816" d="M-41.534-.4a7.388,7.388,0,0,1-3.2.594A5.4,5.4,0,0,1-48.792-1.32a5.54,5.54,0,0,1-1.477-4.039,5.919,5.919,0,0,1,1.66-4.359A5.807,5.807,0,0,1-44.3-11.391a8.058,8.058,0,0,1,2.766.414v2.43A4.9,4.9,0,0,0-44.1-9.219a3.4,3.4,0,0,0-2.547.992,3.682,3.682,0,0,0-.969,2.688,3.611,3.611,0,0,0,.914,2.59,3.229,3.229,0,0,0,2.461.965,5.249,5.249,0,0,0,2.7-.719ZM-35.97.2A4.3,4.3,0,0,1-39.115-.926,4.064,4.064,0,0,1-40.26-3.969a4.065,4.065,0,0,1,1.188-3.105A4.487,4.487,0,0,1-35.861-8.2a4.249,4.249,0,0,1,3.125,1.121A3.985,3.985,0,0,1-31.6-4.109,4.23,4.23,0,0,1-32.771-.961,4.348,4.348,0,0,1-35.97.2Zm.063-6.5a1.647,1.647,0,0,0-1.359.6A2.653,2.653,0,0,0-37.752-4q0,2.3,1.859,2.3,1.773,0,1.773-2.367Q-34.119-6.3-35.908-6.3Zm11.165.531a2.142,2.142,0,0,0-1.039-.242,1.5,1.5,0,0,0-1.258.59,2.573,2.573,0,0,0-.453,1.605V0h-2.469V-8h2.469v1.484h.031a2.136,2.136,0,0,1,2.109-1.625,1.59,1.59,0,0,1,.609.094Zm6.407,0a2.142,2.142,0,0,0-1.039-.242,1.5,1.5,0,0,0-1.258.59,2.573,2.573,0,0,0-.453,1.605V0h-2.469V-8h2.469v1.484h.031a2.136,2.136,0,0,1,2.109-1.625,1.59,1.59,0,0,1,.609.094Zm2.5-3.492a1.442,1.442,0,0,1-1.023-.371,1.2,1.2,0,0,1-.4-.91,1.153,1.153,0,0,1,.4-.906,1.49,1.49,0,0,1,1.023-.352,1.486,1.486,0,0,1,1.027.352,1.158,1.158,0,0,1,.395.906,1.191,1.191,0,0,1-.395.922A1.466,1.466,0,0,1-15.835-9.266ZM-14.616,0h-2.469V-8h2.469ZM-5.31-3.3h-5.219q.125,1.742,2.2,1.742a4.286,4.286,0,0,0,2.32-.625V-.4A6.1,6.1,0,0,1-8.9.2,4.058,4.058,0,0,1-11.9-.879a4.058,4.058,0,0,1-1.07-3,4.281,4.281,0,0,1,1.156-3.156A3.852,3.852,0,0,1-8.975-8.2,3.5,3.5,0,0,1-6.268-7.156a4,4,0,0,1,.957,2.82ZM-7.6-4.812q0-1.719-1.391-1.719a1.328,1.328,0,0,0-1.027.492,2.234,2.234,0,0,0-.527,1.227ZM3.925,0H1.464V-4.445Q1.464-6.3.136-6.3a1.318,1.318,0,0,0-1.055.492,1.875,1.875,0,0,0-.414,1.25V0H-3.8V-8h2.469v1.266H-1.3A2.829,2.829,0,0,1,1.269-8.2q2.656,0,2.656,3.3Zm6.829-.094A3.649,3.649,0,0,1,9.105.2Q6.5.2,6.5-2.516V-6.18H5.2V-8H6.5V-9.727l2.461-.7V-8h1.8v1.82h-1.8v3.234q0,1.25.992,1.25a1.673,1.673,0,0,0,.8-.227ZM19.31-3.3H14.091q.125,1.742,2.2,1.742a4.286,4.286,0,0,0,2.32-.625V-.4A6.1,6.1,0,0,1,15.724.2,4.058,4.058,0,0,1,12.716-.879a4.058,4.058,0,0,1-1.07-3A4.281,4.281,0,0,1,12.8-7.031,3.852,3.852,0,0,1,15.645-8.2a3.5,3.5,0,0,1,2.707,1.039,4,4,0,0,1,.957,2.82ZM17.02-4.812q0-1.719-1.391-1.719a1.328,1.328,0,0,0-1.027.492,2.234,2.234,0,0,0-.527,1.227ZM30.007,2.547H27.991a9.8,9.8,0,0,1-2.523-6.836A10.428,10.428,0,0,1,27.991-11.2h2a11.228,11.228,0,0,0-2.367,6.914A10.859,10.859,0,0,0,30.007,2.547ZM36.845-10.3l.086-.289H42.1L42-10.3a1.626,1.626,0,0,0-1.074.313,2.715,2.715,0,0,0-.652,1.3L38.337-1.906a4.361,4.361,0,0,0-.211.961.507.507,0,0,0,.219.438,2.017,2.017,0,0,0,1.063.219L39.329,0H34.071l.086-.289a1.813,1.813,0,0,0,1.156-.3,2.758,2.758,0,0,0,.664-1.316L37.93-8.687a3.77,3.77,0,0,0,.18-.945.535.535,0,0,0-.219-.453A2.324,2.324,0,0,0,36.845-10.3ZM47.081,2.547h-2a10.8,10.8,0,0,0,2.391-6.836A11.2,11.2,0,0,0,45.081-11.2H47.1a10.428,10.428,0,0,1,2.531,6.914A9.82,9.82,0,0,1,47.081,2.547ZM-23.738,24h-1.453l-1.187-3.141h-4.75L-32.245,24h-1.461l4.3-11.2h1.359Zm-3.07-4.32-1.758-4.773a4.571,4.571,0,0,1-.172-.75h-.031a4.185,4.185,0,0,1-.18.75l-1.742,4.773ZM-10.862,24h-1.281V19.406a3.466,3.466,0,0,0-.41-1.922,1.555,1.555,0,0,0-1.379-.594,1.708,1.708,0,0,0-1.395.75,2.869,2.869,0,0,0-.574,1.8V24h-1.281V19.25q0-2.359-1.82-2.359a1.686,1.686,0,0,0-1.391.707,2.923,2.923,0,0,0-.547,1.84V24h-1.281V16h1.281v1.266h.031a2.718,2.718,0,0,1,2.484-1.453,2.316,2.316,0,0,1,1.43.457,2.3,2.3,0,0,1,.836,1.2A2.855,2.855,0,0,1-13.5,15.813q2.641,0,2.641,3.258Zm3.774-1.156h-.031V27.68H-8.4V16h1.281v1.406h.031a3.03,3.03,0,0,1,2.766-1.594,2.93,2.93,0,0,1,2.414,1.074,4.449,4.449,0,0,1,.867,2.879,4.959,4.959,0,0,1-.977,3.215,3.251,3.251,0,0,1-2.672,1.207A2.676,2.676,0,0,1-7.087,22.844Zm-.031-3.227v1.117a2.379,2.379,0,0,0,.645,1.684,2.14,2.14,0,0,0,1.637.691,2.145,2.145,0,0,0,1.824-.891,4.086,4.086,0,0,0,.66-2.477,3.225,3.225,0,0,0-.617-2.094,2.043,2.043,0,0,0-1.672-.758,2.27,2.27,0,0,0-1.8.777A2.854,2.854,0,0,0-7.119,19.617Zm14.595.7H1.828a2.992,2.992,0,0,0,.719,2.063,2.478,2.478,0,0,0,1.891.727,3.931,3.931,0,0,0,2.484-.891v1.2a4.643,4.643,0,0,1-2.789.766A3.381,3.381,0,0,1,1.468,23.1,4.461,4.461,0,0,1,.5,20.031a4.375,4.375,0,0,1,1.059-3.043,3.394,3.394,0,0,1,2.629-1.176,3.008,3.008,0,0,1,2.43,1.016,4.234,4.234,0,0,1,.859,2.82ZM6.164,19.234a2.607,2.607,0,0,0-.535-1.727,1.823,1.823,0,0,0-1.465-.617,2.07,2.07,0,0,0-1.539.648,2.943,2.943,0,0,0-.781,1.7ZM13.625,17.3a1.567,1.567,0,0,0-.969-.258,1.635,1.635,0,0,0-1.371.773,3.576,3.576,0,0,0-.551,2.109V24H9.454V16h1.281v1.648h.031a2.793,2.793,0,0,1,.836-1.316,1.906,1.906,0,0,1,1.258-.473,2.092,2.092,0,0,1,.766.109Zm2.087-3.328a.812.812,0,0,1-.586-.234.791.791,0,0,1-.242-.594.821.821,0,0,1,.828-.836.827.827,0,0,1,.6.238.835.835,0,0,1,0,1.184A.82.82,0,0,1,15.712,13.969ZM16.337,24H15.056V16h1.281Zm5.978.188a3.711,3.711,0,0,1-2.832-1.121,4.153,4.153,0,0,1-1.059-2.973,4.326,4.326,0,0,1,1.1-3.148A3.96,3.96,0,0,1,22.5,15.813a3.588,3.588,0,0,1,2.793,1.1,4.368,4.368,0,0,1,1,3.055,4.3,4.3,0,0,1-1.082,3.066A3.791,3.791,0,0,1,22.315,24.188Zm.094-7.3a2.437,2.437,0,0,0-1.953.84,3.449,3.449,0,0,0-.719,2.316,3.262,3.262,0,0,0,.727,2.242,2.469,2.469,0,0,0,1.945.82,2.342,2.342,0,0,0,1.91-.8,3.492,3.492,0,0,0,.668-2.289,3.552,3.552,0,0,0-.668-2.312A2.332,2.332,0,0,0,22.409,16.891Zm5.493,6.82V22.336a3.792,3.792,0,0,0,2.3.773q1.688,0,1.688-1.125a.976.976,0,0,0-.145-.543,1.44,1.44,0,0,0-.391-.395,3.007,3.007,0,0,0-.578-.309q-.332-.137-.715-.285a9.207,9.207,0,0,1-.934-.426,2.82,2.82,0,0,1-.672-.484,1.8,1.8,0,0,1-.406-.613,2.17,2.17,0,0,1-.137-.8,1.912,1.912,0,0,1,.258-1,2.286,2.286,0,0,1,.688-.727,3.206,3.206,0,0,1,.98-.441,4.349,4.349,0,0,1,1.137-.148,4.59,4.59,0,0,1,1.859.359v1.3a3.624,3.624,0,0,0-2.031-.578,2.374,2.374,0,0,0-.648.082,1.587,1.587,0,0,0-.5.23,1.065,1.065,0,0,0-.32.355.936.936,0,0,0-.113.457,1.1,1.1,0,0,0,.113.523,1.152,1.152,0,0,0,.332.375,2.538,2.538,0,0,0,.531.3q.313.133.711.289a9.9,9.9,0,0,1,.953.418,3.269,3.269,0,0,1,.719.484,1.893,1.893,0,0,1,.457.621,2,2,0,0,1,.16.836,1.971,1.971,0,0,1-.262,1.031,2.243,2.243,0,0,1-.7.727,3.2,3.2,0,0,1-1.008.43,4.976,4.976,0,0,1-1.2.141A4.539,4.539,0,0,1,27.9,23.711Z" transform="translate(487.281 1781)" fill="#12263f"/>
    <path id="Trazado_1383817" data-name="Trazado 1383817" d="M-45.6-3.859V0h-2.523V-11.2h3.953q4.234,0,4.234,3.57A3.426,3.426,0,0,1-41.151-4.9,4.813,4.813,0,0,1-44.4-3.859Zm0-5.406v3.492h.992q2.016,0,2.016-1.766,0-1.727-2.016-1.727ZM-35.161.2A4.3,4.3,0,0,1-38.306-.926,4.064,4.064,0,0,1-39.45-3.969a4.065,4.065,0,0,1,1.188-3.105A4.487,4.487,0,0,1-35.052-8.2a4.249,4.249,0,0,1,3.125,1.121,3.985,3.985,0,0,1,1.133,2.965A4.23,4.23,0,0,1-31.962-.961,4.348,4.348,0,0,1-35.161.2Zm.063-6.5a1.647,1.647,0,0,0-1.359.6A2.653,2.653,0,0,0-36.943-4q0,2.3,1.859,2.3,1.773,0,1.773-2.367Q-33.31-6.3-35.1-6.3ZM-24.317-.094A3.649,3.649,0,0,1-25.965.2q-2.609,0-2.609-2.711V-6.18h-1.3V-8h1.3V-9.727l2.461-.7V-8h1.8v1.82h-1.8v3.234q0,1.25.992,1.25a1.673,1.673,0,0,0,.8-.227Zm8.556-3.2H-20.98q.125,1.742,2.2,1.742a4.286,4.286,0,0,0,2.32-.625V-.4A6.1,6.1,0,0,1-19.347.2,4.058,4.058,0,0,1-22.355-.879a4.058,4.058,0,0,1-1.07-3,4.281,4.281,0,0,1,1.156-3.156A3.852,3.852,0,0,1-19.425-8.2a3.5,3.5,0,0,1,2.707,1.039,4,4,0,0,1,.957,2.82ZM-18.05-4.812q0-1.719-1.391-1.719a1.328,1.328,0,0,0-1.027.492A2.234,2.234,0,0,0-21-4.812ZM-6.526,0H-8.987V-4.445q0-1.859-1.328-1.859a1.318,1.318,0,0,0-1.055.492,1.875,1.875,0,0,0-.414,1.25V0h-2.469V-8h2.469v1.266h.031A2.829,2.829,0,0,1-9.182-8.2q2.656,0,2.656,3.3ZM1.53-.289A4.881,4.881,0,0,1-.884.2,4.083,4.083,0,0,1-3.869-.922,3.859,3.859,0,0,1-5.009-3.8,4.251,4.251,0,0,1-3.787-7.02,4.518,4.518,0,0,1-.517-8.2,4.2,4.2,0,0,1,1.53-7.82v2.094A2.814,2.814,0,0,0-.2-6.3a2.275,2.275,0,0,0-1.684.621A2.317,2.317,0,0,0-2.5-3.969,2.28,2.28,0,0,0-1.908-2.3,2.182,2.182,0,0,0-.275-1.7a3.258,3.258,0,0,0,1.8-.578ZM4.437-9.266a1.442,1.442,0,0,1-1.023-.371,1.2,1.2,0,0,1-.4-.91,1.153,1.153,0,0,1,.4-.906A1.49,1.49,0,0,1,4.437-11.8a1.486,1.486,0,0,1,1.027.352,1.158,1.158,0,0,1,.395.906,1.191,1.191,0,0,1-.395.922A1.466,1.466,0,0,1,4.437-9.266ZM5.656,0H3.187V-8H5.656ZM14.43,0H12.094V-1.148h-.031A2.607,2.607,0,0,1,9.68.2a2.492,2.492,0,0,1-1.832-.66A2.366,2.366,0,0,1,7.18-2.227q0-2.328,2.758-2.687L12.11-5.2q0-1.312-1.422-1.312a4.853,4.853,0,0,0-2.719.852V-7.523a6.116,6.116,0,0,1,1.41-.469,7.413,7.413,0,0,1,1.629-.2q3.422,0,3.422,3.414ZM12.11-3.25v-.539L10.657-3.6q-1.2.156-1.2,1.086a.9.9,0,0,0,.293.691,1.126,1.126,0,0,0,.793.27,1.462,1.462,0,0,0,1.133-.48A1.735,1.735,0,0,0,12.11-3.25Zm13.5,5.8H23.6a9.8,9.8,0,0,1-2.523-6.836A10.428,10.428,0,0,1,23.6-11.2h2a11.228,11.228,0,0,0-2.367,6.914A10.859,10.859,0,0,0,25.612,2.547Zm9.166-7.414-.859,2.953a3.77,3.77,0,0,0-.18.883.648.648,0,0,0,.234.543,2.028,2.028,0,0,0,1.063.2l-.1.289H29.762l.086-.289a2.6,2.6,0,0,0,.93-.129,1.044,1.044,0,0,0,.453-.395,4.857,4.857,0,0,0,.4-1.1L33.59-8.641a3.869,3.869,0,0,0,.2-.961.6.6,0,0,0-.258-.488A1.667,1.667,0,0,0,32.6-10.3l.086-.289h4.2a5.231,5.231,0,0,1,2.484.438,2.241,2.241,0,0,1,1.172,2.063,3.025,3.025,0,0,1-1.168,2.34,4.637,4.637,0,0,1-3.145,1.012A10.21,10.21,0,0,1,34.778-4.867Zm.156-.6a7.139,7.139,0,0,0,.844.063,1.909,1.909,0,0,0,1.7-.984,3.812,3.812,0,0,0,.617-2.055,1.535,1.535,0,0,0-.4-1.129,1.48,1.48,0,0,0-1.1-.4q-.148,0-.367.016ZM45.639,2.547h-2A10.8,10.8,0,0,0,46.03-4.289,11.2,11.2,0,0,0,43.639-11.2h2.016a10.428,10.428,0,0,1,2.531,6.914A9.82,9.82,0,0,1,45.639,2.547Zm-71.7,10.25L-30.207,24h-1.445l-4.062-11.2h1.461l3.1,8.883a5.274,5.274,0,0,1,.227.992h.031a4.866,4.866,0,0,1,.258-1.008l3.164-8.867ZM-20.027,24h-1.281V22.75h-.031A2.682,2.682,0,0,1-23.8,24.188a2.63,2.63,0,0,1-1.871-.633,2.192,2.192,0,0,1-.676-1.68q0-2.242,2.641-2.609l2.4-.336q0-2.039-1.648-2.039a3.938,3.938,0,0,0-2.609.984V16.563a4.958,4.958,0,0,1,2.719-.75q2.82,0,2.82,2.984Zm-1.281-4.047-1.93.266a3.133,3.133,0,0,0-1.344.441,1.273,1.273,0,0,0-.453,1.121,1.221,1.221,0,0,0,.418.957,1.615,1.615,0,0,0,1.113.371,2.056,2.056,0,0,0,1.574-.668,2.387,2.387,0,0,0,.621-1.691Zm7.446,3.969a2.47,2.47,0,0,1-1.2.25q-2.1,0-2.1-2.344V17.094h-1.375V16h1.375V14.047l1.281-.414V16h2.016v1.094h-2.016V21.6A1.869,1.869,0,0,0-15.6,22.75a1.091,1.091,0,0,0,.906.344,1.347,1.347,0,0,0,.836-.266Zm2.407-9.953a.812.812,0,0,1-.586-.234.791.791,0,0,1-.242-.594.8.8,0,0,1,.242-.6.8.8,0,0,1,.586-.238.827.827,0,0,1,.6.238.8.8,0,0,1,.246.6.792.792,0,0,1-.246.586A.82.82,0,0,1-11.455,13.969ZM-10.83,24h-1.281V16h1.281Zm5.978.188a3.711,3.711,0,0,1-2.832-1.121,4.153,4.153,0,0,1-1.059-2.973,4.326,4.326,0,0,1,1.1-3.148,3.96,3.96,0,0,1,2.977-1.133,3.588,3.588,0,0,1,2.793,1.1,4.368,4.368,0,0,1,1,3.055A4.3,4.3,0,0,1-1.95,23.035,3.791,3.791,0,0,1-4.852,24.188Zm.094-7.3a2.437,2.437,0,0,0-1.953.84,3.449,3.449,0,0,0-.719,2.316A3.262,3.262,0,0,0-6.7,22.289a2.469,2.469,0,0,0,1.945.82,2.342,2.342,0,0,0,1.91-.8,3.492,3.492,0,0,0,.668-2.289A3.552,3.552,0,0,0-2.848,17.7,2.332,2.332,0,0,0-4.758,16.891Zm5.493,6.82V22.336a3.792,3.792,0,0,0,2.3.773q1.688,0,1.688-1.125a.976.976,0,0,0-.145-.543,1.44,1.44,0,0,0-.391-.395,3.007,3.007,0,0,0-.578-.309q-.332-.137-.715-.285a9.207,9.207,0,0,1-.934-.426,2.82,2.82,0,0,1-.672-.484,1.8,1.8,0,0,1-.406-.613,2.17,2.17,0,0,1-.137-.8,1.912,1.912,0,0,1,.258-1A2.286,2.286,0,0,1,1.7,16.4a3.206,3.206,0,0,1,.98-.441,4.349,4.349,0,0,1,1.137-.148,4.59,4.59,0,0,1,1.859.359v1.3a3.624,3.624,0,0,0-2.031-.578,2.374,2.374,0,0,0-.648.082,1.587,1.587,0,0,0-.5.23,1.065,1.065,0,0,0-.32.355.936.936,0,0,0-.113.457,1.1,1.1,0,0,0,.113.523,1.152,1.152,0,0,0,.332.375,2.538,2.538,0,0,0,.531.3q.312.133.711.289a9.894,9.894,0,0,1,.953.418,3.269,3.269,0,0,1,.719.484,1.893,1.893,0,0,1,.457.621,2,2,0,0,1,.16.836,1.971,1.971,0,0,1-.262,1.031,2.243,2.243,0,0,1-.7.727,3.2,3.2,0,0,1-1.008.43,4.976,4.976,0,0,1-1.2.141A4.539,4.539,0,0,1,.735,23.711Zm15.1,2.836H14.69a9.984,9.984,0,0,1-2.422-6.82A10.362,10.362,0,0,1,14.69,12.8h1.156a10.529,10.529,0,0,0-2.453,6.914A10.345,10.345,0,0,0,15.83,26.547ZM30.792,12.8,27.628,24H26.089l-2.3-8.187a5.125,5.125,0,0,1-.18-1.141h-.031a5.787,5.787,0,0,1-.2,1.125L21.05,24H19.527L16.245,12.8h1.445l2.383,8.594a5.64,5.64,0,0,1,.188,1.125H20.3a6.641,6.641,0,0,1,.242-1.125L23.019,12.8h1.258l2.375,8.656a6.332,6.332,0,0,1,.188,1.047h.031a6.276,6.276,0,0,1,.211-1.078L29.37,12.8Zm1.563,13.75H31.215a10.345,10.345,0,0,0,2.438-6.836A10.529,10.529,0,0,0,31.2,12.8h1.156a10.321,10.321,0,0,1,2.438,6.93A9.945,9.945,0,0,1,32.356,26.547Z" transform="translate(658.281 1781)" fill="#12263f"/>
    <path id="Trazado_1383819" data-name="Trazado 1383819" d="M-31.671-6.084l-1.074,3.691a4.713,4.713,0,0,0-.225,1.1.81.81,0,0,0,.293.679,2.536,2.536,0,0,0,1.328.249L-31.475,0H-37.94l.107-.361a3.244,3.244,0,0,0,1.162-.161,1.305,1.305,0,0,0,.566-.493,6.072,6.072,0,0,0,.5-1.377l2.451-8.408A4.836,4.836,0,0,0-32.9-12a.747.747,0,0,0-.322-.61,2.084,2.084,0,0,0-1.172-.269l.107-.361h5.244a6.539,6.539,0,0,1,3.105.547,2.8,2.8,0,0,1,1.465,2.578,3.782,3.782,0,0,1-1.46,2.925,5.8,5.8,0,0,1-3.931,1.265A12.762,12.762,0,0,1-31.671-6.084Zm.2-.752a8.924,8.924,0,0,0,1.055.078A2.386,2.386,0,0,0-28.3-7.988a4.765,4.765,0,0,0,.771-2.568,1.919,1.919,0,0,0-.5-1.411,1.851,1.851,0,0,0-1.377-.5q-.186,0-.459.02Zm11.487-1.992H-9.3v1.27H-19.989Zm0,3.193H-9.3v1.27H-19.989ZM-1.51-12.881l.107-.361H5.063l-.127.361a2.033,2.033,0,0,0-1.343.391,3.394,3.394,0,0,0-.815,1.631L.356-2.383a5.451,5.451,0,0,0-.264,1.2.634.634,0,0,0,.273.547,2.522,2.522,0,0,0,1.328.273L1.6,0H-4.976l.107-.361A2.266,2.266,0,0,0-3.424-.737a3.447,3.447,0,0,0,.83-1.646l2.441-8.477a4.712,4.712,0,0,0,.225-1.182A.669.669,0,0,0-.2-12.607,2.9,2.9,0,0,0-1.51-12.881ZM7.707-7h-4.1v-.211q1.6-1.481,2.7-2.723a6.973,6.973,0,0,0,1.159-1.575,2.73,2.73,0,0,0,.236-1.1,1.135,1.135,0,0,0-.328-.843,1.114,1.114,0,0,0-.817-.325A1.614,1.614,0,0,0,5.2-12.9L4.99-13a3.13,3.13,0,0,1,.769-1.282,2.2,2.2,0,0,1,1.538-.6,1.9,1.9,0,0,1,1.359.507A1.568,1.568,0,0,1,9.194-13.2a2.761,2.761,0,0,1-.262,1.159,5.892,5.892,0,0,1-1.082,1.438q-.627.661-2.541,2.3H6.8A2.21,2.21,0,0,0,7.8-8.472a1.512,1.512,0,0,0,.538-.652h.268ZM20.576-9.687a4.148,4.148,0,0,0-.112-.859,5.619,5.619,0,0,0-.4-.908,2.316,2.316,0,0,1-.317-.957,1.127,1.127,0,0,1,.317-.791.941.941,0,0,1,.7-.342.98.98,0,0,1,.728.317,1.136,1.136,0,0,1,.308.825,2.143,2.143,0,0,1-.3.967,4.77,4.77,0,0,0-.386.864,5.114,5.114,0,0,0-.132.884,4.245,4.245,0,0,0,.781-.391,5.445,5.445,0,0,0,.693-.654,1.7,1.7,0,0,1,1.182-.654,1,1,0,0,1,.723.283.905.905,0,0,1,.293.674.976.976,0,0,1-.356.742,1.351,1.351,0,0,1-.942.322q-.186,0-.674-.029-.234-.01-.508-.01-.361,0-1.094.039a5.343,5.343,0,0,0,.654.659,5.713,5.713,0,0,0,.806.474,2.294,2.294,0,0,1,.815.625,1,1,0,0,1,.186.625.971.971,0,0,1-.283.708.924.924,0,0,1-.684.288,1.033,1.033,0,0,1-.757-.347,2.239,2.239,0,0,1-.464-1.235,4.651,4.651,0,0,0-.171-.84,4.828,4.828,0,0,0-.4-.771,5.12,5.12,0,0,0-.43.8,4.093,4.093,0,0,0-.186.811,2.234,2.234,0,0,1-.449,1.221,1.016,1.016,0,0,1-.752.332.965.965,0,0,1-.688-.273.871.871,0,0,1-.288-.654,1.172,1.172,0,0,1,.22-.7,2.457,2.457,0,0,1,.811-.635,8.419,8.419,0,0,0,.815-.493,6.649,6.649,0,0,0,.654-.6L19.443-9.4q-.273,0-.518.01-.576.039-.791.039a1.316,1.316,0,0,1-.908-.312.962.962,0,0,1-.352-.742.94.94,0,0,1,.288-.688.986.986,0,0,1,.728-.288,1.65,1.65,0,0,1,1.182.586,9.6,9.6,0,0,0,.732.713A4.662,4.662,0,0,0,20.576-9.687ZM35.314-6.465,34.142-2.451a4.936,4.936,0,0,0-.254,1.25.706.706,0,0,0,.3.6,2.433,2.433,0,0,0,1.26.244L35.314,0H28.937l.117-.361a2.167,2.167,0,0,0,1.4-.371,3.534,3.534,0,0,0,.815-1.66l2.461-8.5a4.346,4.346,0,0,0,.205-1.123.721.721,0,0,0-.254-.6,2.449,2.449,0,0,0-1.182-.273l.1-.361h5.488a5.139,5.139,0,0,1,3.311.82,2.652,2.652,0,0,1,.957,2.109,3.363,3.363,0,0,1-1.113,2.451,5.931,5.931,0,0,1-2.49,1.182l1.191,4.014a5.276,5.276,0,0,0,.835,1.943,1.816,1.816,0,0,0,1.187.361V0H37.844L35.969-6.465l-.322.02Q35.539-6.445,35.314-6.465Zm.137-.586q.342.02.576.02a3.075,3.075,0,0,0,2.344-.977,3.584,3.584,0,0,0,.918-2.559,1.932,1.932,0,0,0-.488-1.426,1.743,1.743,0,0,0-1.289-.488q-.2,0-.459.01Z" transform="translate(351.281 2167)" fill="#12263f"/>
    <path id="Trazado_1383820" data-name="Trazado 1383820" d="M-32.227-6.084-33.3-2.393a4.713,4.713,0,0,0-.225,1.1.81.81,0,0,0,.293.679A2.536,2.536,0,0,0-31.9-.361L-32.032,0H-38.5l.107-.361a3.244,3.244,0,0,0,1.162-.161,1.305,1.305,0,0,0,.566-.493,6.072,6.072,0,0,0,.5-1.377l2.451-8.408a4.836,4.836,0,0,0,.254-1.2.747.747,0,0,0-.322-.61,2.084,2.084,0,0,0-1.172-.269l.107-.361H-29.6a6.539,6.539,0,0,1,3.105.547,2.8,2.8,0,0,1,1.465,2.578,3.782,3.782,0,0,1-1.46,2.925,5.8,5.8,0,0,1-3.931,1.265A12.762,12.762,0,0,1-32.227-6.084Zm.2-.752a8.924,8.924,0,0,0,1.055.078,2.386,2.386,0,0,0,2.119-1.23,4.765,4.765,0,0,0,.771-2.568,1.919,1.919,0,0,0-.5-1.411,1.851,1.851,0,0,0-1.377-.5q-.186,0-.459.02Zm11.487-1.992H-9.862v1.27H-20.545Zm0,3.193H-9.862v1.27H-20.545ZM-1.7.3l.43-11.074q.029-.967.029-1.016a1.066,1.066,0,0,0-.259-.791,1.522,1.522,0,0,0-.952-.3l.117-.361H3.227l-.107.361a1.339,1.339,0,0,0-1.079.43,3.164,3.164,0,0,0-.425,1.777L1.3-3.77l5.166-6a10.976,10.976,0,0,0,1.24-1.611,1.747,1.747,0,0,0,.234-.781.569.569,0,0,0-.215-.435,1.705,1.705,0,0,0-.82-.288l.137-.361H10.7v.361a2.062,2.062,0,0,0-.762.342,10.347,10.347,0,0,0-1.328,1.367L-1.275.3ZM12.707-7h-4.1v-.211q1.6-1.481,2.7-2.723a6.973,6.973,0,0,0,1.159-1.575,2.73,2.73,0,0,0,.236-1.1,1.135,1.135,0,0,0-.328-.843,1.114,1.114,0,0,0-.817-.325A1.614,1.614,0,0,0,10.2-12.9L9.99-13a3.13,3.13,0,0,1,.769-1.282,2.2,2.2,0,0,1,1.538-.6,1.9,1.9,0,0,1,1.359.507,1.568,1.568,0,0,1,.538,1.173,2.761,2.761,0,0,1-.262,1.159,5.892,5.892,0,0,1-1.082,1.438q-.627.661-2.541,2.3H11.8A2.21,2.21,0,0,0,12.8-8.472a1.512,1.512,0,0,0,.538-.652h.268Zm15.056-6.516L19.238.3H17.851l8.535-13.818Zm8.108,7.051L34.7-2.451a4.936,4.936,0,0,0-.254,1.25.706.706,0,0,0,.3.6,2.433,2.433,0,0,0,1.26.244L35.871,0H29.494l.117-.361a2.167,2.167,0,0,0,1.4-.371,3.534,3.534,0,0,0,.815-1.66l2.461-8.5a4.346,4.346,0,0,0,.205-1.123.721.721,0,0,0-.254-.6,2.449,2.449,0,0,0-1.182-.273l.1-.361h5.488a5.139,5.139,0,0,1,3.311.82,2.652,2.652,0,0,1,.957,2.109A3.363,3.363,0,0,1,41.8-7.861a5.931,5.931,0,0,1-2.49,1.182L40.5-2.666a5.276,5.276,0,0,0,.835,1.943,1.816,1.816,0,0,0,1.187.361V0H38.4L36.525-6.465l-.322.02Q36.1-6.445,35.871-6.465Zm.137-.586q.342.02.576.02a3.075,3.075,0,0,0,2.344-.977,3.584,3.584,0,0,0,.918-2.559,1.932,1.932,0,0,0-.488-1.426,1.743,1.743,0,0,0-1.289-.488q-.2,0-.459.01Z" transform="translate(625.281 2167)" fill="#12263f"/>
    <path id="Trazado_1383648" data-name="Trazado 1383648" d="M.5,0V5.555c0,9.12,7.66,16.511,17.106,16.511H287.7l13.754,13.275,13.758-13.279H585.3c9.447,0,17.106-7.393,17.106-16.513V0" transform="translate(186.545 2092)" fill="none" stroke="#fe9341" stroke-linecap="round" stroke-miterlimit="10" stroke-width="2"/>
  </g>
</svg>
