<svg id="Grupo_1212863" data-name="Grupo 1212863" xmlns="http://www.w3.org/2000/svg" xmlns:xlink="http://www.w3.org/1999/xlink" width="68.996" height="76.311" viewBox="0 0 68.996 76.311">
  <defs>
    <clipPath id="clip-path">
      <rect id="Rectángulo_740092" data-name="Rectángulo 740092" width="68.996" height="76.311" fill="#17c1c1"/>
    </clipPath>
  </defs>
  <g id="Grupo_1212862" data-name="Grupo 1212862" clip-path="url(#clip-path)">
    <path id="Trazado_1383649" data-name="Trazado 1383649" d="M45.635,5.086l.793-2.911A1.7,1.7,0,0,0,45.635.191a1.6,1.6,0,0,0-1.984.4L41.137,3.895A34.586,34.586,0,0,0,19.708,6.806a1.686,1.686,0,1,0,1.455,3.042A30.381,30.381,0,0,1,38.756,6.938L10.315,43.05A1.678,1.678,0,0,0,11.638,45.7H30.951L24.734,67.785a30.858,30.858,0,0,1-12.17-7.54,31.553,31.553,0,0,1-1.719-42.594v.531a1.719,1.719,0,0,0,3.439,0v-4.63a1.75,1.75,0,0,0-1.719-1.721H7.934a1.72,1.72,0,0,0,0,3.44H8.6A34.783,34.783,0,0,0,10.184,62.76a35.169,35.169,0,0,0,13.624,8.466l-.794,2.911a1.7,1.7,0,0,0,.794,1.984,1.6,1.6,0,0,0,1.984-.4l2.512-3.307a35.1,35.1,0,0,0,23.679-4.1A1.658,1.658,0,0,0,50.4,65.406a31.162,31.162,0,0,1-19.578,3.968L59.127,33.129A1.676,1.676,0,0,0,57.8,30.483H38.491L44.708,8.26a30.873,30.873,0,0,1,12.17,7.54,31.3,31.3,0,0,1,2.778,41.139v-.265a1.719,1.719,0,1,0-3.439,0v5.292c0,.131,0,.131.132.131,0,.132,0,.132.131.132a.131.131,0,0,0,.132.134l.132.131c.132,0,0,0,.132.132.132,0,0,0,.132.132h.265c.4.132,0,0,5.027,0a1.719,1.719,0,0,0,0-3.439h-.927a34.83,34.83,0,0,0-2.514-46.3A34.349,34.349,0,0,0,45.635,5.086M34.787,31.542a1.694,1.694,0,0,0,1.587,2.115H54.5l-26.06,33.2,6.217-22.354a1.7,1.7,0,0,0-1.587-2.118H14.946L41,9.186Z" transform="translate(0 0)" fill="#17c1c1"/>
  </g>
</svg>
