<svg xmlns="http://www.w3.org/2000/svg" xmlns:xlink="http://www.w3.org/1999/xlink" width="58.9" height="59.213" viewBox="0 0 58.9 59.213">
  <defs>
    <clipPath id="clip-path">
      <rect id="Rectángulo_739958" data-name="Rectángulo 739958" width="58.9" height="59.213" fill="#034cad"/>
    </clipPath>
  </defs>
  <g id="Grupo_1212636" data-name="Grupo 1212636" transform="translate(0 0)">
    <g id="Grupo_1212635" data-name="Grupo 1212635" transform="translate(0 0)" clip-path="url(#clip-path)">
      <path id="Trazado_1383378" data-name="Trazado 1383378" d="M46.906,10.511a.946.946,0,0,1-.52-.1l-6.035-2.6a1.278,1.278,0,0,1-.728-1.145V1.249A1.265,1.265,0,0,1,40.872,0h6.034a1.265,1.265,0,0,1,1.249,1.249v7.91a1.28,1.28,0,0,1-.52,1.04,1.377,1.377,0,0,1-.729.312m-4.89-4.579,3.643,1.561V2.6H42.016Z" transform="translate(1.275 0)" fill="#034cad"/>
      <path id="Trazado_1383379" data-name="Trazado 1383379" d="M57.756,20.6a.624.624,0,0,1-.416-.1L29.45,11.027,1.561,20.5a.956.956,0,0,1-1.04-.207A1.241,1.241,0,0,1,0,19.351V13.315a1.277,1.277,0,0,1,.728-1.144L28.931.2a1.44,1.44,0,0,1,.936,0L58.173,12.275A1.28,1.28,0,0,1,58.9,13.42v6.035a1.089,1.089,0,0,1-.52.936.88.88,0,0,1-.624.208M2.289,14.148v3.538L29.034,8.633a.888.888,0,0,1,.729,0l26.849,9.053V14.148L29.45,2.6Z" transform="translate(0 0.004)" fill="#034cad"/>
      <path id="Trazado_1383380" data-name="Trazado 1383380" d="M49.067,50.517H28.462a1.276,1.276,0,0,1-1.144-.729,1.305,1.305,0,0,1,.207-1.352l8.95-9.47-5.932-.833a1.078,1.078,0,0,1-.833-.624,1.232,1.232,0,0,1-.1-1.04L31.9,31.161h-5.62l-5.1,11.968h5.412a1.278,1.278,0,0,1,1.04.52,1.47,1.47,0,0,1,.1,1.144l-2.289,4.893a1.28,1.28,0,0,1-1.145.728H9.315a1.265,1.265,0,0,1-1.249-1.248V16.7A1.217,1.217,0,0,1,8.9,15.551L28.775,8.37a1.139,1.139,0,0,1,.833,0l19.877,6.765a1.216,1.216,0,0,1,.832,1.144V49.268a1.2,1.2,0,0,1-1.249,1.249M31.272,48.124H47.818V17.112L29.19,10.764,10.46,17.528v30.6H23.571l1.145-2.5H19.409a1.278,1.278,0,0,1-1.04-.52,1.113,1.113,0,0,1-.1-1.145L24.508,29.5a1.282,1.282,0,0,1,1.146-.729h8.221a1.279,1.279,0,0,1,1.039.52,1.117,1.117,0,0,1,.105,1.145l-2.394,5.516,6.66.936a1.275,1.275,0,0,1,.937.833,1.37,1.37,0,0,1-.313,1.249Z" transform="translate(0.26 0.267)" fill="#034cad"/>
      <path id="Trazado_1383381" data-name="Trazado 1383381" d="M20.131,58.308a1.111,1.111,0,0,1-.624-.207,1.154,1.154,0,0,1-.417-1.457L24.5,44.988H19.2a1.282,1.282,0,0,1-1.041-.52,1.117,1.117,0,0,1-.1-1.145L24.19,28.858a1.281,1.281,0,0,1,1.145-.729h8.221a1.281,1.281,0,0,1,1.04.52,1.117,1.117,0,0,1,.105,1.145L32.307,35.31l6.66.936a1.275,1.275,0,0,1,.938.833,1.37,1.37,0,0,1-.313,1.249L21.069,57.892a1.272,1.272,0,0,1-.937.416m.833-15.817h5.307a1.276,1.276,0,0,1,1.039.52,1.466,1.466,0,0,1,.105,1.144l-3.122,6.765L36.261,38.328l-5.932-.833a1.078,1.078,0,0,1-.832-.624,1.229,1.229,0,0,1-.1-1.04l2.29-5.307H26.062Z" transform="translate(0.577 0.905)" fill="#034cad"/>
      <path id="Trazado_1383382" data-name="Trazado 1383382" d="M9.5,49.279H3.466a1.249,1.249,0,0,1,0-2.5H9.5a1.266,1.266,0,0,1,1.249,1.249A1.341,1.341,0,0,1,9.5,49.279" transform="translate(0.071 1.505)" fill="#034cad"/>
      <path id="Trazado_1383383" data-name="Trazado 1383383" d="M53.864,49.279H47.828a1.249,1.249,0,1,1,0-2.5h6.036a1.249,1.249,0,0,1,0,2.5" transform="translate(1.499 1.505)" fill="#034cad"/>
      <path id="Trazado_1383384" data-name="Trazado 1383384" d="M29.325,26.187a6.036,6.036,0,1,1,6.036-6.036,6.04,6.04,0,0,1-6.036,6.036m0-9.679a3.643,3.643,0,1,0,3.643,3.643,3.687,3.687,0,0,0-3.643-3.643" transform="translate(0.749 0.454)" fill="#034cad"/>
    </g>
  </g>
</svg>
