<svg xmlns="http://www.w3.org/2000/svg" xmlns:xlink="http://www.w3.org/1999/xlink" width="294.421" height="222.382" viewBox="0 0 294.421 222.382">
  <defs>
    <clipPath id="clip-path">
      <rect id="Rectángulo_739102" data-name="Rectángulo 739102" width="23.399" height="2.363" fill="none"/>
    </clipPath>
    <clipPath id="clip-path-2">
      <rect id="Rectángulo_739104" data-name="Rectángulo 739104" width="23.399" height="2.362" fill="none"/>
    </clipPath>
    <clipPath id="clip-path-3">
      <rect id="Rectángulo_739106" data-name="Rectángulo 739106" width="23.399" height="2.36" fill="none"/>
    </clipPath>
  </defs>
  <g id="Grupo_1212124" data-name="Grupo 1212124" transform="translate(-184.993 -1317.74)">
    <path id="Trazado_1378392" data-name="Trazado 1378392" d="M0,92.635V0L150.892,1V78.1" transform="translate(472.096 1333.742) rotate(90)" fill="none" stroke="#fe9341" stroke-linecap="round" stroke-width="2"/>
    <path id="Trazado_1378393" data-name="Trazado 1378393" d="M1.322,84V0L150.527,1.039V104.7" transform="translate(186 1484.768) rotate(-90)" fill="none" stroke="#fe9341" stroke-linecap="round" stroke-width="2"/>
    <path id="Trazado_1378394" data-name="Trazado 1378394" d="M0,0,6.312,6.312,12.624,0" transform="translate(217.728 1489.757) rotate(-90)" fill="none" stroke="#fe9341" stroke-linecap="round" stroke-linejoin="round" stroke-width="2"/>
    <path id="Trazado_1378395" data-name="Trazado 1378395" d="M0,0,6.312,6.312,12.624,0" transform="translate(478 1438.053) rotate(180)" fill="none" stroke="#fe9341" stroke-linecap="round" stroke-linejoin="round" stroke-width="2"/>
    <path id="Trazado_1378396" data-name="Trazado 1378396" d="M0,6.312,6.312,0l6.312,6.312" transform="translate(226.697 1340.519) rotate(-90)" fill="none" stroke="#fe9341" stroke-linecap="round" stroke-linejoin="round" stroke-width="2"/>
    <path id="Trazado_1378397" data-name="Trazado 1378397" d="M0,0,6.312,6.312,12.624,0" transform="translate(386.132 1327.648) rotate(90)" fill="none" stroke="#fe9341" stroke-linecap="round" stroke-linejoin="round" stroke-width="2"/>
    <g id="Grupo_1212122" data-name="Grupo 1212122" transform="translate(373.302 1317.74) rotate(90)">
      <rect id="Rectángulo_739107" data-name="Rectángulo 739107" width="32.934" height="68.279" transform="translate(0 0)" fill="#4a3c48"/>
      <rect id="Rectángulo_739108" data-name="Rectángulo 739108" width="19.946" height="14.97" transform="translate(6.494 7.15)" fill="#e84a4a"/>
      <rect id="Rectángulo_739110" data-name="Rectángulo 739110" width="19.946" height="14.968" transform="translate(6.494 47.067)" fill="#80c41c"/>
      <rect id="Rectángulo_739111" data-name="Rectángulo 739111" width="17.717" height="6.763" transform="translate(7.608 68.278)" fill="#bafbfb"/>
    </g>
    <g id="Grupo_1212121" data-name="Grupo 1212121" transform="translate(0.294 493.74)">
      <line id="Línea_3478" data-name="Línea 3478" x1="24.863" transform="translate(223.133 866.848)" fill="none" stroke="#12263f" stroke-linecap="round" stroke-width="1"/>
      <path id="Polígono_12" data-name="Polígono 12" d="M2.436,0,4.871,10.96H0Z" transform="translate(217.435 869.215) rotate(-90)" fill="#12263f"/>
    </g>
    <g id="Grupo_1212888" data-name="Grupo 1212888">
      <path id="Trazado_1383730" data-name="Trazado 1383730" d="M3.234-14.891h-6.41v2.59h6.41Z" transform="translate(349.257 1334.207) rotate(90)" fill="#fff"/>
      <path id="Trazado_1383728" data-name="Trazado 1383728" d="M4.289-9.737H.905v-3.384H-.87v3.384h-3.4v1.784h3.4v3.4H.905v-3.4H4.289Z" transform="translate(312.525 1333.74) rotate(90)" fill="#fff"/>
      <path id="Trazado_1383729" data-name="Trazado 1383729" d="M-1.015-11.593l.1-.325H4.9l-.114.325a1.83,1.83,0,0,0-1.208.352,3.054,3.054,0,0,0-.734,1.468L.664-2.145A4.906,4.906,0,0,0,.426-1.063a.57.57,0,0,0,.246.492,2.269,2.269,0,0,0,1.2.246L1.78,0H-4.135l.1-.325a2.04,2.04,0,0,0,1.3-.338,3.1,3.1,0,0,0,.747-1.481l2.2-7.629a4.241,4.241,0,0,0,.2-1.063.6.6,0,0,0-.246-.51A2.614,2.614,0,0,0-1.015-11.593Z" transform="translate(236.009 1380.74)" fill="#12263f"/>
    </g>
    <g id="Rectángulo_739686" data-name="Rectángulo 739686" transform="translate(270.496 1438)" fill="none" stroke="#fe9341" stroke-width="2">
      <rect width="124" height="94" stroke="none"/>
      <rect x="1" y="1" width="122" height="92" fill="none"/>
    </g>
    <g id="Grupo_1212116" data-name="Grupo 1212116" transform="translate(309.496 1471.74)">
      <path id="Trazado_1370519" data-name="Trazado 1370519" d="M46.922,23.467a23.343,23.343,0,0,1-5.5,15.084h-.01a.1.1,0,0,1-.04.051.379.379,0,0,1-.109.118,1.516,1.516,0,0,0-.12.151c-2.544,3.243-2.407,13.275-6.839,13.275H12.618c-4.446,0-4.3-10.032-6.844-13.275a1.245,1.245,0,0,0-.117-.151,1.227,1.227,0,0,1-.109-.118.089.089,0,0,1-.04-.051H5.5A23.461,23.461,0,1,1,46.922,23.467" transform="translate(0 0)" fill="#ffb822"/>
      <rect id="Rectángulo_739098" data-name="Rectángulo 739098" width="2.813" height="25.949" transform="translate(14.99 27.097) rotate(-7.03)" fill="#f2f2f2"/>
      <rect id="Rectángulo_739099" data-name="Rectángulo 739099" width="25.949" height="2.814" transform="translate(25.686 52.507) rotate(-82.972)" fill="#f2f2f2"/>
      <path id="Trazado_1370520" data-name="Trazado 1370520" d="M16.2,25.175c-.864-1.288-1.55-2.721-.954-4.277q2.83-2.32,4.086-.322a4.966,4.966,0,0,1,.7,2.369c.258-.263.517-.528.772-.792-1.308.384-.037-2.754.1-3.01,1.139-2.04,2.86.372,3.348,1.05.006.01,1.138,2.3.644,2.484L26,22.65c-.753-.46,1.784-4.708,3.086-1.425a4.263,4.263,0,0,1-.562,3.873c-.7.9,1.061,1,1.506.422,1.611-2.072,1.388-8.265-2.641-6.847A5.466,5.466,0,0,0,24,22.046c-.487,1.476,1.082,2.048,2.121,1.343,1.535-1.044.181-3.459-.583-4.524a3.841,3.841,0,0,0-4.883-1.285c-2.5,1.174-3.556,6.837.436,5.662.353-.1.833-.353.772-.79-.418-3.047-2.772-5.143-5.9-3.694-3.269,1.516-3.337,4.382-1.455,7.181.4.6,2.172-.048,1.69-.765" transform="translate(0.923 1.196)" fill="#fff"/>
      <path id="Trazado_1370521" data-name="Trazado 1370521" d="M29.086,61.3l-1.647,2.814H17.305L15.645,61.3Z" transform="translate(1.089 4.267)" fill="#4a3c48"/>
      <rect id="Rectángulo_739100" data-name="Rectángulo 739100" width="23.399" height="13.422" transform="translate(11.761 52.145)" fill="#fff"/>
      <g id="Grupo_1211112" data-name="Grupo 1211112" transform="translate(11.761 54.092)" opacity="0.65" style="mix-blend-mode: multiply;isolation: isolate">
        <g id="Grupo_1211111" data-name="Grupo 1211111" transform="translate(0 0)">
          <g id="Grupo_1211110" data-name="Grupo 1211110" clip-path="url(#clip-path)">
            <rect id="Rectángulo_739101" data-name="Rectángulo 739101" width="23.399" height="2.363" transform="translate(0 0)" fill="#98abbd"/>
          </g>
        </g>
      </g>
      <g id="Grupo_1211115" data-name="Grupo 1211115" transform="translate(11.761 57.676)" opacity="0.65" style="mix-blend-mode: multiply;isolation: isolate">
        <g id="Grupo_1211114" data-name="Grupo 1211114" transform="translate(0 0)">
          <g id="Grupo_1211113" data-name="Grupo 1211113" clip-path="url(#clip-path-2)">
            <rect id="Rectángulo_739103" data-name="Rectángulo 739103" width="23.399" height="2.362" transform="translate(0 0)" fill="#98abbd"/>
          </g>
        </g>
      </g>
      <g id="Grupo_1211118" data-name="Grupo 1211118" transform="translate(11.761 61.259)" opacity="0.65" style="mix-blend-mode: multiply;isolation: isolate">
        <g id="Grupo_1211117" data-name="Grupo 1211117" transform="translate(0 0)">
          <g id="Grupo_1211116" data-name="Grupo 1211116" clip-path="url(#clip-path-3)">
            <rect id="Rectángulo_739105" data-name="Rectángulo 739105" width="23.399" height="2.36" transform="translate(0 0)" fill="#98abbd"/>
          </g>
        </g>
      </g>
    </g>
    <g id="Grupo_1212115" data-name="Grupo 1212115" transform="translate(309.496 1379)">
      <path id="Trazado_1370519-2" data-name="Trazado 1370519" d="M46.922,23.467a23.343,23.343,0,0,1-5.5,15.084h-.01a.1.1,0,0,1-.04.051.379.379,0,0,1-.109.118,1.516,1.516,0,0,0-.12.151c-2.544,3.243-2.407,13.275-6.839,13.275H12.618c-4.446,0-4.3-10.032-6.844-13.275a1.245,1.245,0,0,0-.117-.151,1.227,1.227,0,0,1-.109-.118.089.089,0,0,1-.04-.051H5.5A23.461,23.461,0,1,1,46.922,23.467" transform="translate(0 0)" fill="#ffb822"/>
      <rect id="Rectángulo_739098-2" data-name="Rectángulo 739098" width="2.813" height="25.949" transform="translate(14.99 27.097) rotate(-7.03)" fill="#f2f2f2"/>
      <rect id="Rectángulo_739099-2" data-name="Rectángulo 739099" width="25.949" height="2.814" transform="translate(25.686 52.507) rotate(-82.972)" fill="#f2f2f2"/>
      <path id="Trazado_1370520-2" data-name="Trazado 1370520" d="M16.2,25.175c-.864-1.288-1.55-2.721-.954-4.277q2.83-2.32,4.086-.322a4.966,4.966,0,0,1,.7,2.369c.258-.263.517-.528.772-.792-1.308.384-.037-2.754.1-3.01,1.139-2.04,2.86.372,3.348,1.05.006.01,1.138,2.3.644,2.484L26,22.65c-.753-.46,1.784-4.708,3.086-1.425a4.263,4.263,0,0,1-.562,3.873c-.7.9,1.061,1,1.506.422,1.611-2.072,1.388-8.265-2.641-6.847A5.466,5.466,0,0,0,24,22.046c-.487,1.476,1.082,2.048,2.121,1.343,1.535-1.044.181-3.459-.583-4.524a3.841,3.841,0,0,0-4.883-1.285c-2.5,1.174-3.556,6.837.436,5.662.353-.1.833-.353.772-.79-.418-3.047-2.772-5.143-5.9-3.694-3.269,1.516-3.337,4.382-1.455,7.181.4.6,2.172-.048,1.69-.765" transform="translate(0.923 1.196)" fill="#fff"/>
      <path id="Trazado_1370521-2" data-name="Trazado 1370521" d="M29.086,61.3l-1.647,2.814H17.305L15.645,61.3Z" transform="translate(1.089 4.267)" fill="#4a3c48"/>
      <rect id="Rectángulo_739100-2" data-name="Rectángulo 739100" width="23.399" height="13.422" transform="translate(11.761 52.145)" fill="#fff"/>
      <g id="Grupo_1211112-2" data-name="Grupo 1211112" transform="translate(11.761 54.092)" opacity="0.65" style="mix-blend-mode: multiply;isolation: isolate">
        <g id="Grupo_1211111-2" data-name="Grupo 1211111" transform="translate(0 0)">
          <g id="Grupo_1211110-2" data-name="Grupo 1211110" clip-path="url(#clip-path)">
            <rect id="Rectángulo_739101-2" data-name="Rectángulo 739101" width="23.399" height="2.363" transform="translate(0 0)" fill="#98abbd"/>
          </g>
        </g>
      </g>
      <g id="Grupo_1211115-2" data-name="Grupo 1211115" transform="translate(11.761 57.676)" opacity="0.65" style="mix-blend-mode: multiply;isolation: isolate">
        <g id="Grupo_1211114-2" data-name="Grupo 1211114" transform="translate(0 0)">
          <g id="Grupo_1211113-2" data-name="Grupo 1211113" clip-path="url(#clip-path-2)">
            <rect id="Rectángulo_739103-2" data-name="Rectángulo 739103" width="23.399" height="2.362" transform="translate(0 0)" fill="#98abbd"/>
          </g>
        </g>
      </g>
      <g id="Grupo_1211118-2" data-name="Grupo 1211118" transform="translate(11.761 61.259)" opacity="0.65" style="mix-blend-mode: multiply;isolation: isolate">
        <g id="Grupo_1211117-2" data-name="Grupo 1211117" transform="translate(0 0)">
          <g id="Grupo_1211116-2" data-name="Grupo 1211116" clip-path="url(#clip-path-3)">
            <rect id="Rectángulo_739105-2" data-name="Rectángulo 739105" width="23.399" height="2.36" transform="translate(0 0)" fill="#98abbd"/>
          </g>
        </g>
      </g>
    </g>
  </g>
</svg>
