<svg xmlns="http://www.w3.org/2000/svg" xmlns:xlink="http://www.w3.org/1999/xlink" width="58.9" height="61.561" viewBox="0 0 58.9 61.561">
  <defs>
    <clipPath id="clip-path">
      <rect id="Rectángulo_739959" data-name="Rectángulo 739959" width="58.9" height="61.561" fill="#17c1c1"/>
    </clipPath>
  </defs>
  <g id="Grupo_1212638" data-name="Grupo 1212638" transform="translate(0 0)">
    <g id="Grupo_1212637" data-name="Grupo 1212637" transform="translate(0 0)" clip-path="url(#clip-path)">
      <path id="Trazado_1383385" data-name="Trazado 1383385" d="M5.565,9.191A4.262,4.262,0,0,1,1.211,5.564,3.815,3.815,0,0,1,4.6,1.573L11.129.121A4.106,4.106,0,0,1,12.338,0a4.134,4.134,0,0,1,4.233,3.508c.242,1.694-.726,3.508-3.265,4.112L6.774,9.071a4.572,4.572,0,0,1-1.209.12m6.652-6.529a1.088,1.088,0,0,0-.6.121L5.082,4.235c-.485.12-1.209.361-1.089.967,0,.6.6,1.088,1.573,1.088h.6L12.7,4.838c.485-.12,1.21-.362,1.089-1.088a1.772,1.772,0,0,0-1.573-1.088" transform="translate(0.24 0)" fill="#17c1c1"/>
      <path id="Trazado_1383386" data-name="Trazado 1383386" d="M5.58,17.821a4.37,4.37,0,0,1-4.233-2.9,3.468,3.468,0,0,1,.241-2.9,4.5,4.5,0,0,1,2.9-1.936L22.874,5.969H23c.362,0,.6-.121.967-.121A4.49,4.49,0,0,1,28.317,8.63a3.472,3.472,0,0,1-.242,2.9,4.247,4.247,0,0,1-2.781,1.935L6.789,17.58a2.4,2.4,0,0,1-1.209.241m17.9-9.07L5.095,12.863H4.974c-.483.12-.846.242-.967.6a.548.548,0,0,0,0,.6v.121a1.674,1.674,0,0,0,1.573.847h.483l18.5-4.233c.362-.121.726-.241.846-.6a.548.548,0,0,0,0-.6V9.476a1.675,1.675,0,0,0-1.571-.846.445.445,0,0,1-.363.121" transform="translate(0.226 1.167)" fill="#17c1c1"/>
      <path id="Trazado_1383387" data-name="Trazado 1383387" d="M5.7,25.948a4.491,4.491,0,0,1-4.355-2.783,3.2,3.2,0,0,1,.242-2.781,4.356,4.356,0,0,1,2.9-2.057l18.384-3.991a3.755,3.755,0,0,1,1.209-.12,4.217,4.217,0,0,1,4.112,2.9,2.974,2.974,0,0,1-.242,2.661,4.27,4.27,0,0,1-2.782,2.178l-18.5,4.111a3.033,3.033,0,0,0-.968-.12m-.6-4.959a1.772,1.772,0,0,0-1.089.725.553.553,0,0,0,0,.6v.122a1.677,1.677,0,0,0,1.573.846h.485l18.5-4.112a1.252,1.252,0,0,0,.968-.725c.121-.242.121-.485,0-.485v-.121A1.422,1.422,0,0,0,24.083,17a.729.729,0,0,0-.483.12Z" transform="translate(0.226 2.837)" fill="#17c1c1"/>
      <path id="Trazado_1383388" data-name="Trazado 1383388" d="M19.593,41.23H11.249A11.305,11.305,0,0,1,0,29.983V25.749A1.471,1.471,0,0,1,1.452,24.3h28.06a1.471,1.471,0,0,1,1.45,1.452V30.1A11.384,11.384,0,0,1,19.593,41.23M2.782,27.321V30.1a8.363,8.363,0,0,0,8.346,8.346h8.344A8.362,8.362,0,0,0,27.817,30.1V27.321Z" transform="translate(0 4.849)" fill="#17c1c1"/>
      <path id="Trazado_1383389" data-name="Trazado 1383389" d="M20.1,27.844a1.471,1.471,0,0,1-1.452-1.452V23.128a1.452,1.452,0,1,1,2.9,0v3.265A1.668,1.668,0,0,1,20.1,27.844" transform="translate(3.723 4.326)" fill="#17c1c1"/>
      <path id="Trazado_1383390" data-name="Trazado 1383390" d="M6.09,27.844a1.471,1.471,0,0,1-1.452-1.452V23.128A1.471,1.471,0,0,1,6.09,21.676a1.4,1.4,0,0,1,1.452,1.452v3.265A1.668,1.668,0,0,1,6.09,27.844" transform="translate(0.926 4.326)" fill="#17c1c1"/>
      <path id="Trazado_1383391" data-name="Trazado 1383391" d="M19.656,47.341H8.409A1.471,1.471,0,0,1,6.957,45.89V37.546a1.471,1.471,0,0,1,1.452-1.452H19.656a1.471,1.471,0,0,1,1.452,1.452V45.89a1.557,1.557,0,0,1-1.452,1.452M9.738,44.561h8.346V39H9.738Z" transform="translate(1.389 7.204)" fill="#17c1c1"/>
      <path id="Trazado_1383392" data-name="Trazado 1383392" d="M16.29,51.517H10.727a1.471,1.471,0,0,1-1.452-1.452V44.5a1.472,1.472,0,0,1,1.452-1.452H16.29A1.472,1.472,0,0,1,17.742,44.5v5.564a1.4,1.4,0,0,1-1.452,1.452m-4.112-2.781H14.96V45.954H12.178Z" transform="translate(1.851 8.592)" fill="#17c1c1"/>
      <path id="Trazado_1383393" data-name="Trazado 1383393" d="M42.967,36.553H41.516a7.794,7.794,0,0,1-7.74-7.74v-7.5a1.469,1.469,0,0,1,1.45-1.452H49.256a1.471,1.471,0,0,1,1.452,1.452v7.619a7.692,7.692,0,0,1-7.74,7.62M36.678,22.644v6.17a4.981,4.981,0,0,0,4.959,4.958h1.452a4.981,4.981,0,0,0,4.958-4.958v-6.17Z" transform="translate(6.741 3.964)" fill="#17c1c1"/>
      <path id="Trazado_1383394" data-name="Trazado 1383394" d="M50.929,23.387H34.118a1.471,1.471,0,0,1-1.452-1.452V17.583a1.471,1.471,0,0,1,1.452-1.452H50.929a1.471,1.471,0,0,1,1.452,1.452v4.476a1.546,1.546,0,0,1-1.452,1.329M35.448,20.607H49.477V19.034H35.448Z" transform="translate(6.52 3.219)" fill="#17c1c1"/>
      <path id="Trazado_1383395" data-name="Trazado 1383395" d="M37.546,20.3a1.471,1.471,0,0,1-1.452-1.452V11.836a1.471,1.471,0,0,1,1.452-1.452A1.4,1.4,0,0,1,39,11.836v7.015A1.471,1.471,0,0,1,37.546,20.3" transform="translate(7.204 2.072)" fill="#17c1c1"/>
      <path id="Trazado_1383396" data-name="Trazado 1383396" d="M44.6,20.3a1.471,1.471,0,0,1-1.452-1.452V11.836A1.471,1.471,0,0,1,44.6,10.384a1.4,1.4,0,0,1,1.452,1.452v7.015A1.668,1.668,0,0,1,44.6,20.3" transform="translate(8.613 2.072)" fill="#17c1c1"/>
      <path id="Trazado_1383397" data-name="Trazado 1383397" d="M41.49,55.061A5.548,5.548,0,0,1,35.926,49.5V48.046a2.736,2.736,0,0,0-2.782-2.781H17.785a1.452,1.452,0,0,1,0-2.9h15.36a5.548,5.548,0,0,1,5.564,5.564v1.452a2.782,2.782,0,0,0,5.564,0V34.017a1.47,1.47,0,0,1,1.45-1.452,1.4,1.4,0,0,1,1.452,1.452V49.377a5.677,5.677,0,0,1-5.684,5.684" transform="translate(3.26 6.499)" fill="#17c1c1"/>
      <path id="Trazado_1383398" data-name="Trazado 1383398" d="M42.746,28.411H39.965a1.471,1.471,0,0,1-1.452-1.452,1.4,1.4,0,0,1,1.452-1.452h2.782a1.452,1.452,0,0,1,0,2.9" transform="translate(7.687 5.091)" fill="#17c1c1"/>
      <path id="Trazado_1383399" data-name="Trazado 1383399" d="M17.92,31.94H2.561a1.472,1.472,0,0,1-1.452-1.452,1.4,1.4,0,0,1,1.452-1.452H17.92a1.471,1.471,0,0,1,1.452,1.452A1.4,1.4,0,0,1,17.92,31.94" transform="translate(0.221 5.795)" fill="#17c1c1"/>
      <path id="Trazado_1383400" data-name="Trazado 1383400" d="M18.873,31.9a1.249,1.249,0,1,1,.968-.363,1.38,1.38,0,0,1-.968.363" transform="translate(3.501 5.835)" fill="#17c1c1"/>
    </g>
  </g>
</svg>
