<svg xmlns="http://www.w3.org/2000/svg" xmlns:xlink="http://www.w3.org/1999/xlink" width="100.885" height="123.405" viewBox="0 0 100.885 123.405">
  <defs>
    <clipPath id="clip-path">
      <rect id="Rectángulo_545403" data-name="Rectángulo 545403" width="58.771" height="123.404" fill="none"/>
    </clipPath>
    <clipPath id="clip-path-2">
      <rect id="Rectángulo_510038" data-name="Rectángulo 510038" width="54.774" height="85.1" fill="none"/>
    </clipPath>
    <clipPath id="clip-path-3">
      <rect id="Rectángulo_510029" data-name="Rectángulo 510029" width="54.774" height="85.101" fill="none"/>
    </clipPath>
    <clipPath id="clip-path-4">
      <path id="Trazado_1255636" data-name="Trazado 1255636" d="M21.944,2.27l6.857.018c-2.817-.006-5.638,1.851-7.787,5.578-4.271,7.4-4.271,19.352,0,26.7,2.122,3.651,4.9,5.481,7.682,5.487l-6.857-.021c-2.781-.009-5.56-1.833-7.682-5.484-4.271-7.351-4.271-19.31,0-26.705C16.3,4.13,19.117,2.27,21.926,2.27h.018" transform="translate(-10.953 -2.27)" fill="none"/>
    </clipPath>
    <clipPath id="clip-path-6">
      <path id="Trazado_1255641" data-name="Trazado 1255641" d="M13.027.021c3.787.009,7.57,2.5,10.457,7.471,5.815,10.008,5.815,26.29,0,36.365-2.929,5.072-6.77,7.606-10.6,7.594L6.023,51.43c3.838.012,7.679-2.519,10.6-7.591,5.821-10.075,5.821-26.356,0-36.368C13.741,2.5,9.96.012,6.17,0Z" transform="translate(-6.023)" fill="none"/>
    </clipPath>
    <clipPath id="clip-path-8">
      <path id="Trazado_1255644" data-name="Trazado 1255644" d="M17.182,33.673A1.707,1.707,0,0,0,17.01,35.4L6.21,16.811a1.71,1.71,0,0,1,.166-1.725Z" transform="translate(-6.045 -15.086)" fill="none"/>
    </clipPath>
    <clipPath id="clip-path-10">
      <path id="Trazado_1255647" data-name="Trazado 1255647" d="M8.324,14.284a1.7,1.7,0,0,1,1.556.707l10.8,18.587a1.7,1.7,0,0,0-1.556-.707,5.305,5.305,0,0,0-4.178,2.414L4.14,16.7a5.331,5.331,0,0,1,4.172-2.414h.012" transform="translate(-4.14 -14.284)" fill="none"/>
    </clipPath>
    <clipPath id="clip-path-12">
      <path id="Trazado_1255651" data-name="Trazado 1255651" d="M19.641,44.523a3.139,3.139,0,0,0-.313,3.164L3.9,21.135a3.143,3.143,0,0,1,.31-3.167Z" transform="translate(-3.598 -17.968)" fill="none"/>
    </clipPath>
    <clipPath id="clip-path-14">
      <path id="Trazado_1255654" data-name="Trazado 1255654" d="M7.779,16.5a3.108,3.108,0,0,1,2.854,1.3l15.43,26.549a3.116,3.116,0,0,0-2.854-1.3,9.765,9.765,0,0,0-7.676,4.437L.1,20.929A9.787,9.787,0,0,1,7.761,16.5h.018" transform="translate(-0.1 -16.495)" fill="none"/>
    </clipPath>
    <clipPath id="clip-path-16">
      <rect id="Rectángulo_510035" data-name="Rectángulo 510035" width="21.875" height="37.766" fill="none"/>
    </clipPath>
    <clipPath id="clip-path-17">
      <rect id="Rectángulo_510036" data-name="Rectángulo 510036" width="16.811" height="37.724" fill="none"/>
    </clipPath>
  </defs>
  <g id="Grupo_1205850" data-name="Grupo 1205850" transform="translate(-1205 -447.5)">
    <g id="Grupo_1205849" data-name="Grupo 1205849" transform="translate(1205 447.5)">
      <path id="Trazado_1270756" data-name="Trazado 1270756" d="M58.769,76.071l-19.06,11L0,64.117,19.062,53.111Z" transform="translate(0.002 28.31)" fill="#e6e7e8"/>
      <path id="Trazado_1270757" data-name="Trazado 1270757" d="M19.06,76.107,0,87.111V79.092l19.06-11Z" transform="translate(39.71 36.294)" fill="#bcbec0"/>
      <path id="Trazado_1270758" data-name="Trazado 1270758" d="M52.143,83.248v8.019L12.433,68.339V60.29Z" transform="translate(-12.432 32.137)" fill="#a7a9ac"/>
      <path id="Trazado_1270759" data-name="Trazado 1270759" d="M14.259,105.676l13.862-8V13.954L2.577,16.778Z" transform="translate(26.699 7.438)" fill="#a7a9ac"/>
      <path id="Trazado_1270760" data-name="Trazado 1270760" d="M16.435,0l36.9,21.392-13.863,8-12.2-2.641L2.576,8Z" transform="translate(1.487 0)" fill="#bcbec0"/>
      <path id="Trazado_1270761" data-name="Trazado 1270761" d="M11.619,5.221,48.514,26.607v83.726L11.619,88.943Z" transform="translate(-7.556 2.783)" fill="#939598"/>
      <path id="Trazado_1270762" data-name="Trazado 1270762" d="M13.273,8.81,45.1,27.261V94.748L13.273,76.3Z" transform="translate(-6.675 4.696)" fill="#535359"/>
      <path id="Trazado_1270763" data-name="Trazado 1270763" d="M13.366,8.864,45.192,27.316V94.8L13.366,76.349Z" transform="translate(-6.912 4.725)" fill="#a7a9ac"/>
      <g id="Grupo_1205848" data-name="Grupo 1205848" transform="translate(0 0)">
        <g id="Grupo_1205847" data-name="Grupo 1205847" clip-path="url(#clip-path)">
          <path id="Trazado_1270764" data-name="Trazado 1270764" d="M22.585,24.5c.166.1.3.018.3-.172a.665.665,0,0,0-.3-.521l-7.237-4.181c-.164-.1-.3-.017-.3.176a.659.659,0,0,0,.3.518Z" transform="translate(12.817 10.438)" fill="#303033"/>
          <path id="Trazado_1270765" data-name="Trazado 1270765" d="M15.347,21.1c-.164-.1-.3-.017-.3.173a.667.667,0,0,0,.3.52l7.237,4.178c.166.094.3.017.3-.173a.667.667,0,0,0-.3-.52Z" transform="translate(12.817 11.223)" fill="#303033"/>
          <path id="Trazado_1270766" data-name="Trazado 1270766" d="M15.347,22.566c-.164-.1-.3-.018-.3.173a.675.675,0,0,0,.3.523l7.237,4.176c.166.092.3.017.3-.175a.655.655,0,0,0-.3-.517Z" transform="translate(12.817 12.007)" fill="#303033"/>
          <path id="Trazado_1270767" data-name="Trazado 1270767" d="M15.347,24.037c-.164-.1-.3-.018-.3.173a.672.672,0,0,0,.3.521l7.237,4.178c.166.1.3.018.3-.175a.655.655,0,0,0-.3-.517Z" transform="translate(12.817 12.791)" fill="#303033"/>
          <path id="Trazado_1270768" data-name="Trazado 1270768" d="M32.356,38.73c1.069.622,1.473,0,.892-1.38L27.627,24.058c-.584-1.378-1.539-1.93-2.123-1.225l-5.616,6.805c-.584.708-.182,1.789.9,2.413Z" transform="translate(-4.821 12.007)" fill="#303033"/>
          <path id="Trazado_1270769" data-name="Trazado 1270769" d="M32.7,37.906c-.043.069-.215.078-.547-.118L20.578,31.108a1.243,1.243,0,0,1-.553-.521.586.586,0,0,1,.153-.56l5.616-6.805a.42.42,0,0,1,.566-.144,1.708,1.708,0,0,1,.57.8L32.548,37.17c.184.434.2.665.152.736" transform="translate(-4.616 12.271)" fill="#ff9d26"/>
          <path id="Trazado_1270770" data-name="Trazado 1270770" d="M23.132,28.585l1.444.176-1.211-4.239,2.89,5.232-1.443-.175,1.208,4.239Z" transform="translate(-2.946 13.072)" fill="#303033"/>
          <path id="Trazado_1270771" data-name="Trazado 1270771" d="M35,19.451a1.306,1.306,0,0,1-1.182,0,.413.413,0,0,1-.241-.34v.242a.407.407,0,0,0,.241.339,1.306,1.306,0,0,0,1.182,0,.408.408,0,0,0,.245-.339v-.242a.413.413,0,0,1-.245.34" transform="translate(-27.954 10.187)" fill="#939598"/>
          <path id="Trazado_1270772" data-name="Trazado 1270772" d="M35,18.938a1.315,1.315,0,0,0-1.182,0,.361.361,0,0,0,0,.681,1.306,1.306,0,0,0,1.182,0,.359.359,0,0,0,0-.681" transform="translate(-27.954 10.02)" fill="#bcbec0"/>
          <path id="Trazado_1270773" data-name="Trazado 1270773" d="M35.136,14.228a1.51,1.51,0,0,1-1.357,0,.481.481,0,0,1-.281-.391v8.147a.489.489,0,0,0,.281.391,1.51,1.51,0,0,0,1.357,0,.482.482,0,0,0,.282-.391V13.837a.474.474,0,0,1-.282.391" transform="translate(-28.003 7.376)" fill="#bcbec0"/>
          <path id="Trazado_1270774" data-name="Trazado 1270774" d="M35.132,13.637a1.5,1.5,0,0,0-1.357,0,.415.415,0,0,0,0,.783,1.52,1.52,0,0,0,1.357,0c.377-.216.377-.564,0-.783" transform="translate(-27.999 7.183)" fill="#e6e7e8"/>
          <path id="Trazado_1270775" data-name="Trazado 1270775" d="M35,14a1.315,1.315,0,0,1-1.182,0,.413.413,0,0,1-.241-.342V13.9a.413.413,0,0,0,.241.339,1.306,1.306,0,0,0,1.182,0,.413.413,0,0,0,.245-.339v-.244A.413.413,0,0,1,35,14" transform="translate(-27.954 7.279)" fill="#bcbec0"/>
          <path id="Trazado_1270776" data-name="Trazado 1270776" d="M35,13.484a1.3,1.3,0,0,0-1.182,0,.361.361,0,0,0,0,.681,1.315,1.315,0,0,0,1.182,0,.359.359,0,0,0,0-.681" transform="translate(-27.954 7.111)" fill="#e6e7e8"/>
          <path id="Trazado_1270777" data-name="Trazado 1270777" d="M35,48.406a1.306,1.306,0,0,1-1.182,0,.411.411,0,0,1-.241-.34v.241a.413.413,0,0,0,.241.34,1.287,1.287,0,0,0,1.182,0,.413.413,0,0,0,.245-.34v-.241a.411.411,0,0,1-.245.34" transform="translate(-27.954 25.621)" fill="#939598"/>
          <path id="Trazado_1270778" data-name="Trazado 1270778" d="M35,47.892a1.315,1.315,0,0,0-1.182,0,.362.362,0,0,0,0,.682,1.306,1.306,0,0,0,1.182,0,.36.36,0,0,0,0-.682" transform="translate(-27.954 25.454)" fill="#bcbec0"/>
          <path id="Trazado_1270779" data-name="Trazado 1270779" d="M35.136,43.181a1.5,1.5,0,0,1-1.357,0,.483.483,0,0,1-.281-.388v8.145a.481.481,0,0,0,.281.389,1.482,1.482,0,0,0,1.357,0,.474.474,0,0,0,.282-.389V42.793a.476.476,0,0,1-.282.388" transform="translate(-28.003 22.811)" fill="#bcbec0"/>
          <path id="Trazado_1270780" data-name="Trazado 1270780" d="M35.132,42.6a1.482,1.482,0,0,0-1.357,0,.412.412,0,0,0,0,.779,1.51,1.51,0,0,0,1.357,0,.409.409,0,0,0,0-.779" transform="translate(-27.999 22.617)" fill="#e6e7e8"/>
          <path id="Trazado_1270781" data-name="Trazado 1270781" d="M35,42.953a1.315,1.315,0,0,1-1.182,0,.417.417,0,0,1-.241-.343v.242a.4.4,0,0,0,.241.337,1.306,1.306,0,0,0,1.182,0,.4.4,0,0,0,.245-.337V42.61a.417.417,0,0,1-.245.343" transform="translate(-27.954 22.713)" fill="#bcbec0"/>
          <path id="Trazado_1270782" data-name="Trazado 1270782" d="M35,42.438a1.305,1.305,0,0,0-1.182,0,.362.362,0,0,0,0,.682,1.315,1.315,0,0,0,1.182,0,.36.36,0,0,0,0-.682" transform="translate(-27.954 22.546)" fill="#e6e7e8"/>
        </g>
      </g>
    </g>
    <g id="Grupo_1204408" data-name="Grupo 1204408" transform="translate(1251.111 455.73)">
      <g id="Grupo_1204407" data-name="Grupo 1204407" transform="translate(0 0)" clip-path="url(#clip-path-2)">
        <g id="Grupo_1204376" data-name="Grupo 1204376" transform="translate(-0.001 0)">
          <g id="Grupo_1204375" data-name="Grupo 1204375" clip-path="url(#clip-path-3)">
            <path id="Trazado_1255632" data-name="Trazado 1255632" d="M21.944,2.27l6.857.021c-2.817-.009-5.641,1.848-7.79,5.572-4.271,7.4-4.268,19.355,0,26.705,2.122,3.651,4.9,5.478,7.679,5.487l-6.854-.021c-2.781-.006-5.56-1.833-7.682-5.487-4.271-7.348-4.271-19.3,0-26.7,2.149-3.723,4.97-5.584,7.787-5.575" transform="translate(-6.995 4.563)" fill="#bcc5df"/>
          </g>
        </g>
        <g id="Grupo_1204378" data-name="Grupo 1204378" transform="translate(3.957 6.833)">
          <g id="Grupo_1204377" data-name="Grupo 1204377" transform="translate(0)" clip-path="url(#clip-path-4)">
            <path id="Trazado_1255633" data-name="Trazado 1255633" d="M14.887,2.27l6.857.021A7.045,7.045,0,0,0,17.81,3.534l-6.857-.018A7.08,7.08,0,0,1,14.887,2.27" transform="translate(-3.897 -2.27)" fill="#bcc5df"/>
            <path id="Trazado_1255634" data-name="Trazado 1255634" d="M19.317,2.683l6.857.021a12.636,12.636,0,0,0-3.856,4.328c-2.842,4.918-3.79,11.854-2.854,18.109l-6.857-.018c-.936-6.255.015-13.19,2.854-18.112a12.664,12.664,0,0,1,3.856-4.328" transform="translate(-12.257 -1.44)" fill="#bcc5df"/>
            <path id="Trazado_1255635" data-name="Trazado 1255635" d="M10.988,10.138l6.857.018a24.427,24.427,0,0,0,2.854,8.6c2.122,3.651,4.9,5.478,7.682,5.487l-6.857-.021c-2.781-.006-5.557-1.836-7.679-5.487a24.413,24.413,0,0,1-2.857-8.594" transform="translate(-10.638 13.545)" fill="#bcc5df"/>
          </g>
        </g>
        <g id="Grupo_1204380" data-name="Grupo 1204380" transform="translate(-0.001 0)">
          <g id="Grupo_1204379" data-name="Grupo 1204379" clip-path="url(#clip-path-3)">
            <path id="Trazado_1255637" data-name="Trazado 1255637" d="M6.17,0l6.857.018c3.787.012,7.567,2.5,10.457,7.474,5.815,10.008,5.815,26.29,0,36.368-2.929,5.069-6.77,7.6-10.6,7.588L6.023,51.43c3.835.012,7.679-2.522,10.6-7.591,5.818-10.075,5.818-26.356,0-36.368C13.738,2.5,9.957.009,6.17,0" transform="translate(8.799 0)" fill="#bcc5df"/>
          </g>
        </g>
        <g id="Grupo_1204382" data-name="Grupo 1204382" transform="translate(14.821)">
          <g id="Grupo_1204381" data-name="Grupo 1204381" clip-path="url(#clip-path-6)">
            <path id="Trazado_1255638" data-name="Trazado 1255638" d="M6.18,0l6.857.018c3.787.012,7.567,2.5,10.457,7.474a33.333,33.333,0,0,1,3.889,11.7l-6.857-.018a33.268,33.268,0,0,0-3.889-11.7C13.747,2.5,9.967.009,6.18,0" transform="translate(-6.033)" fill="#bcc5df"/>
            <path id="Trazado_1255639" data-name="Trazado 1255639" d="M15.158,6.37l6.857.021c1.276,8.518-.021,17.964-3.889,24.664a17.24,17.24,0,0,1-5.25,5.894l-6.854-.018a17.249,17.249,0,0,0,5.247-5.9c3.868-6.7,5.165-16.146,3.889-24.664" transform="translate(-0.664 12.804)" fill="#bcc5df"/>
            <path id="Trazado_1255640" data-name="Trazado 1255640" d="M14.573,16.523l6.857.021a9.649,9.649,0,0,1-5.358,1.695l-6.857-.021a9.625,9.625,0,0,0,5.358-1.695" transform="translate(-9.215 33.212)" fill="#bcc5df"/>
          </g>
        </g>
        <g id="Grupo_1204384" data-name="Grupo 1204384" transform="translate(-0.001 0)">
          <g id="Grupo_1204383" data-name="Grupo 1204383" clip-path="url(#clip-path-3)">
            <path id="Trazado_1255642" data-name="Trazado 1255642" d="M17.011,35.4,6.211,16.811a1.7,1.7,0,0,1,.169-1.725l10.8,18.587a1.712,1.712,0,0,0-.169,1.725" transform="translate(19.396 30.324)" fill="#372b3d"/>
          </g>
        </g>
        <g id="Grupo_1204386" data-name="Grupo 1204386" transform="translate(25.441 45.41)">
          <g id="Grupo_1204385" data-name="Grupo 1204385" transform="translate(0)" clip-path="url(#clip-path-8)">
            <path id="Trazado_1255643" data-name="Trazado 1255643" d="M17.011,35.4,6.211,16.811a1.7,1.7,0,0,1,.169-1.725l10.8,18.587a1.712,1.712,0,0,0-.169,1.725" transform="translate(-6.046 -15.086)" fill="#372b3d"/>
          </g>
        </g>
        <g id="Grupo_1204388" data-name="Grupo 1204388" transform="translate(-0.001 0)">
          <g id="Grupo_1204387" data-name="Grupo 1204387" clip-path="url(#clip-path-3)">
            <path id="Trazado_1255645" data-name="Trazado 1255645" d="M9.877,14.991l10.8,18.587a1.693,1.693,0,0,0-1.553-.707,5.314,5.314,0,0,0-4.181,2.414L4.14,16.7a5.331,5.331,0,0,1,4.181-2.414,1.7,1.7,0,0,1,1.556.707" transform="translate(21.635 28.712)" fill="#372b3d"/>
          </g>
        </g>
        <g id="Grupo_1204390" data-name="Grupo 1204390" transform="translate(25.772 42.996)">
          <g id="Grupo_1204389" data-name="Grupo 1204389" clip-path="url(#clip-path-10)">
            <path id="Trazado_1255646" data-name="Trazado 1255646" d="M14.943,35.285,4.14,16.7a5.332,5.332,0,0,1,4.184-2.414,1.693,1.693,0,0,1,1.553.707l10.8,18.587a1.7,1.7,0,0,0-1.556-.707,5.323,5.323,0,0,0-4.181,2.414" transform="translate(-4.14 -14.284)" fill="#372b3d"/>
          </g>
        </g>
        <g id="Grupo_1204392" data-name="Grupo 1204392" transform="translate(-0.001 0)">
          <g id="Grupo_1204391" data-name="Grupo 1204391" clip-path="url(#clip-path-3)">
            <path id="Trazado_1255648" data-name="Trazado 1255648" d="M4.419,22.873A5.323,5.323,0,0,1,8.6,20.459c1.538,0,2.158,1.093,1.388,2.429A5.327,5.327,0,0,1,5.8,25.305c-1.538-.006-2.158-1.093-1.385-2.432" transform="translate(32.156 41.124)" fill="#372b3d"/>
            <path id="Trazado_1255649" data-name="Trazado 1255649" d="M19.329,47.686,3.9,21.135a3.135,3.135,0,0,1,.31-3.167L19.639,44.52a3.143,3.143,0,0,0-.31,3.167" transform="translate(24.305 36.117)" fill="#e5354f"/>
          </g>
        </g>
        <g id="Grupo_1204394" data-name="Grupo 1204394" transform="translate(27.901 54.085)">
          <g id="Grupo_1204393" data-name="Grupo 1204393" clip-path="url(#clip-path-12)">
            <path id="Trazado_1255650" data-name="Trazado 1255650" d="M19.329,47.686,3.9,21.135a3.135,3.135,0,0,1,.31-3.167L19.639,44.52a3.143,3.143,0,0,0-.31,3.167" transform="translate(-3.596 -17.968)" fill="#e5354f"/>
          </g>
        </g>
        <g id="Grupo_1204396" data-name="Grupo 1204396" transform="translate(-0.001 0)">
          <g id="Grupo_1204395" data-name="Grupo 1204395" clip-path="url(#clip-path-3)">
            <path id="Trazado_1255652" data-name="Trazado 1255652" d="M10.632,17.792l15.43,26.552a3.114,3.114,0,0,0-2.851-1.3,9.775,9.775,0,0,0-7.679,4.434L.1,20.929A9.772,9.772,0,0,1,7.779,16.5a3.113,3.113,0,0,1,2.854,1.3" transform="translate(28.411 33.156)" fill="#e5354f"/>
          </g>
        </g>
        <g id="Grupo_1204398" data-name="Grupo 1204398" transform="translate(28.511 49.651)">
          <g id="Grupo_1204397" data-name="Grupo 1204397" clip-path="url(#clip-path-14)">
            <path id="Trazado_1255653" data-name="Trazado 1255653" d="M15.529,47.481.1,20.929A9.767,9.767,0,0,1,7.778,16.5a3.108,3.108,0,0,1,2.851,1.3L26.061,44.344a3.123,3.123,0,0,0-2.854-1.3,9.775,9.775,0,0,0-7.679,4.434" transform="translate(-0.096 -16.495)" fill="#e5354f"/>
          </g>
        </g>
        <g id="Grupo_1204406" data-name="Grupo 1204406" transform="translate(-0.001 0)">
          <g id="Grupo_1204405" data-name="Grupo 1204405" clip-path="url(#clip-path-3)">
            <path id="Trazado_1255655" data-name="Trazado 1255655" d="M.609,29.75a9.775,9.775,0,0,1,7.679-4.434c2.823.009,3.961,2.008,2.544,4.464A9.781,9.781,0,0,1,3.15,34.214C.329,34.2-.808,32.206.609,29.75" transform="translate(43.335 50.887)" fill="#d12842"/>
            <g id="Grupo_1204401" data-name="Grupo 1204401" transform="translate(6.061 6.833)" opacity="0.5">
              <g id="Grupo_1204400" data-name="Grupo 1204400" transform="translate(0)">
                <g id="Grupo_1204399" data-name="Grupo 1204399" clip-path="url(#clip-path-16)">
                  <path id="Trazado_1255656" data-name="Trazado 1255656" d="M27.586,34.463c4.274-7.4,4.274-19.355,0-26.705S16.392.446,12.117,7.845s-4.268,19.355,0,26.7,11.2,7.314,15.469-.084" transform="translate(-8.916 -2.269)" fill="#13b7fd"/>
                </g>
              </g>
            </g>
            <g id="Grupo_1204404" data-name="Grupo 1204404" transform="translate(11.125 6.832)" opacity="0.5">
              <g id="Grupo_1204403" data-name="Grupo 1204403" transform="translate(0)">
                <g id="Grupo_1204402" data-name="Grupo 1204402" clip-path="url(#clip-path-17)">
                  <path id="Trazado_1255657" data-name="Trazado 1255657" d="M22.524,7.757c4.271,7.351,4.271,19.307,0,26.705-1.963,3.4-4.479,5.241-7.047,5.533a15.207,15.207,0,0,0,1.86-2.589c4.271-7.4,4.268-19.355,0-26.705-2.312-3.976-5.4-5.791-8.422-5.445C13.145.569,18.828,1.4,22.524,7.757" transform="translate(-8.915 -2.269)" fill="#13b7fd"/>
                </g>
              </g>
            </g>
            <path id="Trazado_1255658" data-name="Trazado 1255658" d="M12.664,43.959c5.815,10.008,15.246,9.957,21.065-.117s5.815-26.359,0-36.368-15.249-9.957-21.065.12-5.818,26.356,0,36.365m18.265-4.933c-4.271,7.4-11.2,7.435-15.469.084s-4.271-19.3,0-26.7,11.2-7.438,15.469-.087,4.271,19.307,0,26.705" transform="translate(-8.299 0.001)" fill="#e9ecf5"/>
          </g>
        </g>
      </g>
    </g>
  </g>
</svg>
