<svg xmlns="http://www.w3.org/2000/svg" xmlns:xlink="http://www.w3.org/1999/xlink" width="68.997" height="68.095" viewBox="0 0 68.997 68.095">
  <defs>
    <clipPath id="clip-path">
      <rect id="Rectángulo_740093" data-name="Rectángulo 740093" width="68.997" height="68.095" fill="#034cad"/>
    </clipPath>
  </defs>
  <g id="Grupo_1212865" data-name="Grupo 1212865" transform="translate(0 0)">
    <g id="Grupo_1212864" data-name="Grupo 1212864" transform="translate(0 0)" clip-path="url(#clip-path)">
      <path id="Trazado_1383650" data-name="Trazado 1383650" d="M67.53,65.2H43.517c11.5-41.124,11.049-39.453,11.049-39.564a1.481,1.481,0,0,0-.226-1l-.113-.111a2.357,2.357,0,0,0-.675-.446c-.227-.111,1.014,0-19.843,0,8.343-23.4,8-22.29,8-22.4A1.394,1.394,0,0,0,40.361,0H23a1.553,1.553,0,0,0-1.466,1.114S14.205,38.673,14.317,38a1.862,1.862,0,0,0,.114.78l.225.446a1.316,1.316,0,0,0,1.128.446H37.316V65.2H1.464a1.449,1.449,0,1,0,0,2.9H67.53a1.449,1.449,0,1,0,0-2.9m-27.283,0V38.227a1.484,1.484,0,0,0-1.464-1.449h-19.5l3.269-3.232a1.4,1.4,0,0,0,0-2.006,1.44,1.44,0,0,0-2.028,0l-2.368,2.452L24.239,2.786H34.16L31,4.346a1.463,1.463,0,0,0-.675,1.895,1.5,1.5,0,0,0,1.916.669l5.412-2.675L30.214,25.076a1.419,1.419,0,0,0,1.353,1.895H49.042L45.1,30.091a1.509,1.509,0,0,0-.226,2.006,1.439,1.439,0,0,0,2.031.223l3.72-2.9L40.586,65.309h-.339Z" transform="translate(0 0)" fill="#034cad"/>
    </g>
  </g>
</svg>
