<svg xmlns="http://www.w3.org/2000/svg" xmlns:xlink="http://www.w3.org/1999/xlink" width="78.553" height="68.872" viewBox="0 0 78.553 68.872">
  <defs>
    <clipPath id="clip-path">
      <rect id="Rectángulo_739180" data-name="Rectángulo 739180" width="78.553" height="68.872" fill="#17c1c1"/>
    </clipPath>
  </defs>
  <g id="Grupo_1211264" data-name="Grupo 1211264" transform="translate(0 0)">
    <g id="Grupo_1211263" data-name="Grupo 1211263" transform="translate(0 0.001)" clip-path="url(#clip-path)">
      <path id="Trazado_1370762" data-name="Trazado 1370762" d="M70.917,57.751H5.088a1.683,1.683,0,0,1-1.66-1.66V14.465a1.682,1.682,0,0,1,1.66-1.66H71.054a1.681,1.681,0,0,1,1.66,1.66V56.092a1.8,1.8,0,0,1-1.8,1.66M6.609,54.57H69.4V16.125H6.609Z" transform="translate(1.274 4.759)" fill="#17c1c1"/>
      <path id="Trazado_1370763" data-name="Trazado 1370763" d="M74.959,52.833H2.768a1.683,1.683,0,0,1-1.66-1.66V44.812a1.683,1.683,0,0,1,1.66-1.66H74.822a1.682,1.682,0,0,1,1.66,1.66v6.362a1.57,1.57,0,0,1-1.523,1.66M4.428,49.652H73.3v-3.18H4.428Z" transform="translate(0.412 16.039)" fill="#17c1c1"/>
      <path id="Trazado_1370764" data-name="Trazado 1370764" d="M76.893,18.3H1.66A1.682,1.682,0,0,1,0,16.638V8.617a1.682,1.682,0,0,1,1.66-1.66H76.893a1.682,1.682,0,0,1,1.66,1.66v8.022a1.682,1.682,0,0,1-1.66,1.66M3.18,14.979H75.232V10.138H3.18Z" transform="translate(0 2.585)" fill="#17c1c1"/>
      <path id="Trazado_1370765" data-name="Trazado 1370765" d="M18.259,12.862H8.718a1.681,1.681,0,0,1-1.66-1.66V1.661A1.682,1.682,0,0,1,8.718,0h9.542a1.682,1.682,0,0,1,1.66,1.661V11.2a1.908,1.908,0,0,1-1.66,1.66m-8.022-3.32H16.6V3.181H10.238Z" transform="translate(2.623 -0.001)" fill="#17c1c1"/>
      <path id="Trazado_1370766" data-name="Trazado 1370766" d="M52.137,12.862H42.594a1.681,1.681,0,0,1-1.66-1.66V1.661A1.681,1.681,0,0,1,42.594,0h9.543A1.682,1.682,0,0,1,53.8,1.661V11.2a1.908,1.908,0,0,1-1.658,1.66m-8.022-3.32h6.362V3.181H44.115Z" transform="translate(15.215 -0.001)" fill="#17c1c1"/>
      <path id="Trazado_1370767" data-name="Trazado 1370767" d="M24.133,46.206a1.481,1.481,0,0,1-.83-.277,1.53,1.53,0,0,1-.553-1.935l4.011-8.713h-3.32a1.919,1.919,0,0,1-1.383-.691,1.485,1.485,0,0,1-.14-1.521L27.728,17.44a1.619,1.619,0,0,1,1.521-1.107h9.406a1.52,1.52,0,0,1,1.381.83,1.761,1.761,0,0,1,0,1.66l-4.7,7.606,4.287.554a1.688,1.688,0,0,1,1.244,1.106,1.819,1.819,0,0,1-.414,1.66L25.238,45.79a1.566,1.566,0,0,1-1.106.416M25.654,32.1h3.6a1.707,1.707,0,0,1,1.384.691,1.962,1.962,0,0,1,.137,1.521L29.8,36.387l6.362-6.776-3.734-.554a1.764,1.764,0,0,1-1.246-.968,1.485,1.485,0,0,1,.14-1.521l4.424-7.33H30.356Z" transform="translate(8.091 6.07)" fill="#17c1c1"/>
      <path id="Trazado_1370768" data-name="Trazado 1370768" d="M16.188,23.081H9.826a1.66,1.66,0,1,1,0-3.32h6.362a1.682,1.682,0,0,1,1.66,1.66,1.6,1.6,0,0,1-1.66,1.66" transform="translate(3.035 7.344)" fill="#17c1c1"/>
      <path id="Trazado_1370769" data-name="Trazado 1370769" d="M50.065,23.081H43.7a1.66,1.66,0,0,1,0-3.32h6.362a1.683,1.683,0,0,1,1.66,1.66,1.6,1.6,0,0,1-1.66,1.66" transform="translate(15.627 7.344)" fill="#17c1c1"/>
      <path id="Trazado_1370770" data-name="Trazado 1370770" d="M12.145,27.123a1.682,1.682,0,0,1-1.66-1.66V19.1a1.66,1.66,0,1,1,3.32,0v6.362a1.683,1.683,0,0,1-1.66,1.66" transform="translate(3.897 6.482)" fill="#17c1c1"/>
      <path id="Trazado_1370771" data-name="Trazado 1370771" d="M61.222,41.732H30.8a1.682,1.682,0,0,1-1.66-1.66,1.6,1.6,0,0,1,1.66-1.658H61.222a1.682,1.682,0,0,1,1.66,1.658,1.6,1.6,0,0,1-1.66,1.66" transform="translate(10.83 14.278)" fill="#17c1c1"/>
      <path id="Trazado_1370772" data-name="Trazado 1370772" d="M19.571,41.732H5.189a1.682,1.682,0,0,1-1.66-1.66,1.6,1.6,0,0,1,1.66-1.658H19.571a1.659,1.659,0,1,1,0,3.318" transform="translate(1.312 14.278)" fill="#17c1c1"/>
      <path id="Trazado_1370773" data-name="Trazado 1370773" d="M19.165,41.657a1.424,1.424,0,1,1,1.107-.414,1.566,1.566,0,0,1-1.107.414" transform="translate(6.558 14.352)" fill="#17c1c1"/>
    </g>
  </g>
</svg>
