<svg xmlns="http://www.w3.org/2000/svg" xmlns:xlink="http://www.w3.org/1999/xlink" width="68.999" height="69" viewBox="0 0 68.999 69">
  <defs>
    <clipPath id="clip-path">
      <rect id="Rectángulo_740031" data-name="Rectángulo 740031" width="68.999" height="69" fill="#034cad"/>
    </clipPath>
  </defs>
  <g id="Grupo_1212795" data-name="Grupo 1212795" transform="translate(0 0)">
    <g id="Grupo_1212794" data-name="Grupo 1212794" transform="translate(0 0)" clip-path="url(#clip-path)">
      <path id="Trazado_1383646" data-name="Trazado 1383646" d="M68.457,26.789a1.709,1.709,0,0,0,.5-1.492,1.678,1.678,0,0,0-1.12-1.12,10.566,10.566,0,0,1-7.711-13.309A1.978,1.978,0,0,0,59.75,9.25a1.8,1.8,0,0,0-1.618-.373A10.466,10.466,0,0,1,44.824,1.166,1.323,1.323,0,0,0,43.7.044a1.428,1.428,0,0,0-1.492.5,10.535,10.535,0,0,1-15.424,0A1.711,1.711,0,0,0,25.3.044a1.686,1.686,0,0,0-1.119,1.121A10.6,10.6,0,0,1,10.867,8.877a1.981,1.981,0,0,0-1.618.373,1.319,1.319,0,0,0-.372,1.617A10.516,10.516,0,0,1,1.165,24.176,1.318,1.318,0,0,0,.046,25.3a1.427,1.427,0,0,0,.5,1.492,10.531,10.531,0,0,1,0,15.423,1.707,1.707,0,0,0-.5,1.494,1.677,1.677,0,0,0,1.119,1.119A10.517,10.517,0,0,1,8.877,58.133a1.986,1.986,0,0,0,.372,1.618,1.8,1.8,0,0,0,1.618.372,10.517,10.517,0,0,1,13.309,7.712A1.316,1.316,0,0,0,25.3,68.954a1.425,1.425,0,0,0,1.492-.5,10.534,10.534,0,0,1,15.424,0,1.35,1.35,0,0,0,1.12.5,1.477,1.477,0,0,0,1.492-1.242A10.566,10.566,0,0,1,58.132,60a1.98,1.98,0,0,0,1.618-.373,1.791,1.791,0,0,0,.373-1.616A10.514,10.514,0,0,1,67.834,44.7a1.323,1.323,0,0,0,1.12-1.12,1.426,1.426,0,0,0-.5-1.492,10.393,10.393,0,0,1,0-15.3m-3.732,15.8A13.539,13.539,0,0,0,56.64,56.641a13.7,13.7,0,0,0-14.055,8.085,13.622,13.622,0,0,0-16.17,0,13.609,13.609,0,0,0-14.056-8.085A13.726,13.726,0,0,0,4.274,42.586a13.435,13.435,0,0,0,0-16.171A13.54,13.54,0,0,0,12.359,12.36,13.707,13.707,0,0,0,26.415,4.275a13.433,13.433,0,0,0,16.17,0A13.729,13.729,0,0,0,56.64,12.36a13.609,13.609,0,0,0,8.085,14.055,13.435,13.435,0,0,0,0,16.171" transform="translate(0 0)" fill="#034cad"/>
      <path id="Trazado_1383647" data-name="Trazado 1383647" d="M31.957,10.938a21.021,21.021,0,1,0,21.023,21.02,21.073,21.073,0,0,0-21.023-21.02m0,38.932a18.59,18.59,0,0,1-5.845-.994L42.281,32.7a1.507,1.507,0,0,0,.373-1.617,1.477,1.477,0,0,0-1.243-.995l-5.722-.747,1.99-4.354a1.564,1.564,0,0,0-1.369-2.238H28.474a1.53,1.53,0,0,0-1.368.869L21.26,36.561A1.565,1.565,0,0,0,22.629,38.8h4.353l-4.229,8.583A17.933,17.933,0,1,1,49.869,31.958,18.077,18.077,0,0,1,31.957,49.87m-2.487-14.3H24.992l4.478-9.828h4.354l-1.867,4.1a1.626,1.626,0,0,0,1.245,2.24l4.727.621L28.972,41.66l1.866-3.732a1.633,1.633,0,0,0-1.368-2.362" transform="translate(2.541 2.541)" fill="#034cad"/>
    </g>
  </g>
</svg>
