<svg id="Grupo_1211786" data-name="Grupo 1211786" xmlns="http://www.w3.org/2000/svg" xmlns:xlink="http://www.w3.org/1999/xlink" width="76.555" height="81.533" viewBox="0 0 76.555 81.533">
  <defs>
    <clipPath id="clip-path">
      <rect id="Rectángulo_739471" data-name="Rectángulo 739471" width="76.555" height="81.533" fill="#034cad"/>
    </clipPath>
  </defs>
  <g id="Grupo_1211785" data-name="Grupo 1211785" transform="translate(0 0)" clip-path="url(#clip-path)">
    <path id="Trazado_1375769" data-name="Trazado 1375769" d="M40.66,66.1l9.233-2.116a.889.889,0,0,0,.691-.867V61.731a.89.89,0,0,0-.89-.89h-1.8a.89.89,0,0,1-.89-.89V55.36a.891.891,0,0,0-.982-.885l-3.452.363a.891.891,0,0,0-.8.885V61.5a.89.89,0,0,1-.533.815l-1.137.5a.891.891,0,0,0-.533.815v1.606a.889.889,0,0,0,1.088.867" transform="translate(-0.182 -0.25)" fill="#034cad"/>
    <path id="Trazado_1375770" data-name="Trazado 1375770" d="M75.665,54.766H74.1V27.759a1.738,1.738,0,0,0-.546-1.266L70.383,23.5V11.654a1.742,1.742,0,0,0-.655-1.361L57.339.382a1.733,1.733,0,0,0-1.4-.353L13.157,7.808l-.012,0L1.429,9.94c-.011,0-.019.009-.03.012a1.717,1.717,0,0,0-.5.184c-.029.016-.056.032-.083.049a1.724,1.724,0,0,0-.365.3c-.011.012-.018.026-.029.039s-.032.044-.049.066a1.749,1.749,0,0,0-.258.446c0,.01-.01.018-.013.028a1.708,1.708,0,0,0-.1.549c0,.016-.008.029-.008.045V68.642A1.74,1.74,0,0,0,.638,69.99L14.266,81.14a1.743,1.743,0,0,0,1.1.393,1.782,1.782,0,0,0,.4-.045L69.035,69.1a1.743,1.743,0,0,0,1.348-1.7V63.682l2.551-.9A1.741,1.741,0,0,0,74.1,61.142v-2.83l1.766-.405a.889.889,0,0,0,.691-.867V55.656a.89.89,0,0,0-.89-.89M42.842,6.262l11.133,7.987V26.322a1.742,1.742,0,0,0,.775,1.449l6.3,4.2V57.7H60.1a.89.89,0,0,1-.89-.89V52.214a.889.889,0,0,0-.982-.884l-3.452.363a.888.888,0,0,0-.8.884v5.775a.89.89,0,0,1-.533.815l-1.137.5a.891.891,0,0,0-.533.815v1.606a.889.889,0,0,0,1.088.867l4.646-1.064V68.2L31.358,74.285V69.508l2.25-.36a1.742,1.742,0,0,0,1.467-1.72V37.051A1.741,1.741,0,0,0,34.3,35.6l-6.658-4.438v-12.7a1.742,1.742,0,0,0-.726-1.415L17.79,10.506,42.557,6a1.727,1.727,0,0,0,.285.259m-23.208,32-5.484-4.02V21.36a1.745,1.745,0,0,0-.569-1.289L5.52,12.737l7.5-1.364,11.137,7.989V32.1a1.742,1.742,0,0,0,.775,1.449l6.658,4.437V64.445h-.948a.89.89,0,0,1-.89-.89V58.964a.889.889,0,0,0-.982-.884l-3.452.363a.888.888,0,0,0-.8.884V65.1a.889.889,0,0,1-.534.815l-1.136.5a.892.892,0,0,0-.534.815v1.606a.89.89,0,0,0,1.089.867l4.465-1.023V75.1L16.216,77.807V70.1l1.569.837A1.742,1.742,0,0,0,20.346,69.4V39.668a1.744,1.744,0,0,0-.712-1.4M3.484,15.594l7.183,6.537V35.126a1.741,1.741,0,0,0,.712,1.4l5.484,4.02V66.5l-1.569-.836A1.741,1.741,0,0,0,12.732,67.2v8.184L3.484,67.817ZM70.615,59.907l-2.551.9A1.74,1.74,0,0,0,66.9,62.447V66.02L61,67.393v-5.4l2.069-.33a1.743,1.743,0,0,0,1.467-1.72V31.038a1.74,1.74,0,0,0-.776-1.449l-6.3-4.2V13.354a1.739,1.739,0,0,0-.726-1.414L47.265,5.147,55.783,3.6,66.9,12.491v11.76a1.743,1.743,0,0,0,.545,1.267l3.17,2.992V48.545l-2.073.218a.89.89,0,0,0-.8.885v5.775a.89.89,0,0,1-.534.815l-1.136.5a.891.891,0,0,0-.534.815v1.606a.89.89,0,0,0,1.089.867l3.984-.913Z" transform="translate(0 0)" fill="#034cad"/>
    <path id="Trazado_1375771" data-name="Trazado 1375771" d="M21.67,25.851a1.968,1.968,0,0,0-1.744-2.133,1.968,1.968,0,0,0-1.743,2.133,1.968,1.968,0,0,0,1.743,2.133,1.968,1.968,0,0,0,1.744-2.133" transform="translate(-0.084 -0.109)" fill="#034cad"/>
    <path id="Trazado_1375772" data-name="Trazado 1375772" d="M36.245,24.85a1.969,1.969,0,0,0,1.744-2.133,1.969,1.969,0,0,0-1.744-2.134A1.969,1.969,0,0,0,34.5,22.717a1.969,1.969,0,0,0,1.744,2.133" transform="translate(-0.159 -0.095)" fill="#034cad"/>
    <path id="Trazado_1375773" data-name="Trazado 1375773" d="M48.414,22.707a1.969,1.969,0,0,0,1.744-2.133,1.78,1.78,0,1,0-3.488,0,1.969,1.969,0,0,0,1.744,2.133" transform="translate(-0.215 -0.085)" fill="#034cad"/>
    <path id="Trazado_1375774" data-name="Trazado 1375774" d="M65.692,17.623a1.779,1.779,0,1,0-3.487,0,1.779,1.779,0,1,0,3.487,0" transform="translate(-0.286 -0.071)" fill="#034cad"/>
    <path id="Trazado_1375775" data-name="Trazado 1375775" d="M21.678,75.753a2.177,2.177,0,0,0,0-4.267,2.177,2.177,0,0,0,0,4.267" transform="translate(-0.092 -0.329)" fill="#034cad"/>
    <path id="Trazado_1375776" data-name="Trazado 1375776" d="M35.884,70.037a1.968,1.968,0,0,0,1.744,2.133,2.177,2.177,0,0,0,0-4.266,1.968,1.968,0,0,0-1.744,2.133" transform="translate(-0.165 -0.312)" fill="#034cad"/>
    <path id="Trazado_1375777" data-name="Trazado 1375777" d="M49.307,65.76a2.177,2.177,0,1,0,1.744,2.133,1.969,1.969,0,0,0-1.744-2.133" transform="translate(-0.219 -0.302)" fill="#034cad"/>
    <path id="Trazado_1375778" data-name="Trazado 1375778" d="M64.824,62.051a2.177,2.177,0,1,0,1.744,2.133,1.969,1.969,0,0,0-1.744-2.133" transform="translate(-0.29 -0.285)" fill="#034cad"/>
  </g>
</svg>
