<svg id="Grupo_1211267" data-name="Grupo 1211267" xmlns="http://www.w3.org/2000/svg" xmlns:xlink="http://www.w3.org/1999/xlink" width="78.55" height="86.877" viewBox="0 0 78.55 86.877">
  <defs>
    <clipPath id="clip-path">
      <rect id="Rectángulo_739165" data-name="Rectángulo 739165" width="78.55" height="86.877" fill="#17c1c1"/>
    </clipPath>
  </defs>
  <g id="Grupo_1211252" data-name="Grupo 1211252" transform="translate(0 0)" clip-path="url(#clip-path)">
    <path id="Trazado_1370760" data-name="Trazado 1370760" d="M51.953,5.79l.9-3.314a1.936,1.936,0,0,0-.9-2.259A1.821,1.821,0,0,0,49.695.67L46.833,4.434a39.375,39.375,0,0,0-24.4,3.314,1.919,1.919,0,1,0,1.656,3.463A34.588,34.588,0,0,1,44.122,7.9L11.744,49.011a1.91,1.91,0,0,0,1.505,3.012H35.237L28.159,77.171A35.13,35.13,0,0,1,14.3,68.588,35.922,35.922,0,0,1,12.346,20.1v.6a1.958,1.958,0,0,0,3.915,0V15.429A1.992,1.992,0,0,0,14.3,13.47H9.033a1.958,1.958,0,0,0,0,3.917h.753a39.6,39.6,0,0,0,1.808,54.063,40.039,40.039,0,0,0,15.511,9.638L26.2,84.4a1.936,1.936,0,0,0,.9,2.259,1.826,1.826,0,0,0,2.259-.452l2.86-3.764a39.966,39.966,0,0,0,26.958-4.669,1.887,1.887,0,0,0-1.807-3.314A35.476,35.476,0,0,1,35.086,78.98L67.314,37.717A1.908,1.908,0,0,0,65.808,34.7H43.82L50.9,9.4a35.147,35.147,0,0,1,13.855,8.584,35.638,35.638,0,0,1,3.163,46.836v-.3a1.958,1.958,0,0,0-3.915,0v6.025c0,.149,0,.149.151.149,0,.151,0,.151.149.151a.149.149,0,0,0,.151.152l.151.149c.151,0,0,0,.151.151.151,0,0,0,.151.151h.3c.452.151,0,0,5.723,0a1.958,1.958,0,0,0,0-3.915H69.874a39.653,39.653,0,0,0-2.862-52.708A39.1,39.1,0,0,0,51.953,5.79M39.6,35.91a1.929,1.929,0,0,0,1.807,2.408H62.044l-29.669,37.8,7.078-25.449a1.93,1.93,0,0,0-1.807-2.411H17.015l29.667-37.8Z" transform="translate(0 0)" fill="#17c1c1"/>
  </g>
</svg>
