<svg xmlns="http://www.w3.org/2000/svg" width="395.141" height="218.708" viewBox="0 0 395.141 218.708">
  <g id="Grupo_1212881" data-name="Grupo 1212881" transform="translate(-186.859 -795.5)">
    <path id="_23-2150376976" data-name="23-2150376976" d="M16,0H379.141a16,16,0,0,1,16,16V218.708H0V16A16,16,0,0,1,16,0Z" transform="translate(186.859 795.5)" fill="#e8fefe"/>
    <path id="Trazado_1383435" data-name="Trazado 1383435" d="M64.529,41.6h-39.1L1.31,83.693a6.022,6.022,0,0,0,5.226,9.016H64.529Z" transform="translate(319.765 867.213)" fill="#1df2f2"/>
    <path id="Trazado_1383436" data-name="Trazado 1383436" d="M42.843,41.6h39.1l24.121,42.092a6.022,6.022,0,0,1-5.226,9.016H42.843Z" transform="translate(341.452 867.213)" fill="#fe9341"/>
    <path id="Trazado_1383437" data-name="Trazado 1383437" d="M95.186,62.649,61.312,3.536a6.023,6.023,0,0,0-10.451,0L16.988,62.649Z" transform="translate(328.208 846.164)" fill="#0460d9"/>
    <path id="Trazado_1383717" data-name="Trazado 1383717" d="M5.733-13.3.807,0H-.909L-5.733-13.3H-4L-.315-2.755A6.263,6.263,0,0,1-.046-1.577h.037A5.779,5.779,0,0,1,.3-2.774L4.054-13.3Z" transform="translate(383.945 889.579)" fill="#fff"/>
    <path id="Trazado_1383718" data-name="Trazado 1383718" d="M-1.015-11.593l.1-.325H4.9l-.114.325a1.83,1.83,0,0,0-1.208.352,3.054,3.054,0,0,0-.734,1.468L.664-2.145A4.906,4.906,0,0,0,.426-1.063a.57.57,0,0,0,.246.492,2.269,2.269,0,0,0,1.2.246L1.78,0H-4.135l.1-.325a2.04,2.04,0,0,0,1.3-.338,3.1,3.1,0,0,0,.747-1.481l2.2-7.629a4.241,4.241,0,0,0,.2-1.063.6.6,0,0,0-.246-.51A2.614,2.614,0,0,0-1.015-11.593Z" transform="translate(250.912 966.38)" fill="#12263f"/>
    <path id="Trazado_1383719" data-name="Trazado 1383719" d="M-.881-6.142-1.995-2.329a4.689,4.689,0,0,0-.241,1.188.671.671,0,0,0,.288.566,2.311,2.311,0,0,0,1.2.232L-.881,0H-6.939l.111-.343A2.059,2.059,0,0,0-5.5-.7a3.357,3.357,0,0,0,.775-1.577l2.338-8.071a4.129,4.129,0,0,0,.195-1.067.685.685,0,0,0-.241-.566,2.326,2.326,0,0,0-1.123-.26l.093-.343H1.753A4.882,4.882,0,0,1,4.9-11.8a2.519,2.519,0,0,1,.909,2A3.2,3.2,0,0,1,4.75-7.468,5.634,5.634,0,0,1,2.384-6.346L3.516-2.533A5.012,5.012,0,0,0,4.309-.687a1.725,1.725,0,0,0,1.127.343V0H1.521L-.26-6.142l-.306.019Q-.668-6.123-.881-6.142Zm.13-.557q.325.019.547.019a2.921,2.921,0,0,0,2.227-.928,3.4,3.4,0,0,0,.872-2.431,1.835,1.835,0,0,0-.464-1.354,1.656,1.656,0,0,0-1.225-.464q-.186,0-.436.009Z" transform="translate(476.088 967.38)" fill="#12263f"/>
    <path id="Trazado_1383720" data-name="Trazado 1383720" d="M-3.368.288l.408-10.521q.028-.918.028-.965a1.013,1.013,0,0,0-.246-.751,1.446,1.446,0,0,0-.9-.288l.111-.343H1.317l-.1.343a1.272,1.272,0,0,0-1.025.408,3.005,3.005,0,0,0-.4,1.688l-.3,6.559L4.4-9.277a10.427,10.427,0,0,0,1.178-1.531A1.659,1.659,0,0,0,5.8-11.55a.54.54,0,0,0-.2-.413,1.62,1.62,0,0,0-.779-.274l.13-.343h3.47v.343a1.959,1.959,0,0,0-.724.325,9.83,9.83,0,0,0-1.262,1.3L-2.959.288Z" transform="translate(357.489 834.403)" fill="#12263f"/>
    <path id="Trazado_1383721" data-name="Trazado 1383721" d="M-3.368.288l.408-10.521q.028-.918.028-.965a1.013,1.013,0,0,0-.246-.751,1.446,1.446,0,0,0-.9-.288l.111-.343H1.317l-.1.343a1.272,1.272,0,0,0-1.025.408,3.005,3.005,0,0,0-.4,1.688l-.3,6.559L4.4-9.277a10.427,10.427,0,0,0,1.178-1.531A1.659,1.659,0,0,0,5.8-11.55a.54.54,0,0,0-.2-.413,1.62,1.62,0,0,0-.779-.274l.13-.343h3.47v.343a1.959,1.959,0,0,0-.724.325,9.83,9.83,0,0,0-1.262,1.3L-2.959.288Z" transform="translate(287.718 953.47)" fill="#12263f"/>
    <path id="Trazado_1383722" data-name="Trazado 1383722" d="M-3.368.288l.408-10.521q.028-.918.028-.965a1.013,1.013,0,0,0-.246-.751,1.446,1.446,0,0,0-.9-.288l.111-.343H1.317l-.1.343a1.272,1.272,0,0,0-1.025.408,3.005,3.005,0,0,0-.4,1.688l-.3,6.559L4.4-9.277a10.427,10.427,0,0,0,1.178-1.531A1.659,1.659,0,0,0,5.8-11.55a.54.54,0,0,0-.2-.413,1.62,1.62,0,0,0-.779-.274l.13-.343h3.47v.343a1.959,1.959,0,0,0-.724.325,9.83,9.83,0,0,0-1.262,1.3L-2.959.288Z" transform="translate(513.127 953.47)" fill="#12263f"/>
    <path id="Trazado_1383723" data-name="Trazado 1383723" d="M-.881-6.142-1.995-2.329a4.689,4.689,0,0,0-.241,1.188.671.671,0,0,0,.288.566,2.311,2.311,0,0,0,1.2.232L-.881,0H-6.939l.111-.343A2.059,2.059,0,0,0-5.5-.7a3.357,3.357,0,0,0,.775-1.577l2.338-8.071a4.129,4.129,0,0,0,.195-1.067.685.685,0,0,0-.241-.566,2.326,2.326,0,0,0-1.123-.26l.093-.343H1.753A4.882,4.882,0,0,1,4.9-11.8a2.519,2.519,0,0,1,.909,2A3.2,3.2,0,0,1,4.75-7.468,5.634,5.634,0,0,1,2.384-6.346L3.516-2.533A5.012,5.012,0,0,0,4.309-.687a1.725,1.725,0,0,0,1.127.343V0H1.521L-.26-6.142l-.306.019Q-.668-6.123-.881-6.142Zm.13-.557q.325.019.547.019a2.921,2.921,0,0,0,2.227-.928,3.4,3.4,0,0,0,.872-2.431,1.835,1.835,0,0,0-.464-1.354,1.656,1.656,0,0,0-1.225-.464q-.186,0-.436.009Z" transform="translate(287.718 980.977)" fill="#12263f"/>
    <path id="Trazado_1383724" data-name="Trazado 1383724" d="M-1.015-11.593l.1-.325H4.9l-.114.325a1.83,1.83,0,0,0-1.208.352,3.054,3.054,0,0,0-.734,1.468L.664-2.145A4.906,4.906,0,0,0,.426-1.063a.57.57,0,0,0,.246.492,2.269,2.269,0,0,0,1.2.246L1.78,0H-4.135l.1-.325a2.04,2.04,0,0,0,1.3-.338,3.1,3.1,0,0,0,.747-1.481l2.2-7.629a4.241,4.241,0,0,0,.2-1.063.6.6,0,0,0-.246-.51A2.614,2.614,0,0,0-1.015-11.593Z" transform="translate(513.36 979.977)" fill="#12263f"/>
    <path id="Trazado_1383725" data-name="Trazado 1383725" d="M-.881-6.142-1.995-2.329a4.689,4.689,0,0,0-.241,1.188.671.671,0,0,0,.288.566,2.311,2.311,0,0,0,1.2.232L-.881,0H-6.939l.111-.343A2.059,2.059,0,0,0-5.5-.7a3.357,3.357,0,0,0,.775-1.577l2.338-8.071a4.129,4.129,0,0,0,.195-1.067.685.685,0,0,0-.241-.566,2.326,2.326,0,0,0-1.123-.26l.093-.343H1.753A4.882,4.882,0,0,1,4.9-11.8a2.519,2.519,0,0,1,.909,2A3.2,3.2,0,0,1,4.75-7.468,5.634,5.634,0,0,1,2.384-6.346L3.516-2.533A5.012,5.012,0,0,0,4.309-.687a1.725,1.725,0,0,0,1.127.343V0H1.521L-.26-6.142l-.306.019Q-.668-6.123-.881-6.142Zm.13-.557q.325.019.547.019a2.921,2.921,0,0,0,2.227-.928,3.4,3.4,0,0,0,.872-2.431,1.835,1.835,0,0,0-.464-1.354,1.656,1.656,0,0,0-1.225-.464q-.186,0-.436.009Z" transform="translate(389.236 834.403)" fill="#12263f"/>
    <path id="Trazado_1383726" data-name="Trazado 1383726" d="M-1.015-11.593l.1-.325H4.9l-.114.325a1.83,1.83,0,0,0-1.208.352,3.054,3.054,0,0,0-.734,1.468L.664-2.145A4.906,4.906,0,0,0,.426-1.063a.57.57,0,0,0,.246.492,2.269,2.269,0,0,0,1.2.246L1.78,0H-4.135l.1-.325a2.04,2.04,0,0,0,1.3-.338,3.1,3.1,0,0,0,.747-1.481l2.2-7.629a4.241,4.241,0,0,0,.2-1.063.6.6,0,0,0-.246-.51A2.614,2.614,0,0,0-1.015-11.593Z" transform="translate(414.867 833.403)" fill="#12263f"/>
    <path id="Trazado_1383727" data-name="Trazado 1383727" d="M-4.671-8.387H5.478v1.206H-4.671Zm0,3.034H5.478v1.206H-4.671Z" transform="translate(266.611 967.38)" fill="#12263f"/>
    <path id="Trazado_1383728" data-name="Trazado 1383728" d="M-4.671-8.387H5.478v1.206H-4.671Zm0,3.034H5.478v1.206H-4.671Z" transform="translate(492.02 967.38)" fill="#12263f"/>
    <path id="Trazado_1383729" data-name="Trazado 1383729" d="M-4.671-8.387H5.478v1.206H-4.671Zm0,3.034H5.478v1.206H-4.671Z" transform="translate(373.421 834.403)" fill="#12263f"/>
    <path id="Trazado_1383730" data-name="Trazado 1383730" d="M.255-8.916a2.543,2.543,0,0,1,1.874.775A2.555,2.555,0,0,1,2.9-6.271,2.563,2.563,0,0,1,2.125-4.4a2.54,2.54,0,0,1-1.869.779,2.558,2.558,0,0,1-1.879-.775A2.558,2.558,0,0,1-2.4-6.271a2.555,2.555,0,0,1,.77-1.869A2.554,2.554,0,0,1,.255-8.916Z" transform="translate(405.285 834.403)" fill="#12263f"/>
    <path id="Trazado_1383731" data-name="Trazado 1383731" d="M.734,0H-.743V-12.6H.734Z" transform="translate(358.515 940.669)" fill="#12263f"/>
    <path id="Trazado_1383732" data-name="Trazado 1383732" d="M5.6,0H3.743L1.517-3.729a8.123,8.123,0,0,0-.594-.886,3.385,3.385,0,0,0-.589-.6,2.04,2.04,0,0,0-.649-.339A2.67,2.67,0,0,0-1.1-5.659H-2.38V0H-3.938V-13.3H.032a5.659,5.659,0,0,1,1.61.218,3.6,3.6,0,0,1,1.28.663,3.083,3.083,0,0,1,.849,1.109A3.676,3.676,0,0,1,4.077-9.76a3.742,3.742,0,0,1-.209,1.276A3.332,3.332,0,0,1,3.275-7.45a3.6,3.6,0,0,1-.928.775,4.736,4.736,0,0,1-1.22.5v.037a2.806,2.806,0,0,1,.58.339,3.191,3.191,0,0,1,.469.45,5.96,5.96,0,0,1,.441.589q.218.329.487.765ZM-2.38-11.894v4.824H-.264A3.208,3.208,0,0,0,.816-7.246a2.5,2.5,0,0,0,.858-.506,2.293,2.293,0,0,0,.566-.807,2.7,2.7,0,0,0,.2-1.072A2.086,2.086,0,0,0,1.753-11.3a2.969,2.969,0,0,0-2-.6Z" transform="translate(409.608 941.669)" fill="#12263f"/>
    <path id="Trazado_1383733" data-name="Trazado 1383733" d="M0,0H22.223" transform="translate(277.956 960.977)" fill="none" stroke="#12263f" stroke-width="1"/>
    <path id="Trazado_1383734" data-name="Trazado 1383734" d="M0,0H22.223" transform="translate(503.365 960.977)" fill="none" stroke="#12263f" stroke-width="1"/>
  </g>
</svg>
