<svg xmlns="http://www.w3.org/2000/svg" width="395.141" height="218.708" viewBox="0 0 395.141 218.708">
  <g id="Grupo_1212883" data-name="Grupo 1212883" transform="translate(-602 -1943.031)">
    <path id="_23-2150376976" data-name="23-2150376976" d="M16,0H379.141a16,16,0,0,1,16,16V218.708H0V16A16,16,0,0,1,16,0Z" transform="translate(602 1943.031)" fill="#e8fefe"/>
    <path id="Trazado_1383435" data-name="Trazado 1383435" d="M64.529,41.6h-39.1L1.31,83.693a6.022,6.022,0,0,0,5.226,9.016H64.529Z" transform="translate(734.906 2014.744)" fill="#1df2f2"/>
    <path id="Trazado_1383436" data-name="Trazado 1383436" d="M42.843,41.6h39.1l24.121,42.092a6.022,6.022,0,0,1-5.226,9.016H42.843Z" transform="translate(756.592 2014.744)" fill="#fe9341"/>
    <path id="Trazado_1383437" data-name="Trazado 1383437" d="M95.186,62.649,61.312,3.536a6.023,6.023,0,0,0-10.451,0L16.988,62.649Z" transform="translate(743.349 1993.695)" fill="#0460d9"/>
    <path id="Trazado_1383743" data-name="Trazado 1383743" d="M-2.018-5.028V0H-3.576V-13.3H.079a4.825,4.825,0,0,1,3.307,1.039A3.71,3.71,0,0,1,4.56-9.333a4.032,4.032,0,0,1-1.3,3.1A4.98,4.98,0,0,1-.264-5.028Zm0-6.865v5.455H-.385a3.651,3.651,0,0,0,2.463-.738,2.611,2.611,0,0,0,.849-2.083q0-2.635-3.117-2.635Z" transform="translate(799.086 2037.11)" fill="#fff"/>
    <path id="Trazado_1383744" data-name="Trazado 1383744" d="M-3.19.272-2.8-9.694q.026-.87.026-.914a.96.96,0,0,0-.233-.712,1.37,1.37,0,0,0-.857-.272l.105-.325h5.01l-.1.325a1.205,1.205,0,0,0-.971.387A2.847,2.847,0,0,0-.2-9.606L-.483-3.393l4.649-5.4a9.878,9.878,0,0,0,1.116-1.45,1.572,1.572,0,0,0,.211-.7.512.512,0,0,0-.193-.391,1.535,1.535,0,0,0-.738-.259l.123-.325H7.972v.325a1.856,1.856,0,0,0-.686.308,9.312,9.312,0,0,0-1.2,1.23L-2.8.272Z" transform="translate(666.052 2113.911)" fill="#12263f"/>
    <path id="Trazado_1383745" data-name="Trazado 1383745" d="M-1.072-12.237l.1-.343H5.172l-.121.343a1.931,1.931,0,0,0-1.276.371A3.224,3.224,0,0,0,3-10.316L.7-2.264A5.178,5.178,0,0,0,.45-1.123.6.6,0,0,0,.71-.6a2.4,2.4,0,0,0,1.262.26L1.879,0H-4.365l.1-.343A2.153,2.153,0,0,0-2.89-.7,3.275,3.275,0,0,0-2.1-2.264L.218-10.316a4.477,4.477,0,0,0,.213-1.123.635.635,0,0,0-.26-.538A2.76,2.76,0,0,0-1.072-12.237Z" transform="translate(891.229 2114.911)" fill="#12263f"/>
    <path id="Trazado_1383746" data-name="Trazado 1383746" d="M-.413-5.78-1.433-2.273a4.477,4.477,0,0,0-.213,1.048.769.769,0,0,0,.278.645A2.409,2.409,0,0,0-.107-.343L-.227,0H-6.369l.1-.343A3.081,3.081,0,0,0-5.163-.5a1.24,1.24,0,0,0,.538-.469,5.768,5.768,0,0,0,.473-1.308l2.329-7.988A4.6,4.6,0,0,0-1.582-11.4a.71.71,0,0,0-.306-.58A1.98,1.98,0,0,0-3-12.237l.1-.343H2.083a6.212,6.212,0,0,1,2.95.52A2.661,2.661,0,0,1,6.425-9.611,3.593,3.593,0,0,1,5.038-6.833,5.507,5.507,0,0,1,1.3-5.631,12.124,12.124,0,0,1-.413-5.78Zm.186-.714a8.478,8.478,0,0,0,1,.074A2.267,2.267,0,0,0,2.788-7.589a4.527,4.527,0,0,0,.733-2.44,1.823,1.823,0,0,0-.473-1.341,1.758,1.758,0,0,0-1.308-.478q-.176,0-.436.019Z" transform="translate(772.629 1981.935)" fill="#12263f"/>
    <path id="Trazado_1383747" data-name="Trazado 1383747" d="M-.413-5.78-1.433-2.273a4.477,4.477,0,0,0-.213,1.048.769.769,0,0,0,.278.645A2.409,2.409,0,0,0-.107-.343L-.227,0H-6.369l.1-.343A3.081,3.081,0,0,0-5.163-.5a1.24,1.24,0,0,0,.538-.469,5.768,5.768,0,0,0,.473-1.308l2.329-7.988A4.6,4.6,0,0,0-1.582-11.4a.71.71,0,0,0-.306-.58A1.98,1.98,0,0,0-3-12.237l.1-.343H2.083a6.212,6.212,0,0,1,2.95.52A2.661,2.661,0,0,1,6.425-9.611,3.593,3.593,0,0,1,5.038-6.833,5.507,5.507,0,0,1,1.3-5.631,12.124,12.124,0,0,1-.413-5.78Zm.186-.714a8.478,8.478,0,0,0,1,.074A2.267,2.267,0,0,0,2.788-7.589a4.527,4.527,0,0,0,.733-2.44,1.823,1.823,0,0,0-.473-1.341,1.758,1.758,0,0,0-1.308-.478q-.176,0-.436.019Z" transform="translate(702.858 2101.001)" fill="#12263f"/>
    <path id="Trazado_1383748" data-name="Trazado 1383748" d="M-.413-5.78-1.433-2.273a4.477,4.477,0,0,0-.213,1.048.769.769,0,0,0,.278.645A2.409,2.409,0,0,0-.107-.343L-.227,0H-6.369l.1-.343A3.081,3.081,0,0,0-5.163-.5a1.24,1.24,0,0,0,.538-.469,5.768,5.768,0,0,0,.473-1.308l2.329-7.988A4.6,4.6,0,0,0-1.582-11.4a.71.71,0,0,0-.306-.58A1.98,1.98,0,0,0-3-12.237l.1-.343H2.083a6.212,6.212,0,0,1,2.95.52A2.661,2.661,0,0,1,6.425-9.611,3.593,3.593,0,0,1,5.038-6.833,5.507,5.507,0,0,1,1.3-5.631,12.124,12.124,0,0,1-.413-5.78Zm.186-.714a8.478,8.478,0,0,0,1,.074A2.267,2.267,0,0,0,2.788-7.589a4.527,4.527,0,0,0,.733-2.44,1.823,1.823,0,0,0-.473-1.341,1.758,1.758,0,0,0-1.308-.478q-.176,0-.436.019Z" transform="translate(928.268 2101.001)" fill="#12263f"/>
    <path id="Trazado_1383749" data-name="Trazado 1383749" d="M-1.072-12.237l.1-.343H5.172l-.121.343a1.931,1.931,0,0,0-1.276.371A3.224,3.224,0,0,0,3-10.316L.7-2.264A5.178,5.178,0,0,0,.45-1.123.6.6,0,0,0,.71-.6a2.4,2.4,0,0,0,1.262.26L1.879,0H-4.365l.1-.343A2.153,2.153,0,0,0-2.89-.7,3.275,3.275,0,0,0-2.1-2.264L.218-10.316a4.477,4.477,0,0,0,.213-1.123.635.635,0,0,0-.26-.538A2.76,2.76,0,0,0-1.072-12.237Z" transform="translate(702.858 2128.508)" fill="#12263f"/>
    <path id="Trazado_1383750" data-name="Trazado 1383750" d="M-3.19.272-2.8-9.694q.026-.87.026-.914a.96.96,0,0,0-.233-.712,1.37,1.37,0,0,0-.857-.272l.105-.325h5.01l-.1.325a1.205,1.205,0,0,0-.971.387A2.847,2.847,0,0,0-.2-9.606L-.483-3.393l4.649-5.4a9.878,9.878,0,0,0,1.116-1.45,1.572,1.572,0,0,0,.211-.7.512.512,0,0,0-.193-.391,1.535,1.535,0,0,0-.738-.259l.123-.325H7.972v.325a1.856,1.856,0,0,0-.686.308,9.312,9.312,0,0,0-1.2,1.23L-2.8.272Z" transform="translate(928.501 2127.508)" fill="#12263f"/>
    <path id="Trazado_1383751" data-name="Trazado 1383751" d="M-3.368.288l.408-10.521q.028-.918.028-.965a1.013,1.013,0,0,0-.246-.751,1.446,1.446,0,0,0-.9-.288l.111-.343H1.317l-.1.343a1.272,1.272,0,0,0-1.025.408,3.005,3.005,0,0,0-.4,1.688l-.3,6.559L4.4-9.277a10.427,10.427,0,0,0,1.178-1.531A1.659,1.659,0,0,0,5.8-11.55a.54.54,0,0,0-.2-.413,1.62,1.62,0,0,0-.779-.274l.13-.343h3.47v.343a1.959,1.959,0,0,0-.724.325,9.83,9.83,0,0,0-1.262,1.3L-2.959.288Z" transform="translate(804.377 1981.935)" fill="#12263f"/>
    <path id="Trazado_1383752" data-name="Trazado 1383752" d="M-1.015-11.593l.1-.325H4.9l-.114.325a1.83,1.83,0,0,0-1.208.352,3.054,3.054,0,0,0-.734,1.468L.664-2.145A4.906,4.906,0,0,0,.426-1.063a.57.57,0,0,0,.246.492,2.269,2.269,0,0,0,1.2.246L1.78,0H-4.135l.1-.325a2.04,2.04,0,0,0,1.3-.338,3.1,3.1,0,0,0,.747-1.481l2.2-7.629a4.241,4.241,0,0,0,.2-1.063.6.6,0,0,0-.246-.51A2.614,2.614,0,0,0-1.015-11.593Z" transform="translate(830.008 1980.935)" fill="#12263f"/>
    <path id="Trazado_1383753" data-name="Trazado 1383753" d="M-4.671-8.387H5.478v1.206H-4.671Zm0,3.034H5.478v1.206H-4.671Z" transform="translate(681.751 2114.911)" fill="#12263f"/>
    <path id="Trazado_1383754" data-name="Trazado 1383754" d="M-4.671-8.387H5.478v1.206H-4.671Zm0,3.034H5.478v1.206H-4.671Z" transform="translate(907.161 2114.911)" fill="#12263f"/>
    <path id="Trazado_1383755" data-name="Trazado 1383755" d="M-4.671-8.387H5.478v1.206H-4.671Zm0,3.034H5.478v1.206H-4.671Z" transform="translate(788.561 1981.935)" fill="#12263f"/>
    <path id="Trazado_1383756" data-name="Trazado 1383756" d="M.255-8.916a2.543,2.543,0,0,1,1.874.775A2.555,2.555,0,0,1,2.9-6.271,2.563,2.563,0,0,1,2.125-4.4a2.54,2.54,0,0,1-1.869.779,2.558,2.558,0,0,1-1.879-.775A2.558,2.558,0,0,1-2.4-6.271a2.555,2.555,0,0,1,.77-1.869A2.554,2.554,0,0,1,.255-8.916Z" transform="translate(820.426 1981.935)" fill="#12263f"/>
    <path id="Trazado_1383757" data-name="Trazado 1383757" d="M5.432-12.6.765,0H-.861l-4.57-12.6h1.644L-.3-2.61A5.934,5.934,0,0,1-.044-1.494h.035a5.475,5.475,0,0,1,.29-1.134L3.841-12.6Z" transform="translate(773.656 2088.2)" fill="#12263f"/>
    <path id="Trazado_1383758" data-name="Trazado 1383758" d="M.775,0H-.784V-13.3H.775Z" transform="translate(824.749 2089.2)" fill="#12263f"/>
    <path id="Trazado_1383759" data-name="Trazado 1383759" d="M0,0H22.223" transform="translate(693.096 2108.508)" fill="none" stroke="#12263f" stroke-width="1"/>
    <path id="Trazado_1383760" data-name="Trazado 1383760" d="M0,0H22.223" transform="translate(918.505 2108.508)" fill="none" stroke="#12263f" stroke-width="1"/>
  </g>
</svg>
