<svg xmlns="http://www.w3.org/2000/svg" width="395.141" height="218.708" viewBox="0 0 395.141 218.708">
  <g id="Grupo_1212882" data-name="Grupo 1212882" transform="translate(-603.281 -795.137)">
    <path id="_1150-6115" data-name="1150-6115" d="M16,0H379.141a16,16,0,0,1,16,16V218.708H0V16A16,16,0,0,1,16,0Z" transform="translate(603.281 795.137)" fill="#e8fefe"/>
    <path id="Trazado_1370531" data-name="Trazado 1370531" d="M182.808,95.643H133.582L113.5,77.355,93.529,95.643H44.185V24.7H94l19.5,18.288L133.582,24.7h49.226Z" transform="translate(685.61 845.398)" fill="#0a557b"/>
    <path id="Trazado_1370532" data-name="Trazado 1370532" d="M193.759,59.786c0,19.59-5.725,35.47-12.787,35.47s-12.787-15.88-12.787-35.47,5.725-35.47,12.787-35.47,12.787,15.88,12.787,35.47" transform="translate(687.069 845.678)" fill="#084462"/>
    <path id="Trazado_1370533" data-name="Trazado 1370533" d="M60.96,59.785c0,19.59-5.825,35.469-13.012,35.469S34.935,79.375,34.935,59.785,40.76,24.316,47.947,24.316,60.96,40.2,60.96,59.785" transform="translate(681.849 845.678)" fill="#0a557b"/>
    <path id="Trazado_1383735" data-name="Trazado 1383735" d="M0,0H49.619V24.849H0Z" transform="translate(644.809 893.038)" fill="#0460d9"/>
    <path id="Trazado_1383736" data-name="Trazado 1383736" d="M0,0H68.562V24.849H0Z" transform="translate(869.494 893.038)" fill="#1df2f2"/>
    <path id="Trazado_1370534" data-name="Trazado 1370534" d="M43.051,60.939l-23.2,20.3v-40.6Z" transform="translate(668.132 844.524)" fill="#0460d9"/>
    <path id="Trazado_1370538" data-name="Trazado 1370538" d="M43.051,60.939l-23.2,20.3v-40.6Z" transform="translate(912.353 844.524)" fill="#1df2f2"/>
    <path id="Trazado_1383737" data-name="Trazado 1383737" d="M0,0H10.838V32.095H0Z" transform="translate(793.688 835.242)" fill="#fe9341"/>
    <path id="Trazado_1370536" data-name="Trazado 1370536" d="M113.481,34.857,100.352,19.852H126.61Z" transform="translate(685.626 843.316)" fill="#fe9341"/>
    <path id="Trazado_1383738" data-name="Trazado 1383738" d="M0,0H10.838V32.095H0Z" transform="translate(793.688 943.692)" fill="#fe9341"/>
    <path id="Trazado_1370537" data-name="Trazado 1370537" d="M113.481,69.389,126.61,84.4H100.352Z" transform="translate(685.626 863.466)" fill="#fe9341"/>
    <path id="Trazado_1383739" data-name="Trazado 1383739" d="M-29.286,0h-1.562l-1.875-3.141a6.84,6.84,0,0,0-.5-.746,2.85,2.85,0,0,0-.5-.5,1.718,1.718,0,0,0-.547-.285,2.249,2.249,0,0,0-.66-.09H-36V0h-1.312V-11.2h3.344a4.765,4.765,0,0,1,1.355.184,3.033,3.033,0,0,1,1.078.559,2.6,2.6,0,0,1,.715.934,3.1,3.1,0,0,1,.258,1.309,3.151,3.151,0,0,1-.176,1.074,2.805,2.805,0,0,1-.5.871,3.031,3.031,0,0,1-.781.652,3.988,3.988,0,0,1-1.027.418v.031a2.363,2.363,0,0,1,.488.285,2.687,2.687,0,0,1,.395.379,5.019,5.019,0,0,1,.371.5q.184.277.41.645ZM-36-10.016v4.063h1.781a2.7,2.7,0,0,0,.91-.148,2.107,2.107,0,0,0,.723-.426,1.931,1.931,0,0,0,.477-.68,2.275,2.275,0,0,0,.172-.9,1.756,1.756,0,0,0-.582-1.4,2.5,2.5,0,0,0-1.684-.5ZM-21.918-3.68h-5.648a2.992,2.992,0,0,0,.719,2.063,2.478,2.478,0,0,0,1.891.727,3.931,3.931,0,0,0,2.484-.891v1.2a4.643,4.643,0,0,1-2.789.766A3.381,3.381,0,0,1-27.926-.9a4.461,4.461,0,0,1-.969-3.066,4.375,4.375,0,0,1,1.059-3.043,3.394,3.394,0,0,1,2.629-1.176,3.008,3.008,0,0,1,2.43,1.016,4.234,4.234,0,0,1,.859,2.82ZM-23.23-4.766a2.607,2.607,0,0,0-.535-1.727,1.823,1.823,0,0,0-1.465-.617,2.07,2.07,0,0,0-1.539.648,2.943,2.943,0,0,0-.781,1.7Zm2.806,4.477V-1.664a3.792,3.792,0,0,0,2.3.773q1.688,0,1.688-1.125a.976.976,0,0,0-.145-.543,1.44,1.44,0,0,0-.391-.395,3.007,3.007,0,0,0-.578-.309q-.332-.137-.715-.285a9.207,9.207,0,0,1-.934-.426,2.82,2.82,0,0,1-.672-.484,1.8,1.8,0,0,1-.406-.613,2.17,2.17,0,0,1-.137-.8,1.912,1.912,0,0,1,.258-1,2.286,2.286,0,0,1,.688-.727,3.206,3.206,0,0,1,.98-.441,4.349,4.349,0,0,1,1.137-.148,4.59,4.59,0,0,1,1.859.359v1.3a3.624,3.624,0,0,0-2.031-.578,2.374,2.374,0,0,0-.648.082,1.587,1.587,0,0,0-.5.23,1.065,1.065,0,0,0-.32.355.936.936,0,0,0-.113.457,1.1,1.1,0,0,0,.113.523,1.152,1.152,0,0,0,.332.375,2.538,2.538,0,0,0,.531.3q.313.133.711.289a9.9,9.9,0,0,1,.953.418,3.269,3.269,0,0,1,.719.484,1.893,1.893,0,0,1,.457.621,2,2,0,0,1,.16.836,1.971,1.971,0,0,1-.262,1.031,2.243,2.243,0,0,1-.7.727,3.2,3.2,0,0,1-1.008.43,4.976,4.976,0,0,1-1.2.141A4.539,4.539,0,0,1-20.425-.289Zm7.97-9.742a.812.812,0,0,1-.586-.234.791.791,0,0,1-.242-.594.8.8,0,0,1,.242-.6.8.8,0,0,1,.586-.238.827.827,0,0,1,.6.238.8.8,0,0,1,.246.6.792.792,0,0,1-.246.586A.82.82,0,0,1-12.455-10.031ZM-11.83,0h-1.281V-8h1.281Zm2.149-.289V-1.664a3.792,3.792,0,0,0,2.3.773q1.688,0,1.688-1.125a.976.976,0,0,0-.145-.543,1.44,1.44,0,0,0-.391-.395A3.007,3.007,0,0,0-6.8-3.262q-.332-.137-.715-.285a9.207,9.207,0,0,1-.934-.426,2.82,2.82,0,0,1-.672-.484,1.8,1.8,0,0,1-.406-.613,2.17,2.17,0,0,1-.137-.8,1.912,1.912,0,0,1,.258-1A2.286,2.286,0,0,1-8.72-7.6a3.206,3.206,0,0,1,.98-.441A4.349,4.349,0,0,1-6.6-8.187a4.59,4.59,0,0,1,1.859.359v1.3a3.624,3.624,0,0,0-2.031-.578,2.374,2.374,0,0,0-.648.082,1.587,1.587,0,0,0-.5.23,1.065,1.065,0,0,0-.32.355.936.936,0,0,0-.113.457,1.1,1.1,0,0,0,.113.523,1.152,1.152,0,0,0,.332.375,2.538,2.538,0,0,0,.531.3q.313.133.711.289a9.9,9.9,0,0,1,.953.418,3.269,3.269,0,0,1,.719.484,1.893,1.893,0,0,1,.457.621,2,2,0,0,1,.16.836,1.971,1.971,0,0,1-.262,1.031,2.243,2.243,0,0,1-.7.727,3.2,3.2,0,0,1-1.008.43,4.976,4.976,0,0,1-1.2.141A4.539,4.539,0,0,1-9.681-.289ZM1.344-.078a2.47,2.47,0,0,1-1.2.25q-2.1,0-2.1-2.344V-6.906H-3.328V-8h1.375V-9.953l1.281-.414V-8H1.344v1.094H-.672V-2.4A1.869,1.869,0,0,0-.4-1.25a1.091,1.091,0,0,0,.906.344,1.347,1.347,0,0,0,.836-.266Zm8.181-3.6H3.876a2.992,2.992,0,0,0,.719,2.063,2.478,2.478,0,0,0,1.891.727A3.931,3.931,0,0,0,8.97-1.781v1.2A4.643,4.643,0,0,1,6.181.188,3.381,3.381,0,0,1,3.517-.9a4.461,4.461,0,0,1-.969-3.066A4.375,4.375,0,0,1,3.606-7.012,3.394,3.394,0,0,1,6.235-8.187a3.008,3.008,0,0,1,2.43,1.016,4.234,4.234,0,0,1,.859,2.82ZM8.212-4.766a2.607,2.607,0,0,0-.535-1.727,1.823,1.823,0,0,0-1.465-.617,2.07,2.07,0,0,0-1.539.648,2.943,2.943,0,0,0-.781,1.7ZM18.143,0H16.861V-4.562q0-2.547-1.859-2.547a2.017,2.017,0,0,0-1.59.723,2.679,2.679,0,0,0-.629,1.824V0H11.5V-8h1.281v1.328h.031a2.887,2.887,0,0,1,2.625-1.516,2.448,2.448,0,0,1,2.008.848,3.776,3.776,0,0,1,.7,2.449ZM26.05-.367a4.163,4.163,0,0,1-2.187.555A3.622,3.622,0,0,1,21.1-.926,4.035,4.035,0,0,1,20.05-3.812a4.435,4.435,0,0,1,1.133-3.176,3.963,3.963,0,0,1,3.023-1.2,4.209,4.209,0,0,1,1.859.391v1.313a3.258,3.258,0,0,0-1.906-.625,2.576,2.576,0,0,0-2.012.879,3.335,3.335,0,0,0-.785,2.309A3.176,3.176,0,0,0,22.1-1.7a2.545,2.545,0,0,0,1.98.813,3.211,3.211,0,0,0,1.969-.7Zm2.634-9.664a.812.812,0,0,1-.586-.234.791.791,0,0,1-.242-.594.8.8,0,0,1,.242-.6.8.8,0,0,1,.586-.238.827.827,0,0,1,.6.238.8.8,0,0,1,.246.6.792.792,0,0,1-.246.586A.82.82,0,0,1,28.683-10.031ZM29.308,0H28.027V-8h1.281Zm8.36,0H36.388V-1.25h-.031A2.682,2.682,0,0,1,33.9.188a2.63,2.63,0,0,1-1.871-.633,2.192,2.192,0,0,1-.676-1.68q0-2.242,2.641-2.609l2.4-.336q0-2.039-1.648-2.039a3.938,3.938,0,0,0-2.609.984V-7.437a4.958,4.958,0,0,1,2.719-.75q2.82,0,2.82,2.984ZM36.388-4.047l-1.93.266a3.133,3.133,0,0,0-1.344.441,1.273,1.273,0,0,0-.453,1.121,1.221,1.221,0,0,0,.418.957,1.615,1.615,0,0,0,1.113.371,2.056,2.056,0,0,0,1.574-.668,2.387,2.387,0,0,0,.621-1.691Z" transform="translate(798.386 825.47)" fill="#12263f"/>
    <path id="Trazado_1383740" data-name="Trazado 1383740" d="M-29.286,0h-1.562l-1.875-3.141a6.84,6.84,0,0,0-.5-.746,2.85,2.85,0,0,0-.5-.5,1.718,1.718,0,0,0-.547-.285,2.249,2.249,0,0,0-.66-.09H-36V0h-1.312V-11.2h3.344a4.765,4.765,0,0,1,1.355.184,3.033,3.033,0,0,1,1.078.559,2.6,2.6,0,0,1,.715.934,3.1,3.1,0,0,1,.258,1.309,3.151,3.151,0,0,1-.176,1.074,2.805,2.805,0,0,1-.5.871,3.031,3.031,0,0,1-.781.652,3.988,3.988,0,0,1-1.027.418v.031a2.363,2.363,0,0,1,.488.285,2.687,2.687,0,0,1,.395.379,5.019,5.019,0,0,1,.371.5q.184.277.41.645ZM-36-10.016v4.063h1.781a2.7,2.7,0,0,0,.91-.148,2.107,2.107,0,0,0,.723-.426,1.931,1.931,0,0,0,.477-.68,2.275,2.275,0,0,0,.172-.9,1.756,1.756,0,0,0-.582-1.4,2.5,2.5,0,0,0-1.684-.5ZM-21.918-3.68h-5.648a2.992,2.992,0,0,0,.719,2.063,2.478,2.478,0,0,0,1.891.727,3.931,3.931,0,0,0,2.484-.891v1.2a4.643,4.643,0,0,1-2.789.766A3.381,3.381,0,0,1-27.926-.9a4.461,4.461,0,0,1-.969-3.066,4.375,4.375,0,0,1,1.059-3.043,3.394,3.394,0,0,1,2.629-1.176,3.008,3.008,0,0,1,2.43,1.016,4.234,4.234,0,0,1,.859,2.82ZM-23.23-4.766a2.607,2.607,0,0,0-.535-1.727,1.823,1.823,0,0,0-1.465-.617,2.07,2.07,0,0,0-1.539.648,2.943,2.943,0,0,0-.781,1.7Zm2.806,4.477V-1.664a3.792,3.792,0,0,0,2.3.773q1.688,0,1.688-1.125a.976.976,0,0,0-.145-.543,1.44,1.44,0,0,0-.391-.395,3.007,3.007,0,0,0-.578-.309q-.332-.137-.715-.285a9.207,9.207,0,0,1-.934-.426,2.82,2.82,0,0,1-.672-.484,1.8,1.8,0,0,1-.406-.613,2.17,2.17,0,0,1-.137-.8,1.912,1.912,0,0,1,.258-1,2.286,2.286,0,0,1,.688-.727,3.206,3.206,0,0,1,.98-.441,4.349,4.349,0,0,1,1.137-.148,4.59,4.59,0,0,1,1.859.359v1.3a3.624,3.624,0,0,0-2.031-.578,2.374,2.374,0,0,0-.648.082,1.587,1.587,0,0,0-.5.23,1.065,1.065,0,0,0-.32.355.936.936,0,0,0-.113.457,1.1,1.1,0,0,0,.113.523,1.152,1.152,0,0,0,.332.375,2.538,2.538,0,0,0,.531.3q.313.133.711.289a9.9,9.9,0,0,1,.953.418,3.269,3.269,0,0,1,.719.484,1.893,1.893,0,0,1,.457.621,2,2,0,0,1,.16.836,1.971,1.971,0,0,1-.262,1.031,2.243,2.243,0,0,1-.7.727,3.2,3.2,0,0,1-1.008.43,4.976,4.976,0,0,1-1.2.141A4.539,4.539,0,0,1-20.425-.289Zm7.97-9.742a.812.812,0,0,1-.586-.234.791.791,0,0,1-.242-.594.8.8,0,0,1,.242-.6.8.8,0,0,1,.586-.238.827.827,0,0,1,.6.238.8.8,0,0,1,.246.6.792.792,0,0,1-.246.586A.82.82,0,0,1-12.455-10.031ZM-11.83,0h-1.281V-8h1.281Zm2.149-.289V-1.664a3.792,3.792,0,0,0,2.3.773q1.688,0,1.688-1.125a.976.976,0,0,0-.145-.543,1.44,1.44,0,0,0-.391-.395A3.007,3.007,0,0,0-6.8-3.262q-.332-.137-.715-.285a9.207,9.207,0,0,1-.934-.426,2.82,2.82,0,0,1-.672-.484,1.8,1.8,0,0,1-.406-.613,2.17,2.17,0,0,1-.137-.8,1.912,1.912,0,0,1,.258-1A2.286,2.286,0,0,1-8.72-7.6a3.206,3.206,0,0,1,.98-.441A4.349,4.349,0,0,1-6.6-8.187a4.59,4.59,0,0,1,1.859.359v1.3a3.624,3.624,0,0,0-2.031-.578,2.374,2.374,0,0,0-.648.082,1.587,1.587,0,0,0-.5.23,1.065,1.065,0,0,0-.32.355.936.936,0,0,0-.113.457,1.1,1.1,0,0,0,.113.523,1.152,1.152,0,0,0,.332.375,2.538,2.538,0,0,0,.531.3q.313.133.711.289a9.9,9.9,0,0,1,.953.418,3.269,3.269,0,0,1,.719.484,1.893,1.893,0,0,1,.457.621,2,2,0,0,1,.16.836,1.971,1.971,0,0,1-.262,1.031,2.243,2.243,0,0,1-.7.727,3.2,3.2,0,0,1-1.008.43,4.976,4.976,0,0,1-1.2.141A4.539,4.539,0,0,1-9.681-.289ZM1.344-.078a2.47,2.47,0,0,1-1.2.25q-2.1,0-2.1-2.344V-6.906H-3.328V-8h1.375V-9.953l1.281-.414V-8H1.344v1.094H-.672V-2.4A1.869,1.869,0,0,0-.4-1.25a1.091,1.091,0,0,0,.906.344,1.347,1.347,0,0,0,.836-.266Zm8.181-3.6H3.876a2.992,2.992,0,0,0,.719,2.063,2.478,2.478,0,0,0,1.891.727A3.931,3.931,0,0,0,8.97-1.781v1.2A4.643,4.643,0,0,1,6.181.188,3.381,3.381,0,0,1,3.517-.9a4.461,4.461,0,0,1-.969-3.066A4.375,4.375,0,0,1,3.606-7.012,3.394,3.394,0,0,1,6.235-8.187a3.008,3.008,0,0,1,2.43,1.016,4.234,4.234,0,0,1,.859,2.82ZM8.212-4.766a2.607,2.607,0,0,0-.535-1.727,1.823,1.823,0,0,0-1.465-.617,2.07,2.07,0,0,0-1.539.648,2.943,2.943,0,0,0-.781,1.7ZM18.143,0H16.861V-4.562q0-2.547-1.859-2.547a2.017,2.017,0,0,0-1.59.723,2.679,2.679,0,0,0-.629,1.824V0H11.5V-8h1.281v1.328h.031a2.887,2.887,0,0,1,2.625-1.516,2.448,2.448,0,0,1,2.008.848,3.776,3.776,0,0,1,.7,2.449ZM26.05-.367a4.163,4.163,0,0,1-2.187.555A3.622,3.622,0,0,1,21.1-.926,4.035,4.035,0,0,1,20.05-3.812a4.435,4.435,0,0,1,1.133-3.176,3.963,3.963,0,0,1,3.023-1.2,4.209,4.209,0,0,1,1.859.391v1.313a3.258,3.258,0,0,0-1.906-.625,2.576,2.576,0,0,0-2.012.879,3.335,3.335,0,0,0-.785,2.309A3.176,3.176,0,0,0,22.1-1.7a2.545,2.545,0,0,0,1.98.813,3.211,3.211,0,0,0,1.969-.7Zm2.634-9.664a.812.812,0,0,1-.586-.234.791.791,0,0,1-.242-.594.8.8,0,0,1,.242-.6.8.8,0,0,1,.586-.238.827.827,0,0,1,.6.238.8.8,0,0,1,.246.6.792.792,0,0,1-.246.586A.82.82,0,0,1,28.683-10.031ZM29.308,0H28.027V-8h1.281Zm8.36,0H36.388V-1.25h-.031A2.682,2.682,0,0,1,33.9.188a2.63,2.63,0,0,1-1.871-.633,2.192,2.192,0,0,1-.676-1.68q0-2.242,2.641-2.609l2.4-.336q0-2.039-1.648-2.039a3.938,3.938,0,0,0-2.609.984V-7.437a4.958,4.958,0,0,1,2.719-.75q2.82,0,2.82,2.984ZM36.388-4.047l-1.93.266a3.133,3.133,0,0,0-1.344.441,1.273,1.273,0,0,0-.453,1.121,1.221,1.221,0,0,0,.418.957,1.615,1.615,0,0,0,1.113.371,2.056,2.056,0,0,0,1.574-.668,2.387,2.387,0,0,0,.621-1.691Z" transform="translate(798.386 993.804)" fill="#12263f"/>
    <path id="Trazado_1383741" data-name="Trazado 1383741" d="M-12.522-9.8-16.152,0h-1.265l-3.555-9.8h1.278L-16.98-2.03a4.615,4.615,0,0,1,.2.868h.027a4.258,4.258,0,0,1,.226-.882L-13.76-9.8ZM-9.193.164a3.247,3.247,0,0,1-2.478-.981,3.634,3.634,0,0,1-.926-2.6,3.785,3.785,0,0,1,.964-2.755,3.465,3.465,0,0,1,2.6-.991A3.14,3.14,0,0,1-6.585-6.2a3.822,3.822,0,0,1,.878,2.673A3.761,3.761,0,0,1-6.653-.844,3.317,3.317,0,0,1-9.193.164Zm.082-6.385a2.132,2.132,0,0,0-1.709.735,3.018,3.018,0,0,0-.629,2.027A2.854,2.854,0,0,0-10.813-1.5a2.161,2.161,0,0,0,1.7.718,2.049,2.049,0,0,0,1.671-.7,3.055,3.055,0,0,0,.584-2A3.108,3.108,0,0,0-7.439-5.51,2.04,2.04,0,0,0-9.111-6.221ZM-2.759,0H-3.88V-10.363h1.121ZM2.792-.068A2.161,2.161,0,0,1,1.747.15Q-.092.15-.092-1.9V-6.043H-1.3V-7h1.2V-8.709l1.121-.362V-7H2.792v.957H1.029V-2.1a1.635,1.635,0,0,0,.239,1,.955.955,0,0,0,.793.3,1.179,1.179,0,0,0,.731-.232ZM9.335,0H8.214V-1.094H8.187A2.347,2.347,0,0,1,6.034.164,2.3,2.3,0,0,1,4.4-.39a1.918,1.918,0,0,1-.591-1.47q0-1.962,2.311-2.283l2.1-.294q0-1.784-1.442-1.784a3.446,3.446,0,0,0-2.283.861V-6.508a4.338,4.338,0,0,1,2.379-.656q2.468,0,2.468,2.611ZM8.214-3.541l-1.688.232a2.741,2.741,0,0,0-1.176.386,1.114,1.114,0,0,0-.4.981,1.068,1.068,0,0,0,.366.837,1.413,1.413,0,0,0,.974.325,1.8,1.8,0,0,0,1.377-.584,2.088,2.088,0,0,0,.543-1.48ZM12.6-.294a4.387,4.387,0,0,1-.694,2.656,2.326,2.326,0,0,1-1.986.933,2.108,2.108,0,0,1-.93-.219V2.03a1.855,1.855,0,0,0,.957.308q1.531,0,1.531-2.447V-7H12.6Zm-.547-8.483a.71.71,0,0,1-.513-.205.692.692,0,0,1-.212-.52.7.7,0,0,1,.212-.523.7.7,0,0,1,.513-.208.724.724,0,0,1,.523.208A.7.7,0,0,1,12.8-9.5a.693.693,0,0,1-.215.513A.718.718,0,0,1,12.057-8.777ZM20.534-3.22H15.592a2.618,2.618,0,0,0,.629,1.8,2.168,2.168,0,0,0,1.654.636,3.439,3.439,0,0,0,2.174-.779V-.506a4.063,4.063,0,0,1-2.44.67A2.959,2.959,0,0,1,15.277-.79a3.9,3.9,0,0,1-.848-2.683,3.828,3.828,0,0,1,.926-2.663,2.97,2.97,0,0,1,2.3-1.029,2.632,2.632,0,0,1,2.126.889,3.705,3.705,0,0,1,.752,2.468Zm-1.148-.95a2.281,2.281,0,0,0-.468-1.511,1.6,1.6,0,0,0-1.282-.54,1.811,1.811,0,0,0-1.347.567,2.575,2.575,0,0,0-.684,1.483Z" transform="translate(670.995 909.012)" fill="#fff"/>
    <path id="Trazado_1383742" data-name="Trazado 1383742" d="M-20.836-.41a5.749,5.749,0,0,1-2.707.574,4.366,4.366,0,0,1-3.35-1.347A4.969,4.969,0,0,1-28.15-4.717a5.208,5.208,0,0,1,1.415-3.8,4.8,4.8,0,0,1,3.589-1.449,5.754,5.754,0,0,1,2.311.4V-8.34a4.686,4.686,0,0,0-2.324-.588A3.566,3.566,0,0,0-25.9-7.8a4.249,4.249,0,0,0-1.049,3.015,4.043,4.043,0,0,0,.981,2.854A3.338,3.338,0,0,0-23.392-.868a4.828,4.828,0,0,0,2.557-.656Zm4.806.574a3.247,3.247,0,0,1-2.478-.981,3.633,3.633,0,0,1-.926-2.6,3.785,3.785,0,0,1,.964-2.755,3.465,3.465,0,0,1,2.6-.991,3.14,3.14,0,0,1,2.444.964,3.822,3.822,0,0,1,.878,2.673A3.761,3.761,0,0,1-13.49-.844,3.317,3.317,0,0,1-16.029.164Zm.082-6.385a2.132,2.132,0,0,0-1.709.735,3.018,3.018,0,0,0-.629,2.027A2.854,2.854,0,0,0-17.649-1.5a2.161,2.161,0,0,0,1.7.718,2.049,2.049,0,0,0,1.671-.7,3.055,3.055,0,0,0,.584-2,3.108,3.108,0,0,0-.584-2.023A2.04,2.04,0,0,0-15.947-6.221Zm8.881.355a1.371,1.371,0,0,0-.848-.226,1.431,1.431,0,0,0-1.2.677A3.129,3.129,0,0,0-9.6-3.568V0h-1.121V-7H-9.6v1.442h.027a2.444,2.444,0,0,1,.731-1.152,1.668,1.668,0,0,1,1.1-.414,1.83,1.83,0,0,1,.67.1Zm4.9,0a1.371,1.371,0,0,0-.848-.226,1.431,1.431,0,0,0-1.2.677,3.129,3.129,0,0,0-.482,1.846V0H-5.815V-7h1.121v1.442h.027a2.444,2.444,0,0,1,.731-1.152,1.668,1.668,0,0,1,1.1-.414,1.83,1.83,0,0,1,.67.1ZM-.338-8.777a.71.71,0,0,1-.513-.205.692.692,0,0,1-.212-.52.7.7,0,0,1,.212-.523.7.7,0,0,1,.513-.208.724.724,0,0,1,.523.208A.7.7,0,0,1,.4-9.5a.693.693,0,0,1-.215.513A.718.718,0,0,1-.338-8.777ZM.208,0H-.913V-7H.208ZM8.139-3.22H3.2a2.618,2.618,0,0,0,.629,1.8A2.168,2.168,0,0,0,5.48-.779a3.439,3.439,0,0,0,2.174-.779V-.506a4.063,4.063,0,0,1-2.44.67A2.959,2.959,0,0,1,2.882-.79a3.9,3.9,0,0,1-.848-2.683,3.828,3.828,0,0,1,.926-2.663,2.97,2.97,0,0,1,2.3-1.029,2.632,2.632,0,0,1,2.126.889,3.705,3.705,0,0,1,.752,2.468ZM6.991-4.17a2.281,2.281,0,0,0-.468-1.511,1.6,1.6,0,0,0-1.282-.54,1.811,1.811,0,0,0-1.347.567A2.575,2.575,0,0,0,3.21-4.17ZM15.68,0H14.559V-3.992q0-2.229-1.627-2.229a1.765,1.765,0,0,0-1.391.632,2.344,2.344,0,0,0-.55,1.6V0H9.869V-7H10.99v1.162h.027a2.526,2.526,0,0,1,2.3-1.326,2.142,2.142,0,0,1,1.757.742,3.3,3.3,0,0,1,.608,2.143Zm5.394-.068A2.161,2.161,0,0,1,20.028.15Q18.189.15,18.189-1.9V-6.043h-1.2V-7h1.2V-8.709l1.121-.362V-7h1.764v.957H19.311V-2.1a1.635,1.635,0,0,0,.239,1,.955.955,0,0,0,.793.3,1.179,1.179,0,0,0,.731-.232ZM28.232-3.22H23.29a2.618,2.618,0,0,0,.629,1.8,2.168,2.168,0,0,0,1.654.636,3.439,3.439,0,0,0,2.174-.779V-.506a4.063,4.063,0,0,1-2.44.67A2.959,2.959,0,0,1,22.975-.79a3.9,3.9,0,0,1-.848-2.683,3.828,3.828,0,0,1,.926-2.663,2.97,2.97,0,0,1,2.3-1.029,2.632,2.632,0,0,1,2.126.889,3.705,3.705,0,0,1,.752,2.468Zm-1.148-.95a2.281,2.281,0,0,0-.468-1.511,1.6,1.6,0,0,0-1.282-.54,1.811,1.811,0,0,0-1.347.567A2.575,2.575,0,0,0,23.3-4.17Z" transform="translate(902.719 909.012)" fill="#12263f"/>
    <g id="Grupo_1211124" data-name="Grupo 1211124" transform="translate(733.352 880.22)">
      <g id="Grupo_1211123" data-name="Grupo 1211123" transform="translate(10.123 5.399)">
        <line id="Línea_3516" data-name="Línea 3516" x2="13.688" transform="translate(0 1.69)" fill="none" stroke="#bafbfb" stroke-linecap="round" stroke-width="1"/>
        <path id="Polígono_15" data-name="Polígono 15" d="M1.644,0,3.287,7.4H0Z" transform="translate(17.533) rotate(90)" fill="#bafbfb"/>
      </g>
      <ellipse id="Elipse_13828" data-name="Elipse 13828" cx="6.749" cy="6.749" rx="6.749" ry="6.749" transform="translate(0 0)" fill="#e5effb"/>
    </g>
    <g id="Grupo_1212682" data-name="Grupo 1212682" transform="translate(745.075 898.822)">
      <g id="Grupo_1211123-2" data-name="Grupo 1211123" transform="translate(10.123 5.399)">
        <line id="Línea_3516-2" data-name="Línea 3516" x2="13.688" transform="translate(0 1.69)" fill="none" stroke="#bafbfb" stroke-linecap="round" stroke-width="1"/>
        <path id="Polígono_15-2" data-name="Polígono 15" d="M1.644,0,3.287,7.4H0Z" transform="translate(17.533) rotate(90)" fill="#bafbfb"/>
      </g>
      <ellipse id="Elipse_13828-2" data-name="Elipse 13828" cx="6.749" cy="6.749" rx="6.749" ry="6.749" transform="translate(0 0)" fill="#e5effb"/>
    </g>
    <g id="Grupo_1212683" data-name="Grupo 1212683" transform="translate(782.79 898.822)">
      <g id="Grupo_1211123-3" data-name="Grupo 1211123" transform="translate(10.123 5.399)">
        <line id="Línea_3516-3" data-name="Línea 3516" x2="13.688" transform="translate(0 1.69)" fill="none" stroke="#bafbfb" stroke-linecap="round" stroke-width="1"/>
        <path id="Polígono_15-3" data-name="Polígono 15" d="M1.644,0,3.287,7.4H0Z" transform="translate(17.533) rotate(90)" fill="#bafbfb"/>
      </g>
      <ellipse id="Elipse_13828-3" data-name="Elipse 13828" cx="6.749" cy="6.749" rx="6.749" ry="6.749" transform="translate(0 0)" fill="#e5effb"/>
    </g>
    <g id="Grupo_1212684" data-name="Grupo 1212684" transform="translate(819.585 898.822)">
      <g id="Grupo_1211123-4" data-name="Grupo 1211123" transform="translate(10.123 5.399)">
        <line id="Línea_3516-4" data-name="Línea 3516" x2="13.688" transform="translate(0 1.69)" fill="none" stroke="#bafbfb" stroke-linecap="round" stroke-width="1"/>
        <path id="Polígono_15-4" data-name="Polígono 15" d="M1.644,0,3.287,7.4H0Z" transform="translate(17.533) rotate(90)" fill="#bafbfb"/>
      </g>
      <ellipse id="Elipse_13828-4" data-name="Elipse 13828" cx="6.749" cy="6.749" rx="6.749" ry="6.749" transform="translate(0 0)" fill="#e5effb"/>
    </g>
    <g id="Grupo_1212681" data-name="Grupo 1212681" transform="translate(733.352 917.935)">
      <g id="Grupo_1211123-5" data-name="Grupo 1211123" transform="translate(10.123 5.399)">
        <line id="Línea_3516-5" data-name="Línea 3516" x2="13.688" transform="translate(0 1.69)" fill="none" stroke="#bafbfb" stroke-linecap="round" stroke-width="1"/>
        <path id="Polígono_15-5" data-name="Polígono 15" d="M1.644,0,3.287,7.4H0Z" transform="translate(17.533) rotate(90)" fill="#bafbfb"/>
      </g>
      <ellipse id="Elipse_13828-5" data-name="Elipse 13828" cx="6.749" cy="6.749" rx="6.749" ry="6.749" transform="translate(0 0)" fill="#e5effb"/>
    </g>
  </g>
</svg>
