<svg xmlns="http://www.w3.org/2000/svg" xmlns:xlink="http://www.w3.org/1999/xlink" width="84" height="84" viewBox="0 0 84 84">
  <defs>
    <clipPath id="clip-path">
      <rect id="Rectángulo_740030" data-name="Rectángulo 740030" width="84" height="84" fill="#0460d9"/>
    </clipPath>
  </defs>
  <g id="Grupo_1212790" data-name="Grupo 1212790" transform="translate(0 0)">
    <g id="Grupo_1212789" data-name="Grupo 1212789" transform="translate(0 0)" clip-path="url(#clip-path)">
      <path id="Trazado_1383640" data-name="Trazado 1383640" d="M48.323,26.342l-9.469-1.223,3.361-7.33a1.923,1.923,0,0,0-1.68-2.751H28.621a1.879,1.879,0,0,0-1.68,1.07L17.93,35.963a1.922,1.922,0,0,0,1.68,2.751h7.484L19.457,54.442a1.923,1.923,0,0,0,1.681,2.751,1.868,1.868,0,0,0,1.374-.613L49.546,29.548A1.851,1.851,0,0,0,50,27.565a2.021,2.021,0,0,0-1.68-1.223M27.705,45.89l3.97-8.247A1.921,1.921,0,0,0,30,34.894H22.512l7.331-16.036h7.79l-3.208,7.025a1.994,1.994,0,0,0,1.527,2.749L44.2,29.7Z" transform="translate(9.102 7.717)" fill="#0460d9"/>
      <path id="Trazado_1383641" data-name="Trazado 1383641" d="M74.225,0H9.775A9.843,9.843,0,0,0,0,9.775V74.227A9.843,9.843,0,0,0,9.775,84h64.45A9.843,9.843,0,0,0,84,74.227V9.775A9.843,9.843,0,0,0,74.225,0m5.957,74.227a5.965,5.965,0,0,1-5.957,5.957H9.775a5.966,5.966,0,0,1-5.957-5.957V9.775A5.964,5.964,0,0,1,9.775,3.819h64.45a5.963,5.963,0,0,1,5.957,5.956Z" transform="translate(0 0)" fill="#0460d9"/>
      <path id="Trazado_1383642" data-name="Trazado 1383642" d="M9.782,14.616a4.735,4.735,0,1,0,0-9.469A4.63,4.63,0,0,0,5.047,9.729a4.892,4.892,0,0,0,4.735,4.887m0-5.8a.984.984,0,0,1,.915.915.985.985,0,0,1-.915.917.986.986,0,0,1-.917-.917.986.986,0,0,1,.917-.915" transform="translate(2.59 2.642)" fill="#0460d9"/>
      <path id="Trazado_1383643" data-name="Trazado 1383643" d="M9.782,44.209a4.735,4.735,0,1,0,4.735,4.735,4.758,4.758,0,0,0-4.735-4.735m0,5.652a.917.917,0,0,1,0-1.834.985.985,0,0,1,.915.917.88.88,0,0,1-.915.917" transform="translate(2.59 22.685)" fill="#0460d9"/>
      <path id="Trazado_1383644" data-name="Trazado 1383644" d="M48.944,5.047a4.735,4.735,0,1,0,4.735,4.735,4.758,4.758,0,0,0-4.735-4.735m0,5.8a.986.986,0,0,1-.917-.915.916.916,0,1,1,1.832,0,.984.984,0,0,1-.915.915" transform="translate(22.685 2.59)" fill="#0460d9"/>
      <path id="Trazado_1383645" data-name="Trazado 1383645" d="M48.944,44.209a4.735,4.735,0,1,0,4.735,4.735,4.758,4.758,0,0,0-4.735-4.735m0,5.652a.917.917,0,1,1,.915-.917.986.986,0,0,1-.915.917" transform="translate(22.685 22.685)" fill="#0460d9"/>
    </g>
  </g>
</svg>
