<svg xmlns="http://www.w3.org/2000/svg" xmlns:xlink="http://www.w3.org/1999/xlink" width="78.55" height="77.833" viewBox="0 0 78.55 77.833">
  <defs>
    <clipPath id="clip-path">
      <rect id="Rectángulo_739472" data-name="Rectángulo 739472" width="78.55" height="77.833" fill="#17c1c1"/>
    </clipPath>
  </defs>
  <g id="Grupo_1211788" data-name="Grupo 1211788" transform="translate(0 0)">
    <g id="Grupo_1211787" data-name="Grupo 1211787" transform="translate(0 0)" clip-path="url(#clip-path)">
      <path id="Trazado_1375779" data-name="Trazado 1375779" d="M77.306,47.394,40.938,37.907V31.924a1.663,1.663,0,0,0-1.231-1.606L27.532,27.047a1.664,1.664,0,0,0-1.33.207l-5.087,3.271a.789.789,0,0,0-.061.051,1.558,1.558,0,0,0-.2.165c-.029.029-.061.056-.088.087a1.684,1.684,0,0,0-.188.262c-.009.014-.02.028-.029.043a1.626,1.626,0,0,0-.132.318c0,.01,0,.021-.006.031-.01.036-.014.074-.022.112a1.672,1.672,0,0,0-.034.273c0,.019-.007.036-.007.055V36.2L1.1,43.076a1.663,1.663,0,0,0,.169,3.182L9.285,48.2V60.483a1.663,1.663,0,0,0,1.245,1.61l4.152,1.079v5.587A3.531,3.531,0,0,0,17.3,72.165l.31.083a3.551,3.551,0,0,0,.92.122,3.528,3.528,0,0,0,3.515-3.527V65.086l4.922,1.279V72.6a3.53,3.53,0,0,0,2.615,3.406l.311.083a3.541,3.541,0,0,0,.92.122,3.529,3.529,0,0,0,3.516-3.527V68.278l4.306,1.12v6.168a3.529,3.529,0,0,0,2.613,3.4l.313.084a3.55,3.55,0,0,0,.919.122,3.528,3.528,0,0,0,3.516-3.527V71.313L55.64,73.82a1.638,1.638,0,0,0,.418.053,1.665,1.665,0,0,0,.672-.142l14.964-6.605a1.664,1.664,0,0,0,.991-1.521V52.781l4.9-2.269a1.662,1.662,0,0,0-.279-3.118M23.677,37.375V34.15l7.851,2.32v8.3l-7.851-1.914Zm15.846,7.773,18.57,4.677-2.1.91L37.61,46.254Zm-12.142-14.7L37.612,33.2v9.212l-2.759,1.594V35.228a1.661,1.661,0,0,0-1.192-1.594l-7.694-2.275Zm-7.03,9.284v2.312l-1.2-.291a1.663,1.663,0,1,0-.787,3.231L55.755,54.1a1.658,1.658,0,0,0,1.056-.09l7.084-3.08a1.662,1.662,0,0,0-.257-3.137l-22.7-5.718v-.731l31.043,8.1-14.89,6.894-49.623-12ZM18.716,68.842a.188.188,0,0,1-.078.159.191.191,0,0,1-.174.034l-.31-.083a.2.2,0,0,1-.147-.193V64.037l.709.184ZM31,72.684a.19.19,0,0,1-.078.159.185.185,0,0,1-.173.033l-.312-.083a.2.2,0,0,1-.147-.192V67.229l.71.184Zm11.667,2.966a.2.2,0,0,1-.248.194l-.314-.085a.2.2,0,0,1-.147-.192v-5.3l.709.184ZM69.359,64.521,55.916,70.455,21.382,61.478a1.643,1.643,0,0,0-1-.345,1.546,1.546,0,0,0-.232.024l-2.8-.728a1.649,1.649,0,0,0-1-.345,1.572,1.572,0,0,0-.233.024l-3.5-.91V49L56.872,59.7a1.656,1.656,0,0,0,.391.047,1.676,1.676,0,0,0,.7-.154l11.4-5.277Z" transform="translate(0 -1.343)" fill="#17c1c1"/>
      <path id="Trazado_1375780" data-name="Trazado 1375780" d="M7.889,22.126H71.557c3.944,0,7.035-4.859,7.035-11.063S75.5,0,71.557,0H7.889C3.945,0,.855,4.859.855,11.064s3.09,11.063,7.034,11.063m14.388-18.8c1.749,0,3.708,3.309,3.708,7.738S24.026,18.8,22.277,18.8H12.954a14.9,14.9,0,0,0,1.968-7.737,14.9,14.9,0,0,0-1.968-7.738Zm36.136,7.738c0,4.428-1.958,7.737-3.709,7.737-1.523,0-3.2-2.507-3.613-6.074H54.7a1.663,1.663,0,1,0,0-3.326H51.092c.41-3.568,2.09-6.075,3.613-6.075,1.75,0,3.709,3.309,3.709,7.738M29.226,12.726H47.755A14.13,14.13,0,0,0,49.639,18.8h-22.3a14.117,14.117,0,0,0,1.884-6.074M47.755,9.4H29.226a14.13,14.13,0,0,0-1.884-6.075h22.3A14.13,14.13,0,0,0,47.755,9.4m27.511,1.663c0,4.428-1.957,7.737-3.709,7.737H59.77a14.89,14.89,0,0,0,1.969-7.737A14.891,14.891,0,0,0,59.77,3.326H71.557c1.751,0,3.709,3.309,3.709,7.738M7.889,3.326c1.75,0,3.708,3.309,3.708,7.738S9.639,18.8,7.889,18.8s-3.708-3.309-3.708-7.737S6.138,3.326,7.889,3.326" transform="translate(-0.043 0)" fill="#17c1c1"/>
    </g>
  </g>
</svg>
